G04 EAGLE Gerber RS-274X export*
G75*
%MOMM*%
%FSLAX34Y34*%
%LPD*%
%INBottom Copper*%
%IPPOS*%
%AMOC8*
5,1,8,0,0,1.08239X$1,22.5*%
G01*
%ADD10C,2.000000*%
%ADD11C,1.524000*%
%ADD12R,1.676400X1.676400*%
%ADD13C,1.676400*%
%ADD14R,2.000000X2.000000*%
%ADD15C,0.756400*%
%ADD16C,0.300000*%
%ADD17C,0.200000*%
%ADD18C,0.400000*%

G36*
X435555Y10174D02*
X435555Y10174D01*
X435651Y10179D01*
X435694Y10194D01*
X435739Y10201D01*
X435827Y10240D01*
X435918Y10272D01*
X435955Y10298D01*
X435996Y10317D01*
X436069Y10379D01*
X436148Y10435D01*
X436176Y10471D01*
X436211Y10500D01*
X436263Y10581D01*
X436323Y10656D01*
X436340Y10698D01*
X436365Y10736D01*
X436393Y10828D01*
X436429Y10917D01*
X436434Y10962D01*
X436447Y11006D01*
X436449Y11102D01*
X436459Y11197D01*
X436451Y11242D01*
X436451Y11288D01*
X436426Y11380D01*
X436408Y11475D01*
X436388Y11516D01*
X436376Y11560D01*
X436326Y11641D01*
X436283Y11727D01*
X436252Y11761D01*
X436228Y11800D01*
X436157Y11864D01*
X436091Y11935D01*
X436055Y11956D01*
X436019Y11989D01*
X435903Y12044D01*
X435825Y12090D01*
X428885Y14814D01*
X419416Y22365D01*
X412594Y32372D01*
X409024Y43944D01*
X409024Y56056D01*
X412594Y67628D01*
X419417Y77635D01*
X428885Y85186D01*
X440159Y89611D01*
X452236Y90516D01*
X464044Y87821D01*
X474532Y81765D01*
X482770Y72887D01*
X487940Y62152D01*
X487973Y62103D01*
X487997Y62049D01*
X488051Y61986D01*
X488097Y61917D01*
X488142Y61879D01*
X488180Y61835D01*
X488249Y61789D01*
X488313Y61736D01*
X488367Y61712D01*
X488416Y61680D01*
X488495Y61656D01*
X488571Y61623D01*
X488630Y61615D01*
X488686Y61598D01*
X488769Y61597D01*
X488851Y61586D01*
X488909Y61595D01*
X488968Y61594D01*
X489048Y61616D01*
X489130Y61629D01*
X489183Y61654D01*
X489240Y61669D01*
X489310Y61713D01*
X489385Y61748D01*
X489429Y61786D01*
X489480Y61817D01*
X489535Y61879D01*
X489597Y61933D01*
X489629Y61983D01*
X489669Y62027D01*
X489705Y62101D01*
X489749Y62171D01*
X489766Y62228D01*
X489792Y62280D01*
X489803Y62354D01*
X489829Y62442D01*
X489829Y62520D01*
X489839Y62585D01*
X489839Y736615D01*
X489831Y736673D01*
X489832Y736732D01*
X489811Y736812D01*
X489799Y736894D01*
X489775Y736948D01*
X489760Y737005D01*
X489717Y737076D01*
X489683Y737151D01*
X489645Y737196D01*
X489615Y737246D01*
X489554Y737302D01*
X489500Y737365D01*
X489451Y737398D01*
X489407Y737438D01*
X489333Y737474D01*
X489264Y737520D01*
X489208Y737537D01*
X489155Y737563D01*
X489073Y737578D01*
X488994Y737602D01*
X488935Y737603D01*
X488877Y737613D01*
X488795Y737605D01*
X488712Y737606D01*
X488655Y737590D01*
X488597Y737584D01*
X488520Y737553D01*
X488440Y737531D01*
X488390Y737500D01*
X488336Y737478D01*
X488271Y737426D01*
X488200Y737383D01*
X488161Y737339D01*
X488115Y737302D01*
X488072Y737241D01*
X488011Y737173D01*
X487977Y737103D01*
X487940Y737048D01*
X482770Y726313D01*
X474532Y717435D01*
X464044Y711379D01*
X452236Y708684D01*
X440159Y709589D01*
X428885Y714014D01*
X419417Y721565D01*
X412594Y731572D01*
X409024Y743144D01*
X409024Y755256D01*
X412594Y766828D01*
X419417Y776835D01*
X428885Y784386D01*
X437864Y787910D01*
X437947Y787957D01*
X438035Y787997D01*
X438069Y788026D01*
X438109Y788049D01*
X438176Y788118D01*
X438249Y788180D01*
X438274Y788218D01*
X438306Y788251D01*
X438351Y788336D01*
X438403Y788416D01*
X438417Y788460D01*
X438438Y788500D01*
X438458Y788594D01*
X438486Y788686D01*
X438486Y788731D01*
X438496Y788776D01*
X438488Y788872D01*
X438490Y788968D01*
X438477Y789012D01*
X438474Y789057D01*
X438440Y789147D01*
X438414Y789240D01*
X438390Y789279D01*
X438374Y789321D01*
X438317Y789398D01*
X438266Y789480D01*
X438232Y789510D01*
X438205Y789547D01*
X438128Y789604D01*
X438057Y789669D01*
X438016Y789689D01*
X437979Y789716D01*
X437890Y789750D01*
X437803Y789792D01*
X437761Y789798D01*
X437716Y789815D01*
X437588Y789825D01*
X437499Y789839D01*
X64069Y789839D01*
X64040Y789835D01*
X64010Y789838D01*
X63900Y789815D01*
X63790Y789799D01*
X63763Y789787D01*
X63734Y789781D01*
X63635Y789729D01*
X63533Y789683D01*
X63510Y789664D01*
X63484Y789650D01*
X63404Y789573D01*
X63319Y789500D01*
X63302Y789475D01*
X63281Y789455D01*
X63225Y789358D01*
X63164Y789264D01*
X63155Y789236D01*
X63141Y789210D01*
X63114Y789101D01*
X63082Y788994D01*
X63081Y788965D01*
X63074Y788936D01*
X63079Y788824D01*
X63078Y788712D01*
X63086Y788684D01*
X63087Y788654D01*
X63123Y788549D01*
X63153Y788440D01*
X63169Y788415D01*
X63178Y788387D01*
X63242Y788296D01*
X63301Y788200D01*
X63323Y788181D01*
X63340Y788156D01*
X63428Y788086D01*
X63511Y788011D01*
X63537Y787998D01*
X63560Y787980D01*
X63645Y787946D01*
X63764Y787888D01*
X63807Y787882D01*
X63847Y787866D01*
X64044Y787821D01*
X74532Y781765D01*
X82770Y772887D01*
X88024Y761976D01*
X89829Y750000D01*
X88024Y738024D01*
X82770Y727113D01*
X74532Y718235D01*
X64044Y712179D01*
X52236Y709484D01*
X40159Y710389D01*
X28885Y714814D01*
X19417Y722365D01*
X12594Y732372D01*
X12115Y733925D01*
X12092Y733974D01*
X12080Y734017D01*
X12046Y734072D01*
X12003Y734167D01*
X11998Y734173D01*
X11995Y734181D01*
X11944Y734238D01*
X11932Y734257D01*
X11906Y734281D01*
X11820Y734381D01*
X11813Y734386D01*
X11808Y734392D01*
X11725Y734444D01*
X11722Y734446D01*
X11718Y734449D01*
X11696Y734462D01*
X11584Y734536D01*
X11576Y734538D01*
X11569Y734542D01*
X11442Y734579D01*
X11314Y734618D01*
X11306Y734618D01*
X11298Y734621D01*
X11165Y734620D01*
X11032Y734622D01*
X11024Y734620D01*
X11016Y734620D01*
X10889Y734582D01*
X10760Y734547D01*
X10753Y734542D01*
X10746Y734540D01*
X10634Y734469D01*
X10520Y734399D01*
X10515Y734393D01*
X10508Y734388D01*
X10420Y734288D01*
X10416Y734283D01*
X10410Y734278D01*
X10406Y734272D01*
X10331Y734189D01*
X10328Y734182D01*
X10322Y734176D01*
X10272Y734067D01*
X10255Y734042D01*
X10247Y734016D01*
X10208Y733936D01*
X10207Y733928D01*
X10204Y733920D01*
X10189Y733825D01*
X10173Y733772D01*
X10172Y733714D01*
X10161Y733641D01*
X10162Y733636D01*
X10161Y733631D01*
X10161Y461351D01*
X10165Y461319D01*
X10163Y461287D01*
X10185Y461180D01*
X10201Y461072D01*
X10214Y461042D01*
X10220Y461011D01*
X10272Y460914D01*
X10317Y460815D01*
X10338Y460790D01*
X10353Y460762D01*
X10429Y460683D01*
X10500Y460600D01*
X10527Y460583D01*
X10550Y460560D01*
X10645Y460506D01*
X10736Y460446D01*
X10767Y460436D01*
X10795Y460421D01*
X10902Y460395D01*
X11006Y460363D01*
X11038Y460363D01*
X11069Y460356D01*
X11179Y460361D01*
X11288Y460360D01*
X11319Y460368D01*
X11351Y460370D01*
X11454Y460406D01*
X11560Y460435D01*
X11587Y460452D01*
X11618Y460462D01*
X11691Y460516D01*
X11800Y460583D01*
X11832Y460619D01*
X11867Y460644D01*
X32501Y481278D01*
X32558Y481355D01*
X32623Y481426D01*
X32643Y481467D01*
X32670Y481504D01*
X32704Y481594D01*
X32746Y481680D01*
X32752Y481722D01*
X32769Y481768D01*
X32779Y481895D01*
X32793Y481985D01*
X32793Y483656D01*
X33601Y485606D01*
X35094Y487099D01*
X37044Y487907D01*
X39156Y487907D01*
X41106Y487099D01*
X42599Y485606D01*
X43407Y483656D01*
X43407Y481544D01*
X42599Y479594D01*
X41106Y478101D01*
X39156Y477293D01*
X37485Y477293D01*
X37390Y477280D01*
X37294Y477275D01*
X37251Y477260D01*
X37206Y477253D01*
X37118Y477214D01*
X37027Y477182D01*
X36993Y477157D01*
X36949Y477137D01*
X36851Y477054D01*
X36778Y477001D01*
X14977Y455200D01*
X14920Y455123D01*
X14855Y455052D01*
X14835Y455011D01*
X14808Y454974D01*
X14774Y454884D01*
X14732Y454798D01*
X14726Y454756D01*
X14709Y454710D01*
X14699Y454583D01*
X14685Y454493D01*
X14685Y231307D01*
X14698Y231212D01*
X14703Y231116D01*
X14718Y231073D01*
X14725Y231028D01*
X14764Y230940D01*
X14796Y230849D01*
X14821Y230815D01*
X14841Y230771D01*
X14924Y230673D01*
X14977Y230600D01*
X26360Y219217D01*
X26437Y219160D01*
X26508Y219095D01*
X26549Y219075D01*
X26586Y219048D01*
X26676Y219014D01*
X26762Y218972D01*
X26804Y218966D01*
X26850Y218949D01*
X26977Y218939D01*
X27067Y218925D01*
X376106Y218925D01*
X376201Y218938D01*
X376297Y218943D01*
X376340Y218958D01*
X376385Y218965D01*
X376473Y219004D01*
X376564Y219036D01*
X376598Y219061D01*
X376642Y219081D01*
X376739Y219164D01*
X376813Y219217D01*
X377994Y220399D01*
X379944Y221207D01*
X382056Y221207D01*
X384006Y220399D01*
X385499Y218906D01*
X386307Y216956D01*
X386307Y214844D01*
X385499Y212894D01*
X384006Y211401D01*
X382056Y210593D01*
X379944Y210593D01*
X377994Y211401D01*
X376813Y212583D01*
X376736Y212640D01*
X376664Y212705D01*
X376623Y212725D01*
X376587Y212752D01*
X376497Y212786D01*
X376411Y212828D01*
X376369Y212834D01*
X376323Y212851D01*
X376196Y212861D01*
X376106Y212875D01*
X24147Y212875D01*
X22083Y214940D01*
X11867Y225156D01*
X11841Y225175D01*
X11820Y225200D01*
X11728Y225260D01*
X11641Y225325D01*
X11611Y225337D01*
X11584Y225354D01*
X11479Y225386D01*
X11377Y225425D01*
X11345Y225427D01*
X11314Y225437D01*
X11205Y225438D01*
X11096Y225446D01*
X11064Y225440D01*
X11032Y225440D01*
X10927Y225411D01*
X10820Y225389D01*
X10791Y225374D01*
X10760Y225365D01*
X10667Y225308D01*
X10571Y225256D01*
X10548Y225234D01*
X10520Y225217D01*
X10447Y225136D01*
X10369Y225060D01*
X10353Y225032D01*
X10331Y225008D01*
X10284Y224909D01*
X10230Y224814D01*
X10222Y224783D01*
X10208Y224754D01*
X10194Y224665D01*
X10165Y224540D01*
X10167Y224491D01*
X10161Y224449D01*
X10161Y66369D01*
X10180Y66237D01*
X10196Y66105D01*
X10199Y66098D01*
X10201Y66090D01*
X10256Y65968D01*
X10308Y65846D01*
X10313Y65840D01*
X10317Y65833D01*
X10403Y65732D01*
X10488Y65629D01*
X10495Y65625D01*
X10500Y65619D01*
X10612Y65546D01*
X10722Y65471D01*
X10729Y65469D01*
X10736Y65464D01*
X10864Y65425D01*
X10990Y65384D01*
X10998Y65384D01*
X11006Y65382D01*
X11138Y65380D01*
X11272Y65376D01*
X11280Y65378D01*
X11288Y65378D01*
X11416Y65413D01*
X11545Y65447D01*
X11552Y65451D01*
X11560Y65453D01*
X11673Y65523D01*
X11787Y65591D01*
X11793Y65597D01*
X11800Y65601D01*
X11889Y65700D01*
X11980Y65798D01*
X11983Y65804D01*
X11989Y65811D01*
X12112Y66064D01*
X12112Y66070D01*
X12115Y66075D01*
X12594Y67628D01*
X19417Y77635D01*
X28885Y85186D01*
X40159Y89611D01*
X52236Y90516D01*
X64044Y87821D01*
X74532Y81765D01*
X82770Y72887D01*
X88024Y61976D01*
X89829Y50000D01*
X88024Y38024D01*
X82770Y27113D01*
X74532Y18235D01*
X64044Y12179D01*
X63847Y12134D01*
X63819Y12124D01*
X63790Y12119D01*
X63688Y12073D01*
X63583Y12033D01*
X63560Y12015D01*
X63533Y12003D01*
X63448Y11930D01*
X63359Y11863D01*
X63341Y11839D01*
X63319Y11820D01*
X63257Y11726D01*
X63191Y11636D01*
X63180Y11609D01*
X63164Y11584D01*
X63131Y11477D01*
X63092Y11372D01*
X63090Y11342D01*
X63082Y11314D01*
X63080Y11202D01*
X63072Y11091D01*
X63078Y11062D01*
X63078Y11032D01*
X63108Y10924D01*
X63131Y10815D01*
X63145Y10789D01*
X63153Y10760D01*
X63212Y10665D01*
X63265Y10567D01*
X63286Y10546D01*
X63301Y10520D01*
X63385Y10445D01*
X63463Y10366D01*
X63489Y10351D01*
X63511Y10331D01*
X63612Y10282D01*
X63709Y10228D01*
X63738Y10221D01*
X63764Y10208D01*
X63855Y10194D01*
X63984Y10164D01*
X64027Y10167D01*
X64069Y10161D01*
X435460Y10161D01*
X435555Y10174D01*
G37*
%LPC*%
G36*
X125747Y111275D02*
X125747Y111275D01*
X108260Y128763D01*
X108183Y128820D01*
X108112Y128885D01*
X108071Y128905D01*
X108034Y128932D01*
X107944Y128966D01*
X107858Y129008D01*
X107816Y129014D01*
X107770Y129031D01*
X107643Y129041D01*
X107553Y129055D01*
X44264Y129055D01*
X44169Y129042D01*
X44073Y129037D01*
X44030Y129022D01*
X43985Y129015D01*
X43897Y128976D01*
X43806Y128944D01*
X43772Y128919D01*
X43728Y128899D01*
X43631Y128816D01*
X43557Y128763D01*
X42376Y127581D01*
X40426Y126773D01*
X38314Y126773D01*
X36364Y127581D01*
X34871Y129074D01*
X34063Y131024D01*
X34063Y133136D01*
X34871Y135086D01*
X36364Y136579D01*
X38314Y137387D01*
X40426Y137387D01*
X42376Y136579D01*
X43557Y135397D01*
X43634Y135340D01*
X43706Y135275D01*
X43747Y135255D01*
X43783Y135228D01*
X43873Y135194D01*
X43959Y135152D01*
X44001Y135146D01*
X44047Y135129D01*
X44175Y135119D01*
X44264Y135105D01*
X110473Y135105D01*
X127960Y117617D01*
X128037Y117560D01*
X128108Y117495D01*
X128149Y117475D01*
X128186Y117448D01*
X128276Y117414D01*
X128362Y117372D01*
X128404Y117366D01*
X128450Y117349D01*
X128577Y117339D01*
X128667Y117325D01*
X468233Y117325D01*
X468328Y117338D01*
X468424Y117343D01*
X468467Y117358D01*
X468512Y117365D01*
X468600Y117404D01*
X468691Y117436D01*
X468725Y117461D01*
X468769Y117481D01*
X468867Y117564D01*
X468940Y117617D01*
X478783Y127460D01*
X478840Y127537D01*
X478905Y127608D01*
X478925Y127649D01*
X478952Y127686D01*
X478986Y127776D01*
X479028Y127862D01*
X479034Y127904D01*
X479051Y127950D01*
X479061Y128077D01*
X479075Y128167D01*
X479075Y556926D01*
X479062Y557021D01*
X479057Y557117D01*
X479042Y557160D01*
X479035Y557205D01*
X478996Y557293D01*
X478964Y557384D01*
X478939Y557418D01*
X478919Y557462D01*
X478836Y557560D01*
X478783Y557633D01*
X468008Y568407D01*
X467957Y568445D01*
X467912Y568491D01*
X467845Y568530D01*
X467783Y568576D01*
X467723Y568599D01*
X467667Y568631D01*
X467591Y568648D01*
X467519Y568676D01*
X467455Y568681D01*
X467392Y568695D01*
X467315Y568692D01*
X467238Y568697D01*
X467175Y568684D01*
X467111Y568681D01*
X467037Y568656D01*
X466962Y568640D01*
X466905Y568610D01*
X466844Y568589D01*
X466788Y568547D01*
X466713Y568507D01*
X466652Y568448D01*
X466595Y568407D01*
X463728Y565540D01*
X459492Y563785D01*
X454908Y563785D01*
X450672Y565540D01*
X447430Y568782D01*
X445908Y572455D01*
X445872Y572517D01*
X445844Y572583D01*
X445800Y572638D01*
X445765Y572698D01*
X445713Y572747D01*
X445668Y572803D01*
X445610Y572843D01*
X445559Y572891D01*
X445495Y572923D01*
X445437Y572964D01*
X445370Y572987D01*
X445307Y573019D01*
X445237Y573032D01*
X445170Y573055D01*
X445099Y573058D01*
X445030Y573071D01*
X444959Y573064D01*
X444888Y573067D01*
X444819Y573051D01*
X444750Y573044D01*
X444683Y573018D01*
X444614Y573001D01*
X444553Y572966D01*
X444488Y572940D01*
X444431Y572896D01*
X444369Y572860D01*
X444321Y572809D01*
X444265Y572766D01*
X444224Y572708D01*
X444174Y572657D01*
X444145Y572599D01*
X444100Y572537D01*
X444069Y572449D01*
X444035Y572382D01*
X443422Y570496D01*
X442526Y568737D01*
X441365Y567140D01*
X439970Y565745D01*
X438373Y564584D01*
X436614Y563688D01*
X434728Y563075D01*
X434664Y563044D01*
X434596Y563022D01*
X434538Y562982D01*
X434475Y562951D01*
X434422Y562903D01*
X434363Y562863D01*
X434319Y562809D01*
X434267Y562761D01*
X434229Y562700D01*
X434184Y562645D01*
X434156Y562581D01*
X434119Y562521D01*
X434101Y562452D01*
X434073Y562386D01*
X434064Y562316D01*
X434045Y562248D01*
X434047Y562177D01*
X434038Y562106D01*
X434049Y562037D01*
X434050Y561967D01*
X434072Y561898D01*
X434083Y561828D01*
X434113Y561764D01*
X434134Y561697D01*
X434173Y561638D01*
X434204Y561573D01*
X434251Y561520D01*
X434290Y561462D01*
X434344Y561416D01*
X434391Y561362D01*
X434446Y561329D01*
X434505Y561279D01*
X434590Y561241D01*
X434655Y561202D01*
X438328Y559680D01*
X441570Y556438D01*
X443325Y552202D01*
X443325Y547618D01*
X441570Y543382D01*
X438328Y540140D01*
X434092Y538385D01*
X429508Y538385D01*
X425272Y540140D01*
X422030Y543382D01*
X420275Y547618D01*
X420275Y552202D01*
X422030Y556438D01*
X425272Y559680D01*
X428945Y561202D01*
X429007Y561238D01*
X429073Y561266D01*
X429128Y561310D01*
X429188Y561345D01*
X429237Y561397D01*
X429293Y561442D01*
X429333Y561500D01*
X429381Y561551D01*
X429413Y561615D01*
X429454Y561673D01*
X429477Y561740D01*
X429509Y561803D01*
X429522Y561873D01*
X429545Y561940D01*
X429548Y562011D01*
X429561Y562080D01*
X429554Y562151D01*
X429557Y562222D01*
X429541Y562291D01*
X429534Y562360D01*
X429508Y562427D01*
X429491Y562496D01*
X429456Y562557D01*
X429430Y562622D01*
X429386Y562679D01*
X429350Y562741D01*
X429299Y562789D01*
X429256Y562845D01*
X429198Y562886D01*
X429147Y562936D01*
X429089Y562965D01*
X429027Y563010D01*
X428939Y563041D01*
X428872Y563075D01*
X426986Y563688D01*
X425227Y564584D01*
X423630Y565745D01*
X422235Y567140D01*
X421074Y568737D01*
X420178Y570496D01*
X419568Y572373D01*
X419420Y573311D01*
X430800Y573311D01*
X430863Y573320D01*
X430928Y573319D01*
X431002Y573340D01*
X431079Y573351D01*
X431138Y573377D01*
X431200Y573394D01*
X431266Y573435D01*
X431336Y573467D01*
X431385Y573509D01*
X431440Y573542D01*
X431491Y573600D01*
X431550Y573650D01*
X431586Y573704D01*
X431629Y573752D01*
X431662Y573821D01*
X431705Y573886D01*
X431724Y573948D01*
X431752Y574005D01*
X431762Y574075D01*
X431787Y574156D01*
X431788Y574241D01*
X431799Y574310D01*
X431799Y576310D01*
X431790Y576374D01*
X431791Y576438D01*
X431770Y576513D01*
X431759Y576589D01*
X431733Y576648D01*
X431716Y576710D01*
X431675Y576776D01*
X431643Y576846D01*
X431601Y576895D01*
X431568Y576950D01*
X431510Y577002D01*
X431460Y577060D01*
X431406Y577096D01*
X431358Y577139D01*
X431289Y577172D01*
X431224Y577215D01*
X431162Y577234D01*
X431104Y577262D01*
X431035Y577272D01*
X430954Y577297D01*
X430869Y577298D01*
X430800Y577309D01*
X419420Y577309D01*
X419568Y578247D01*
X420178Y580124D01*
X421074Y581883D01*
X422235Y583480D01*
X423630Y584875D01*
X425227Y586036D01*
X426986Y586932D01*
X428872Y587545D01*
X428936Y587576D01*
X429004Y587598D01*
X429062Y587638D01*
X429125Y587669D01*
X429178Y587717D01*
X429237Y587757D01*
X429281Y587811D01*
X429333Y587859D01*
X429371Y587920D01*
X429416Y587975D01*
X429444Y588039D01*
X429481Y588099D01*
X429499Y588168D01*
X429527Y588234D01*
X429536Y588304D01*
X429555Y588372D01*
X429553Y588443D01*
X429562Y588514D01*
X429551Y588583D01*
X429550Y588653D01*
X429528Y588722D01*
X429517Y588792D01*
X429487Y588856D01*
X429466Y588923D01*
X429427Y588982D01*
X429396Y589047D01*
X429349Y589100D01*
X429310Y589158D01*
X429256Y589204D01*
X429209Y589258D01*
X429154Y589291D01*
X429095Y589341D01*
X429010Y589379D01*
X428945Y589418D01*
X425272Y590940D01*
X422030Y594182D01*
X420275Y598418D01*
X420275Y603002D01*
X422030Y607238D01*
X425272Y610480D01*
X429508Y612235D01*
X434092Y612235D01*
X438328Y610480D01*
X441570Y607238D01*
X443325Y603002D01*
X443325Y598418D01*
X441570Y594182D01*
X438328Y590940D01*
X434655Y589418D01*
X434593Y589382D01*
X434527Y589354D01*
X434472Y589310D01*
X434412Y589275D01*
X434363Y589223D01*
X434307Y589178D01*
X434267Y589120D01*
X434219Y589069D01*
X434187Y589005D01*
X434146Y588947D01*
X434123Y588880D01*
X434091Y588817D01*
X434078Y588747D01*
X434055Y588680D01*
X434052Y588609D01*
X434039Y588540D01*
X434046Y588469D01*
X434043Y588398D01*
X434059Y588329D01*
X434066Y588260D01*
X434092Y588193D01*
X434109Y588124D01*
X434144Y588063D01*
X434170Y587998D01*
X434214Y587941D01*
X434250Y587879D01*
X434301Y587831D01*
X434344Y587775D01*
X434402Y587734D01*
X434453Y587684D01*
X434511Y587655D01*
X434573Y587610D01*
X434661Y587579D01*
X434728Y587545D01*
X436614Y586932D01*
X438373Y586036D01*
X439970Y584875D01*
X441365Y583480D01*
X442526Y581883D01*
X443422Y580124D01*
X444035Y578238D01*
X444066Y578174D01*
X444088Y578106D01*
X444128Y578048D01*
X444159Y577985D01*
X444207Y577932D01*
X444247Y577873D01*
X444301Y577829D01*
X444349Y577777D01*
X444410Y577739D01*
X444465Y577694D01*
X444529Y577666D01*
X444589Y577629D01*
X444658Y577611D01*
X444724Y577583D01*
X444794Y577574D01*
X444862Y577555D01*
X444933Y577557D01*
X445004Y577548D01*
X445073Y577559D01*
X445143Y577560D01*
X445212Y577582D01*
X445282Y577593D01*
X445346Y577623D01*
X445413Y577644D01*
X445472Y577683D01*
X445537Y577714D01*
X445590Y577761D01*
X445648Y577800D01*
X445694Y577854D01*
X445748Y577901D01*
X445781Y577956D01*
X445831Y578015D01*
X445869Y578100D01*
X445908Y578165D01*
X447430Y581838D01*
X450672Y585080D01*
X454908Y586835D01*
X459492Y586835D01*
X463728Y585080D01*
X466970Y581838D01*
X468608Y577884D01*
X468629Y577848D01*
X468643Y577809D01*
X468694Y577740D01*
X468752Y577642D01*
X468795Y577601D01*
X468825Y577560D01*
X483767Y562617D01*
X486125Y560260D01*
X486125Y125540D01*
X484060Y123475D01*
X483767Y123475D01*
X483672Y123462D01*
X483576Y123457D01*
X483533Y123442D01*
X483488Y123435D01*
X483400Y123396D01*
X483309Y123364D01*
X483275Y123339D01*
X483231Y123319D01*
X483133Y123236D01*
X483060Y123183D01*
X471153Y111275D01*
X125747Y111275D01*
G37*
%LPD*%
%LPC*%
G36*
X396116Y360933D02*
X396116Y360933D01*
X395223Y361826D01*
X395223Y379854D01*
X396116Y380747D01*
X400606Y380747D01*
X400670Y380756D01*
X400734Y380755D01*
X400809Y380776D01*
X400885Y380787D01*
X400944Y380813D01*
X401006Y380830D01*
X401072Y380871D01*
X401142Y380903D01*
X401191Y380945D01*
X401246Y380978D01*
X401298Y381036D01*
X401356Y381086D01*
X401392Y381140D01*
X401435Y381188D01*
X401468Y381257D01*
X401511Y381322D01*
X401530Y381384D01*
X401558Y381441D01*
X401569Y381511D01*
X401593Y381592D01*
X401594Y381677D01*
X401605Y381746D01*
X401605Y685990D01*
X417640Y702025D01*
X471360Y702025D01*
X486125Y687260D01*
X486125Y624650D01*
X483767Y622293D01*
X467953Y606478D01*
X467947Y606471D01*
X467940Y606465D01*
X467862Y606358D01*
X467783Y606252D01*
X467780Y606244D01*
X467775Y606236D01*
X467731Y606112D01*
X467684Y605989D01*
X467683Y605979D01*
X467680Y605970D01*
X467672Y605839D01*
X467662Y605707D01*
X467664Y605698D01*
X467664Y605689D01*
X467682Y605613D01*
X467720Y605431D01*
X467731Y605410D01*
X467736Y605389D01*
X468725Y603002D01*
X468725Y598418D01*
X466970Y594182D01*
X463728Y590940D01*
X459492Y589185D01*
X454908Y589185D01*
X450672Y590940D01*
X447430Y594182D01*
X445675Y598418D01*
X445675Y603002D01*
X447430Y607238D01*
X450672Y610480D01*
X454345Y612002D01*
X454407Y612038D01*
X454473Y612066D01*
X454528Y612110D01*
X454588Y612145D01*
X454637Y612198D01*
X454693Y612242D01*
X454733Y612300D01*
X454781Y612351D01*
X454813Y612415D01*
X454854Y612473D01*
X454877Y612540D01*
X454909Y612603D01*
X454922Y612673D01*
X454945Y612740D01*
X454948Y612811D01*
X454961Y612880D01*
X454954Y612951D01*
X454957Y613022D01*
X454941Y613091D01*
X454934Y613160D01*
X454908Y613227D01*
X454891Y613296D01*
X454856Y613357D01*
X454830Y613422D01*
X454786Y613479D01*
X454750Y613541D01*
X454699Y613589D01*
X454656Y613645D01*
X454598Y613686D01*
X454547Y613736D01*
X454489Y613765D01*
X454427Y613810D01*
X454339Y613841D01*
X454272Y613875D01*
X452386Y614488D01*
X450627Y615384D01*
X449030Y616545D01*
X447635Y617940D01*
X446474Y619537D01*
X445578Y621296D01*
X444965Y623182D01*
X444934Y623246D01*
X444912Y623314D01*
X444872Y623372D01*
X444841Y623435D01*
X444793Y623488D01*
X444753Y623547D01*
X444699Y623591D01*
X444651Y623643D01*
X444590Y623681D01*
X444535Y623726D01*
X444471Y623754D01*
X444411Y623791D01*
X444342Y623809D01*
X444276Y623837D01*
X444206Y623846D01*
X444139Y623865D01*
X444067Y623863D01*
X443996Y623872D01*
X443927Y623861D01*
X443857Y623860D01*
X443788Y623838D01*
X443718Y623827D01*
X443654Y623797D01*
X443587Y623776D01*
X443528Y623737D01*
X443463Y623706D01*
X443410Y623659D01*
X443352Y623620D01*
X443306Y623566D01*
X443252Y623519D01*
X443219Y623464D01*
X443169Y623405D01*
X443131Y623320D01*
X443092Y623255D01*
X441570Y619582D01*
X438328Y616340D01*
X434092Y614585D01*
X429508Y614585D01*
X425272Y616340D01*
X422030Y619582D01*
X420275Y623818D01*
X420275Y628402D01*
X422030Y632638D01*
X425272Y635880D01*
X429508Y637635D01*
X434092Y637635D01*
X438328Y635880D01*
X441570Y632638D01*
X443092Y628965D01*
X443128Y628903D01*
X443156Y628837D01*
X443200Y628782D01*
X443235Y628722D01*
X443288Y628673D01*
X443332Y628617D01*
X443390Y628577D01*
X443441Y628529D01*
X443505Y628497D01*
X443563Y628456D01*
X443630Y628433D01*
X443693Y628401D01*
X443763Y628388D01*
X443830Y628365D01*
X443901Y628362D01*
X443970Y628349D01*
X444041Y628356D01*
X444112Y628353D01*
X444181Y628369D01*
X444250Y628376D01*
X444317Y628402D01*
X444386Y628419D01*
X444447Y628454D01*
X444512Y628480D01*
X444569Y628524D01*
X444631Y628560D01*
X444679Y628611D01*
X444735Y628654D01*
X444776Y628712D01*
X444826Y628763D01*
X444855Y628821D01*
X444900Y628883D01*
X444931Y628971D01*
X444965Y629038D01*
X445578Y630924D01*
X446474Y632683D01*
X447635Y634280D01*
X449030Y635675D01*
X450627Y636836D01*
X452386Y637732D01*
X454272Y638345D01*
X454336Y638376D01*
X454404Y638398D01*
X454462Y638438D01*
X454525Y638469D01*
X454578Y638517D01*
X454637Y638557D01*
X454681Y638611D01*
X454733Y638659D01*
X454771Y638720D01*
X454816Y638775D01*
X454844Y638839D01*
X454881Y638899D01*
X454899Y638968D01*
X454927Y639034D01*
X454936Y639104D01*
X454955Y639171D01*
X454953Y639243D01*
X454962Y639314D01*
X454951Y639383D01*
X454950Y639453D01*
X454928Y639522D01*
X454917Y639592D01*
X454887Y639656D01*
X454866Y639723D01*
X454827Y639782D01*
X454796Y639847D01*
X454749Y639900D01*
X454710Y639958D01*
X454656Y640004D01*
X454609Y640058D01*
X454554Y640091D01*
X454495Y640141D01*
X454410Y640179D01*
X454345Y640218D01*
X450672Y641740D01*
X447430Y644982D01*
X445675Y649218D01*
X445675Y653802D01*
X447430Y658038D01*
X450672Y661280D01*
X454908Y663035D01*
X459492Y663035D01*
X463728Y661280D01*
X466970Y658038D01*
X468725Y653802D01*
X468725Y649218D01*
X466970Y644982D01*
X463728Y641740D01*
X460055Y640218D01*
X459993Y640182D01*
X459927Y640154D01*
X459872Y640110D01*
X459812Y640075D01*
X459763Y640022D01*
X459707Y639978D01*
X459667Y639920D01*
X459619Y639869D01*
X459587Y639805D01*
X459546Y639747D01*
X459523Y639680D01*
X459491Y639617D01*
X459478Y639547D01*
X459455Y639480D01*
X459452Y639409D01*
X459439Y639340D01*
X459446Y639269D01*
X459443Y639198D01*
X459459Y639129D01*
X459466Y639060D01*
X459492Y638993D01*
X459509Y638924D01*
X459544Y638863D01*
X459570Y638798D01*
X459614Y638741D01*
X459650Y638679D01*
X459701Y638631D01*
X459744Y638575D01*
X459802Y638534D01*
X459853Y638484D01*
X459911Y638455D01*
X459973Y638410D01*
X460061Y638379D01*
X460128Y638345D01*
X462014Y637732D01*
X463773Y636836D01*
X465370Y635675D01*
X466765Y634280D01*
X467926Y632683D01*
X468822Y630924D01*
X469432Y629047D01*
X469580Y628109D01*
X458200Y628109D01*
X458137Y628100D01*
X458072Y628101D01*
X457998Y628080D01*
X457921Y628069D01*
X457862Y628043D01*
X457800Y628026D01*
X457734Y627985D01*
X457664Y627953D01*
X457615Y627911D01*
X457560Y627878D01*
X457509Y627820D01*
X457450Y627770D01*
X457414Y627716D01*
X457371Y627668D01*
X457338Y627599D01*
X457295Y627534D01*
X457276Y627472D01*
X457248Y627415D01*
X457238Y627345D01*
X457213Y627264D01*
X457212Y627179D01*
X457201Y627110D01*
X457201Y625110D01*
X457210Y625046D01*
X457209Y624982D01*
X457230Y624907D01*
X457241Y624831D01*
X457267Y624772D01*
X457284Y624710D01*
X457325Y624644D01*
X457357Y624574D01*
X457399Y624525D01*
X457432Y624470D01*
X457490Y624418D01*
X457540Y624360D01*
X457594Y624324D01*
X457642Y624281D01*
X457711Y624248D01*
X457776Y624205D01*
X457838Y624186D01*
X457896Y624158D01*
X457965Y624147D01*
X458046Y624123D01*
X458131Y624122D01*
X458200Y624111D01*
X469580Y624111D01*
X469432Y623173D01*
X468822Y621296D01*
X467926Y619537D01*
X467108Y618411D01*
X467078Y618356D01*
X467040Y618305D01*
X467013Y618232D01*
X466976Y618162D01*
X466963Y618100D01*
X466941Y618041D01*
X466935Y617963D01*
X466919Y617886D01*
X466924Y617823D01*
X466919Y617760D01*
X466935Y617683D01*
X466941Y617605D01*
X466964Y617546D01*
X466977Y617484D01*
X467014Y617415D01*
X467041Y617341D01*
X467080Y617291D01*
X467109Y617235D01*
X467164Y617179D01*
X467211Y617116D01*
X467262Y617078D01*
X467306Y617033D01*
X467374Y616994D01*
X467437Y616947D01*
X467496Y616925D01*
X467551Y616894D01*
X467628Y616876D01*
X467701Y616848D01*
X467764Y616844D01*
X467826Y616829D01*
X467904Y616833D01*
X467983Y616827D01*
X468044Y616840D01*
X468107Y616843D01*
X468182Y616869D01*
X468259Y616885D01*
X468314Y616915D01*
X468374Y616936D01*
X468431Y616978D01*
X468507Y617018D01*
X468561Y617073D01*
X468623Y617118D01*
X478783Y627277D01*
X478840Y627354D01*
X478905Y627426D01*
X478925Y627466D01*
X478952Y627503D01*
X478986Y627593D01*
X479028Y627679D01*
X479034Y627721D01*
X479051Y627767D01*
X479061Y627894D01*
X479075Y627984D01*
X479075Y683926D01*
X479062Y684021D01*
X479057Y684117D01*
X479042Y684160D01*
X479035Y684205D01*
X478996Y684293D01*
X478964Y684384D01*
X478939Y684418D01*
X478919Y684462D01*
X478836Y684560D01*
X478783Y684633D01*
X468733Y694683D01*
X468656Y694740D01*
X468584Y694805D01*
X468544Y694825D01*
X468507Y694852D01*
X468417Y694886D01*
X468331Y694928D01*
X468289Y694934D01*
X468243Y694951D01*
X468116Y694961D01*
X468026Y694975D01*
X420974Y694975D01*
X420879Y694962D01*
X420783Y694957D01*
X420740Y694942D01*
X420695Y694935D01*
X420607Y694896D01*
X420516Y694864D01*
X420482Y694839D01*
X420438Y694819D01*
X420340Y694736D01*
X420267Y694683D01*
X408947Y683363D01*
X408928Y683337D01*
X408904Y683316D01*
X408869Y683262D01*
X408825Y683214D01*
X408805Y683174D01*
X408778Y683137D01*
X408767Y683107D01*
X408749Y683080D01*
X408730Y683019D01*
X408702Y682961D01*
X408696Y682919D01*
X408679Y682873D01*
X408676Y682841D01*
X408667Y682810D01*
X408666Y682726D01*
X408655Y682656D01*
X408655Y381746D01*
X408664Y381682D01*
X408663Y381618D01*
X408684Y381543D01*
X408695Y381467D01*
X408721Y381408D01*
X408738Y381346D01*
X408779Y381280D01*
X408811Y381210D01*
X408853Y381161D01*
X408886Y381106D01*
X408944Y381054D01*
X408994Y380996D01*
X409048Y380960D01*
X409096Y380917D01*
X409165Y380884D01*
X409230Y380841D01*
X409292Y380822D01*
X409349Y380794D01*
X409419Y380783D01*
X409500Y380759D01*
X409585Y380758D01*
X409654Y380747D01*
X414144Y380747D01*
X415037Y379854D01*
X415037Y361826D01*
X414144Y360933D01*
X396116Y360933D01*
G37*
%LPD*%
%LPC*%
G36*
X454908Y233585D02*
X454908Y233585D01*
X450672Y235340D01*
X447430Y238582D01*
X445675Y242818D01*
X445675Y247402D01*
X447430Y251638D01*
X450672Y254880D01*
X454345Y256402D01*
X454407Y256438D01*
X454473Y256466D01*
X454528Y256510D01*
X454588Y256545D01*
X454637Y256597D01*
X454693Y256642D01*
X454733Y256700D01*
X454781Y256751D01*
X454813Y256815D01*
X454854Y256873D01*
X454877Y256940D01*
X454909Y257003D01*
X454922Y257073D01*
X454945Y257140D01*
X454948Y257211D01*
X454961Y257280D01*
X454954Y257351D01*
X454957Y257422D01*
X454941Y257491D01*
X454934Y257560D01*
X454908Y257627D01*
X454891Y257696D01*
X454856Y257757D01*
X454830Y257822D01*
X454786Y257879D01*
X454750Y257941D01*
X454699Y257989D01*
X454656Y258045D01*
X454598Y258086D01*
X454547Y258136D01*
X454489Y258165D01*
X454427Y258210D01*
X454339Y258241D01*
X454272Y258275D01*
X452386Y258888D01*
X450627Y259784D01*
X449030Y260945D01*
X447635Y262340D01*
X446474Y263937D01*
X445578Y265696D01*
X444965Y267582D01*
X444934Y267646D01*
X444912Y267714D01*
X444872Y267772D01*
X444841Y267835D01*
X444793Y267888D01*
X444753Y267947D01*
X444699Y267991D01*
X444651Y268043D01*
X444590Y268081D01*
X444535Y268126D01*
X444471Y268154D01*
X444411Y268191D01*
X444342Y268209D01*
X444276Y268237D01*
X444206Y268246D01*
X444138Y268265D01*
X444067Y268263D01*
X443996Y268272D01*
X443927Y268261D01*
X443857Y268260D01*
X443788Y268238D01*
X443718Y268227D01*
X443654Y268197D01*
X443587Y268176D01*
X443528Y268137D01*
X443463Y268106D01*
X443410Y268059D01*
X443352Y268020D01*
X443306Y267966D01*
X443252Y267919D01*
X443219Y267864D01*
X443169Y267805D01*
X443131Y267720D01*
X443092Y267655D01*
X441570Y263982D01*
X438328Y260740D01*
X434092Y258985D01*
X429508Y258985D01*
X425272Y260740D01*
X422030Y263982D01*
X421041Y266368D01*
X421036Y266377D01*
X421034Y266386D01*
X420964Y266498D01*
X420898Y266611D01*
X420891Y266618D01*
X420886Y266626D01*
X420788Y266714D01*
X420692Y266804D01*
X420683Y266808D01*
X420676Y266815D01*
X420558Y266872D01*
X420440Y266932D01*
X420431Y266934D01*
X420423Y266938D01*
X420347Y266950D01*
X420163Y266984D01*
X420139Y266982D01*
X420118Y266985D01*
X415587Y266985D01*
X415577Y266984D01*
X415568Y266985D01*
X415438Y266964D01*
X415307Y266945D01*
X415299Y266942D01*
X415290Y266940D01*
X415170Y266883D01*
X415051Y266829D01*
X415043Y266823D01*
X415035Y266819D01*
X414936Y266731D01*
X414836Y266646D01*
X414831Y266638D01*
X414824Y266632D01*
X414784Y266566D01*
X414682Y266410D01*
X414678Y266398D01*
X414675Y266393D01*
X414671Y266381D01*
X414664Y266368D01*
X413528Y263628D01*
X410742Y260842D01*
X407101Y259333D01*
X403159Y259333D01*
X399518Y260842D01*
X396732Y263628D01*
X395223Y267269D01*
X395223Y271211D01*
X396732Y274852D01*
X399518Y277638D01*
X403159Y279147D01*
X407101Y279147D01*
X410742Y277638D01*
X413528Y274852D01*
X413611Y274652D01*
X413616Y274643D01*
X413619Y274634D01*
X413688Y274522D01*
X413755Y274409D01*
X413762Y274402D01*
X413767Y274394D01*
X413865Y274306D01*
X413961Y274216D01*
X413969Y274212D01*
X413976Y274205D01*
X414095Y274148D01*
X414212Y274088D01*
X414222Y274086D01*
X414230Y274082D01*
X414306Y274070D01*
X414489Y274036D01*
X414513Y274038D01*
X414535Y274035D01*
X420118Y274035D01*
X420127Y274036D01*
X420137Y274035D01*
X420267Y274056D01*
X420397Y274075D01*
X420406Y274078D01*
X420415Y274080D01*
X420535Y274137D01*
X420654Y274191D01*
X420661Y274197D01*
X420670Y274201D01*
X420769Y274289D01*
X420868Y274374D01*
X420874Y274382D01*
X420881Y274388D01*
X420921Y274454D01*
X421023Y274610D01*
X421030Y274633D01*
X421041Y274652D01*
X422030Y277038D01*
X425272Y280280D01*
X429508Y282035D01*
X434092Y282035D01*
X438328Y280280D01*
X441570Y277038D01*
X443092Y273365D01*
X443128Y273303D01*
X443156Y273237D01*
X443200Y273182D01*
X443235Y273122D01*
X443287Y273073D01*
X443332Y273017D01*
X443390Y272977D01*
X443441Y272929D01*
X443505Y272897D01*
X443563Y272856D01*
X443630Y272833D01*
X443693Y272801D01*
X443763Y272788D01*
X443830Y272765D01*
X443901Y272762D01*
X443970Y272749D01*
X444041Y272756D01*
X444112Y272753D01*
X444181Y272769D01*
X444250Y272776D01*
X444317Y272802D01*
X444386Y272819D01*
X444447Y272854D01*
X444512Y272880D01*
X444569Y272924D01*
X444631Y272960D01*
X444679Y273011D01*
X444735Y273054D01*
X444776Y273112D01*
X444826Y273163D01*
X444855Y273221D01*
X444900Y273283D01*
X444931Y273371D01*
X444965Y273438D01*
X445578Y275324D01*
X446474Y277083D01*
X447635Y278680D01*
X449030Y280075D01*
X450627Y281236D01*
X452386Y282132D01*
X454272Y282745D01*
X454336Y282776D01*
X454404Y282798D01*
X454462Y282838D01*
X454525Y282869D01*
X454578Y282917D01*
X454637Y282957D01*
X454681Y283011D01*
X454733Y283059D01*
X454771Y283120D01*
X454816Y283175D01*
X454844Y283239D01*
X454881Y283299D01*
X454899Y283368D01*
X454927Y283434D01*
X454936Y283504D01*
X454955Y283572D01*
X454953Y283643D01*
X454962Y283714D01*
X454951Y283783D01*
X454950Y283853D01*
X454928Y283922D01*
X454917Y283992D01*
X454887Y284056D01*
X454866Y284123D01*
X454827Y284182D01*
X454796Y284247D01*
X454749Y284300D01*
X454710Y284358D01*
X454656Y284404D01*
X454609Y284458D01*
X454554Y284491D01*
X454495Y284541D01*
X454410Y284579D01*
X454345Y284618D01*
X450672Y286140D01*
X447430Y289382D01*
X445675Y293618D01*
X445675Y298202D01*
X447430Y302438D01*
X450672Y305680D01*
X454345Y307202D01*
X454407Y307238D01*
X454473Y307266D01*
X454528Y307310D01*
X454588Y307345D01*
X454637Y307397D01*
X454693Y307442D01*
X454733Y307500D01*
X454781Y307551D01*
X454813Y307615D01*
X454854Y307673D01*
X454877Y307740D01*
X454909Y307803D01*
X454922Y307873D01*
X454945Y307940D01*
X454948Y308011D01*
X454961Y308080D01*
X454954Y308151D01*
X454957Y308222D01*
X454941Y308291D01*
X454934Y308360D01*
X454908Y308427D01*
X454891Y308496D01*
X454856Y308557D01*
X454830Y308622D01*
X454786Y308679D01*
X454750Y308741D01*
X454699Y308789D01*
X454656Y308845D01*
X454598Y308886D01*
X454547Y308936D01*
X454489Y308965D01*
X454427Y309010D01*
X454339Y309041D01*
X454272Y309075D01*
X452386Y309688D01*
X450627Y310584D01*
X449030Y311745D01*
X447635Y313140D01*
X446474Y314737D01*
X445578Y316496D01*
X444965Y318382D01*
X444934Y318446D01*
X444912Y318514D01*
X444872Y318572D01*
X444841Y318635D01*
X444793Y318688D01*
X444753Y318747D01*
X444699Y318791D01*
X444651Y318843D01*
X444590Y318881D01*
X444535Y318926D01*
X444471Y318954D01*
X444411Y318991D01*
X444342Y319009D01*
X444276Y319037D01*
X444206Y319046D01*
X444138Y319065D01*
X444067Y319063D01*
X443996Y319072D01*
X443927Y319061D01*
X443857Y319060D01*
X443788Y319038D01*
X443718Y319027D01*
X443654Y318997D01*
X443587Y318976D01*
X443528Y318937D01*
X443463Y318906D01*
X443410Y318859D01*
X443352Y318820D01*
X443306Y318766D01*
X443252Y318719D01*
X443219Y318664D01*
X443169Y318605D01*
X443131Y318520D01*
X443092Y318455D01*
X441570Y314782D01*
X438328Y311540D01*
X434092Y309785D01*
X429508Y309785D01*
X425272Y311540D01*
X422030Y314782D01*
X421041Y317168D01*
X421036Y317177D01*
X421034Y317186D01*
X420964Y317298D01*
X420898Y317411D01*
X420891Y317418D01*
X420886Y317426D01*
X420788Y317514D01*
X420692Y317604D01*
X420683Y317608D01*
X420676Y317615D01*
X420558Y317672D01*
X420440Y317732D01*
X420431Y317734D01*
X420423Y317738D01*
X420347Y317750D01*
X420163Y317784D01*
X420139Y317782D01*
X420118Y317785D01*
X415587Y317785D01*
X415577Y317784D01*
X415568Y317785D01*
X415438Y317764D01*
X415307Y317745D01*
X415299Y317742D01*
X415290Y317740D01*
X415170Y317683D01*
X415051Y317629D01*
X415043Y317623D01*
X415035Y317619D01*
X414936Y317531D01*
X414836Y317446D01*
X414831Y317438D01*
X414824Y317432D01*
X414784Y317366D01*
X414682Y317210D01*
X414675Y317187D01*
X414664Y317168D01*
X413528Y314428D01*
X410742Y311642D01*
X407101Y310133D01*
X403159Y310133D01*
X399518Y311642D01*
X396732Y314428D01*
X395223Y318069D01*
X395223Y322011D01*
X396732Y325652D01*
X399518Y328438D01*
X403159Y329947D01*
X407101Y329947D01*
X410742Y328438D01*
X413528Y325652D01*
X413611Y325452D01*
X413616Y325443D01*
X413619Y325434D01*
X413688Y325322D01*
X413755Y325209D01*
X413762Y325202D01*
X413767Y325194D01*
X413865Y325106D01*
X413961Y325016D01*
X413969Y325012D01*
X413976Y325005D01*
X414095Y324948D01*
X414212Y324888D01*
X414222Y324886D01*
X414230Y324882D01*
X414306Y324870D01*
X414489Y324836D01*
X414513Y324838D01*
X414535Y324835D01*
X420118Y324835D01*
X420127Y324836D01*
X420137Y324835D01*
X420267Y324856D01*
X420397Y324875D01*
X420406Y324878D01*
X420415Y324880D01*
X420535Y324937D01*
X420654Y324991D01*
X420661Y324997D01*
X420670Y325001D01*
X420769Y325089D01*
X420868Y325174D01*
X420874Y325182D01*
X420881Y325188D01*
X420921Y325254D01*
X421023Y325410D01*
X421030Y325433D01*
X421041Y325452D01*
X422030Y327838D01*
X425272Y331080D01*
X429508Y332835D01*
X434092Y332835D01*
X438328Y331080D01*
X441570Y327838D01*
X443092Y324165D01*
X443128Y324103D01*
X443156Y324037D01*
X443200Y323982D01*
X443235Y323922D01*
X443287Y323873D01*
X443332Y323817D01*
X443390Y323777D01*
X443441Y323729D01*
X443505Y323697D01*
X443563Y323656D01*
X443630Y323633D01*
X443693Y323601D01*
X443763Y323588D01*
X443830Y323565D01*
X443901Y323562D01*
X443970Y323549D01*
X444041Y323556D01*
X444112Y323553D01*
X444181Y323569D01*
X444250Y323576D01*
X444317Y323602D01*
X444386Y323619D01*
X444447Y323654D01*
X444512Y323680D01*
X444569Y323724D01*
X444631Y323760D01*
X444679Y323811D01*
X444735Y323854D01*
X444776Y323912D01*
X444826Y323963D01*
X444855Y324021D01*
X444900Y324083D01*
X444931Y324171D01*
X444965Y324238D01*
X445578Y326124D01*
X446474Y327883D01*
X447635Y329480D01*
X449030Y330875D01*
X450627Y332036D01*
X452386Y332932D01*
X454272Y333545D01*
X454336Y333576D01*
X454404Y333598D01*
X454462Y333638D01*
X454525Y333669D01*
X454578Y333717D01*
X454637Y333757D01*
X454681Y333811D01*
X454733Y333859D01*
X454771Y333920D01*
X454816Y333975D01*
X454844Y334039D01*
X454881Y334099D01*
X454899Y334168D01*
X454927Y334234D01*
X454936Y334304D01*
X454955Y334372D01*
X454953Y334443D01*
X454962Y334514D01*
X454951Y334583D01*
X454950Y334653D01*
X454928Y334722D01*
X454917Y334792D01*
X454887Y334856D01*
X454866Y334923D01*
X454827Y334982D01*
X454796Y335047D01*
X454749Y335100D01*
X454710Y335158D01*
X454656Y335204D01*
X454609Y335258D01*
X454554Y335291D01*
X454495Y335341D01*
X454410Y335379D01*
X454345Y335418D01*
X450672Y336940D01*
X447430Y340182D01*
X445675Y344418D01*
X445675Y349002D01*
X447430Y353238D01*
X450672Y356480D01*
X454908Y358235D01*
X459492Y358235D01*
X463728Y356480D01*
X466970Y353238D01*
X468725Y349002D01*
X468725Y344418D01*
X466970Y340182D01*
X463728Y336940D01*
X460055Y335418D01*
X459993Y335382D01*
X459927Y335354D01*
X459872Y335310D01*
X459812Y335275D01*
X459763Y335223D01*
X459707Y335178D01*
X459667Y335120D01*
X459619Y335069D01*
X459587Y335005D01*
X459546Y334947D01*
X459523Y334880D01*
X459491Y334817D01*
X459478Y334747D01*
X459455Y334680D01*
X459452Y334609D01*
X459439Y334540D01*
X459446Y334469D01*
X459443Y334398D01*
X459459Y334329D01*
X459466Y334260D01*
X459492Y334193D01*
X459509Y334124D01*
X459544Y334063D01*
X459570Y333998D01*
X459614Y333941D01*
X459650Y333879D01*
X459701Y333831D01*
X459744Y333775D01*
X459802Y333734D01*
X459853Y333684D01*
X459911Y333655D01*
X459973Y333610D01*
X460061Y333579D01*
X460128Y333545D01*
X462014Y332932D01*
X463773Y332036D01*
X465370Y330875D01*
X466765Y329480D01*
X467926Y327883D01*
X468822Y326124D01*
X469432Y324247D01*
X469580Y323309D01*
X458200Y323309D01*
X458137Y323300D01*
X458072Y323301D01*
X457998Y323280D01*
X457921Y323269D01*
X457862Y323243D01*
X457800Y323226D01*
X457734Y323185D01*
X457664Y323153D01*
X457615Y323111D01*
X457560Y323078D01*
X457509Y323020D01*
X457450Y322970D01*
X457414Y322916D01*
X457371Y322868D01*
X457338Y322799D01*
X457295Y322734D01*
X457276Y322672D01*
X457248Y322615D01*
X457238Y322545D01*
X457213Y322464D01*
X457212Y322379D01*
X457201Y322310D01*
X457201Y320310D01*
X457210Y320246D01*
X457209Y320182D01*
X457230Y320107D01*
X457241Y320031D01*
X457267Y319972D01*
X457284Y319910D01*
X457325Y319844D01*
X457357Y319774D01*
X457399Y319725D01*
X457432Y319670D01*
X457490Y319618D01*
X457540Y319560D01*
X457594Y319524D01*
X457642Y319481D01*
X457711Y319448D01*
X457776Y319405D01*
X457838Y319386D01*
X457896Y319358D01*
X457965Y319347D01*
X458046Y319323D01*
X458131Y319322D01*
X458200Y319311D01*
X469580Y319311D01*
X469432Y318373D01*
X468822Y316496D01*
X467926Y314737D01*
X466765Y313140D01*
X465370Y311745D01*
X463773Y310584D01*
X462014Y309688D01*
X460128Y309075D01*
X460064Y309044D01*
X459996Y309022D01*
X459938Y308982D01*
X459875Y308951D01*
X459822Y308903D01*
X459763Y308863D01*
X459719Y308809D01*
X459667Y308761D01*
X459629Y308700D01*
X459584Y308645D01*
X459556Y308581D01*
X459519Y308521D01*
X459501Y308452D01*
X459473Y308386D01*
X459464Y308316D01*
X459445Y308248D01*
X459447Y308177D01*
X459438Y308106D01*
X459449Y308037D01*
X459450Y307967D01*
X459472Y307898D01*
X459483Y307828D01*
X459513Y307764D01*
X459534Y307697D01*
X459573Y307638D01*
X459604Y307573D01*
X459651Y307520D01*
X459690Y307462D01*
X459744Y307416D01*
X459791Y307362D01*
X459846Y307329D01*
X459905Y307279D01*
X459990Y307241D01*
X460055Y307202D01*
X463728Y305680D01*
X466970Y302438D01*
X468725Y298202D01*
X468725Y293618D01*
X466970Y289382D01*
X463728Y286140D01*
X460055Y284618D01*
X459993Y284582D01*
X459927Y284554D01*
X459872Y284510D01*
X459812Y284475D01*
X459763Y284423D01*
X459707Y284378D01*
X459667Y284320D01*
X459619Y284269D01*
X459587Y284205D01*
X459546Y284147D01*
X459523Y284080D01*
X459491Y284017D01*
X459478Y283947D01*
X459455Y283880D01*
X459452Y283809D01*
X459439Y283740D01*
X459446Y283669D01*
X459443Y283598D01*
X459459Y283529D01*
X459466Y283460D01*
X459492Y283393D01*
X459509Y283324D01*
X459544Y283263D01*
X459570Y283198D01*
X459614Y283141D01*
X459650Y283079D01*
X459701Y283031D01*
X459744Y282975D01*
X459802Y282934D01*
X459853Y282884D01*
X459911Y282855D01*
X459973Y282810D01*
X460061Y282779D01*
X460128Y282745D01*
X462014Y282132D01*
X463773Y281236D01*
X465370Y280075D01*
X466765Y278680D01*
X467926Y277083D01*
X468822Y275324D01*
X469432Y273447D01*
X469580Y272509D01*
X458200Y272509D01*
X458137Y272500D01*
X458072Y272501D01*
X457998Y272480D01*
X457921Y272469D01*
X457862Y272443D01*
X457800Y272426D01*
X457734Y272385D01*
X457664Y272353D01*
X457615Y272311D01*
X457560Y272278D01*
X457509Y272220D01*
X457450Y272170D01*
X457414Y272116D01*
X457371Y272068D01*
X457338Y271999D01*
X457295Y271934D01*
X457276Y271872D01*
X457248Y271815D01*
X457238Y271745D01*
X457213Y271664D01*
X457212Y271579D01*
X457201Y271510D01*
X457201Y269510D01*
X457210Y269446D01*
X457209Y269382D01*
X457230Y269307D01*
X457241Y269231D01*
X457267Y269172D01*
X457284Y269110D01*
X457325Y269044D01*
X457357Y268974D01*
X457399Y268925D01*
X457432Y268870D01*
X457490Y268818D01*
X457540Y268760D01*
X457594Y268724D01*
X457642Y268681D01*
X457711Y268648D01*
X457776Y268605D01*
X457838Y268586D01*
X457896Y268558D01*
X457965Y268547D01*
X458046Y268523D01*
X458131Y268522D01*
X458200Y268511D01*
X469580Y268511D01*
X469432Y267573D01*
X468822Y265696D01*
X467926Y263937D01*
X466765Y262340D01*
X465370Y260945D01*
X463773Y259784D01*
X462014Y258888D01*
X460128Y258275D01*
X460064Y258244D01*
X459996Y258222D01*
X459938Y258182D01*
X459875Y258151D01*
X459822Y258103D01*
X459763Y258063D01*
X459719Y258009D01*
X459667Y257961D01*
X459629Y257900D01*
X459584Y257845D01*
X459556Y257781D01*
X459519Y257721D01*
X459501Y257652D01*
X459473Y257586D01*
X459464Y257516D01*
X459445Y257448D01*
X459447Y257377D01*
X459438Y257306D01*
X459449Y257237D01*
X459450Y257167D01*
X459472Y257098D01*
X459483Y257028D01*
X459513Y256964D01*
X459534Y256897D01*
X459573Y256838D01*
X459604Y256773D01*
X459651Y256720D01*
X459690Y256662D01*
X459744Y256616D01*
X459791Y256562D01*
X459846Y256529D01*
X459905Y256479D01*
X459990Y256441D01*
X460055Y256402D01*
X463728Y254880D01*
X466970Y251638D01*
X468725Y247402D01*
X468725Y242818D01*
X466970Y238582D01*
X463728Y235340D01*
X459492Y233585D01*
X454908Y233585D01*
G37*
%LPD*%
%LPC*%
G36*
X179318Y368205D02*
X179318Y368205D01*
X175082Y369960D01*
X171840Y373202D01*
X170085Y377438D01*
X170085Y382022D01*
X171840Y386258D01*
X175082Y389500D01*
X178755Y391022D01*
X178817Y391058D01*
X178883Y391086D01*
X178938Y391130D01*
X178998Y391165D01*
X179047Y391217D01*
X179103Y391262D01*
X179143Y391320D01*
X179191Y391371D01*
X179223Y391435D01*
X179264Y391493D01*
X179287Y391560D01*
X179319Y391623D01*
X179332Y391693D01*
X179355Y391760D01*
X179358Y391831D01*
X179371Y391900D01*
X179364Y391971D01*
X179367Y392042D01*
X179351Y392111D01*
X179344Y392180D01*
X179318Y392247D01*
X179301Y392316D01*
X179266Y392377D01*
X179240Y392442D01*
X179196Y392499D01*
X179160Y392561D01*
X179109Y392609D01*
X179066Y392665D01*
X179008Y392706D01*
X178957Y392756D01*
X178899Y392785D01*
X178837Y392830D01*
X178749Y392861D01*
X178682Y392895D01*
X176796Y393508D01*
X175037Y394404D01*
X173440Y395565D01*
X172045Y396960D01*
X170884Y398557D01*
X169988Y400316D01*
X169378Y402193D01*
X169230Y403131D01*
X180610Y403131D01*
X180673Y403140D01*
X180738Y403139D01*
X180812Y403160D01*
X180889Y403171D01*
X180948Y403197D01*
X181010Y403214D01*
X181076Y403255D01*
X181146Y403287D01*
X181195Y403329D01*
X181250Y403362D01*
X181301Y403420D01*
X181360Y403470D01*
X181396Y403524D01*
X181439Y403572D01*
X181472Y403641D01*
X181515Y403706D01*
X181534Y403768D01*
X181562Y403825D01*
X181572Y403895D01*
X181597Y403976D01*
X181598Y404061D01*
X181609Y404130D01*
X181609Y405131D01*
X181611Y405131D01*
X181611Y404130D01*
X181620Y404066D01*
X181619Y404002D01*
X181640Y403927D01*
X181651Y403851D01*
X181677Y403792D01*
X181694Y403730D01*
X181735Y403664D01*
X181767Y403594D01*
X181809Y403545D01*
X181842Y403490D01*
X181900Y403438D01*
X181950Y403380D01*
X182004Y403344D01*
X182052Y403301D01*
X182121Y403268D01*
X182186Y403225D01*
X182248Y403206D01*
X182306Y403178D01*
X182375Y403167D01*
X182456Y403143D01*
X182541Y403142D01*
X182610Y403131D01*
X193990Y403131D01*
X193842Y402193D01*
X193232Y400316D01*
X192336Y398557D01*
X191175Y396960D01*
X189780Y395565D01*
X188183Y394404D01*
X186424Y393508D01*
X184538Y392895D01*
X184474Y392864D01*
X184406Y392842D01*
X184348Y392802D01*
X184285Y392771D01*
X184232Y392723D01*
X184173Y392683D01*
X184129Y392629D01*
X184077Y392581D01*
X184039Y392520D01*
X183994Y392465D01*
X183966Y392401D01*
X183929Y392341D01*
X183911Y392272D01*
X183883Y392206D01*
X183874Y392136D01*
X183855Y392068D01*
X183857Y391997D01*
X183848Y391926D01*
X183859Y391857D01*
X183860Y391787D01*
X183882Y391718D01*
X183893Y391648D01*
X183923Y391584D01*
X183944Y391517D01*
X183983Y391458D01*
X184014Y391393D01*
X184061Y391340D01*
X184100Y391282D01*
X184154Y391236D01*
X184201Y391182D01*
X184256Y391149D01*
X184315Y391099D01*
X184400Y391061D01*
X184465Y391022D01*
X186789Y390059D01*
X186798Y390057D01*
X186806Y390052D01*
X186935Y390021D01*
X187062Y389989D01*
X187072Y389989D01*
X187081Y389987D01*
X187214Y389994D01*
X187344Y389998D01*
X187353Y390001D01*
X187363Y390001D01*
X187487Y390045D01*
X187612Y390085D01*
X187620Y390091D01*
X187629Y390094D01*
X187691Y390139D01*
X187845Y390244D01*
X187861Y390263D01*
X187878Y390276D01*
X237983Y440380D01*
X238040Y440457D01*
X238105Y440528D01*
X238125Y440569D01*
X238152Y440606D01*
X238186Y440696D01*
X238228Y440782D01*
X238234Y440824D01*
X238251Y440870D01*
X238261Y440997D01*
X238275Y441087D01*
X238275Y455533D01*
X238262Y455628D01*
X238257Y455724D01*
X238242Y455767D01*
X238235Y455812D01*
X238196Y455900D01*
X238164Y455991D01*
X238139Y456025D01*
X238119Y456069D01*
X238036Y456167D01*
X237983Y456240D01*
X134930Y559293D01*
X134853Y559350D01*
X134782Y559415D01*
X134741Y559435D01*
X134704Y559462D01*
X134614Y559496D01*
X134528Y559538D01*
X134486Y559544D01*
X134440Y559561D01*
X134313Y559571D01*
X134223Y559585D01*
X67288Y559585D01*
X67278Y559584D01*
X67269Y559585D01*
X67139Y559564D01*
X67009Y559545D01*
X67000Y559542D01*
X66991Y559540D01*
X66871Y559483D01*
X66752Y559429D01*
X66744Y559423D01*
X66736Y559419D01*
X66637Y559331D01*
X66537Y559246D01*
X66532Y559238D01*
X66525Y559232D01*
X66485Y559166D01*
X66383Y559010D01*
X66376Y558987D01*
X66365Y558968D01*
X65548Y556998D01*
X62762Y554212D01*
X59121Y552703D01*
X55179Y552703D01*
X51538Y554212D01*
X48752Y556998D01*
X47243Y560639D01*
X47243Y564581D01*
X48752Y568222D01*
X51538Y571008D01*
X55179Y572517D01*
X59121Y572517D01*
X62762Y571008D01*
X65548Y568222D01*
X66365Y566252D01*
X66369Y566243D01*
X66372Y566234D01*
X66441Y566122D01*
X66508Y566009D01*
X66515Y566002D01*
X66520Y565994D01*
X66618Y565906D01*
X66714Y565816D01*
X66722Y565812D01*
X66729Y565805D01*
X66848Y565748D01*
X66965Y565688D01*
X66975Y565686D01*
X66983Y565682D01*
X67059Y565670D01*
X67242Y565636D01*
X67266Y565638D01*
X67288Y565635D01*
X137143Y565635D01*
X244325Y458453D01*
X244325Y439634D01*
X244334Y439570D01*
X244333Y439506D01*
X244354Y439431D01*
X244365Y439355D01*
X244391Y439296D01*
X244408Y439234D01*
X244449Y439168D01*
X244481Y439098D01*
X244523Y439049D01*
X244556Y438994D01*
X244614Y438942D01*
X244664Y438884D01*
X244718Y438848D01*
X244766Y438805D01*
X244835Y438772D01*
X244900Y438729D01*
X244962Y438710D01*
X245019Y438682D01*
X245089Y438671D01*
X245170Y438647D01*
X245255Y438646D01*
X245324Y438635D01*
X282304Y438635D01*
X293035Y427904D01*
X293086Y427865D01*
X293131Y427819D01*
X293199Y427781D01*
X293261Y427734D01*
X293321Y427712D01*
X293377Y427680D01*
X293452Y427662D01*
X293524Y427635D01*
X293588Y427630D01*
X293651Y427615D01*
X293728Y427619D01*
X293806Y427613D01*
X293868Y427626D01*
X293933Y427629D01*
X294006Y427655D01*
X294082Y427671D01*
X294138Y427701D01*
X294199Y427722D01*
X294256Y427763D01*
X294331Y427803D01*
X294391Y427862D01*
X294448Y427904D01*
X296699Y430155D01*
X300060Y431547D01*
X303698Y431547D01*
X307059Y430155D01*
X309632Y427582D01*
X311024Y424221D01*
X311024Y405343D01*
X309632Y401982D01*
X307059Y399409D01*
X303698Y398017D01*
X300060Y398017D01*
X296699Y399409D01*
X294126Y401982D01*
X292734Y405343D01*
X292734Y419235D01*
X292721Y419330D01*
X292716Y419426D01*
X292701Y419469D01*
X292694Y419514D01*
X292655Y419602D01*
X292623Y419693D01*
X292598Y419727D01*
X292578Y419771D01*
X292495Y419869D01*
X292442Y419942D01*
X280091Y432293D01*
X280014Y432350D01*
X279943Y432415D01*
X279902Y432435D01*
X279865Y432462D01*
X279775Y432496D01*
X279689Y432538D01*
X279647Y432544D01*
X279601Y432561D01*
X279474Y432571D01*
X279384Y432585D01*
X239157Y432585D01*
X239062Y432572D01*
X238966Y432567D01*
X238923Y432552D01*
X238878Y432545D01*
X238790Y432506D01*
X238699Y432474D01*
X238665Y432449D01*
X238621Y432429D01*
X238523Y432346D01*
X238450Y432293D01*
X192156Y385998D01*
X192150Y385990D01*
X192142Y385985D01*
X192065Y385878D01*
X191986Y385772D01*
X191983Y385764D01*
X191977Y385756D01*
X191934Y385632D01*
X191887Y385509D01*
X191886Y385499D01*
X191883Y385490D01*
X191875Y385359D01*
X191865Y385227D01*
X191867Y385218D01*
X191866Y385209D01*
X191885Y385133D01*
X191923Y384951D01*
X191934Y384930D01*
X191939Y384909D01*
X193135Y382022D01*
X193135Y377438D01*
X191380Y373202D01*
X188138Y369960D01*
X183902Y368205D01*
X179318Y368205D01*
G37*
%LPD*%
%LPC*%
G36*
X103118Y317405D02*
X103118Y317405D01*
X98882Y319160D01*
X95640Y322402D01*
X93885Y326638D01*
X93885Y331222D01*
X95081Y334109D01*
X95083Y334118D01*
X95088Y334126D01*
X95119Y334255D01*
X95151Y334382D01*
X95151Y334392D01*
X95153Y334401D01*
X95146Y334533D01*
X95142Y334664D01*
X95139Y334673D01*
X95139Y334683D01*
X95095Y334807D01*
X95055Y334932D01*
X95049Y334940D01*
X95046Y334949D01*
X95001Y335011D01*
X94896Y335165D01*
X94877Y335181D01*
X94864Y335198D01*
X60475Y369587D01*
X60475Y480933D01*
X60462Y481028D01*
X60457Y481124D01*
X60442Y481167D01*
X60435Y481212D01*
X60396Y481300D01*
X60364Y481391D01*
X60339Y481425D01*
X60319Y481469D01*
X60236Y481567D01*
X60183Y481640D01*
X22375Y519447D01*
X22375Y623553D01*
X40657Y641835D01*
X46244Y641835D01*
X46308Y641844D01*
X46372Y641843D01*
X46447Y641864D01*
X46523Y641875D01*
X46582Y641901D01*
X46644Y641918D01*
X46710Y641959D01*
X46780Y641991D01*
X46829Y642033D01*
X46884Y642066D01*
X46936Y642124D01*
X46994Y642174D01*
X47030Y642228D01*
X47073Y642276D01*
X47106Y642345D01*
X47149Y642410D01*
X47168Y642472D01*
X47196Y642529D01*
X47207Y642599D01*
X47231Y642680D01*
X47232Y642765D01*
X47243Y642834D01*
X47243Y647824D01*
X48136Y648717D01*
X66164Y648717D01*
X67057Y647824D01*
X67057Y629796D01*
X66164Y628903D01*
X48136Y628903D01*
X47243Y629796D01*
X47243Y634786D01*
X47234Y634850D01*
X47235Y634914D01*
X47214Y634989D01*
X47203Y635065D01*
X47177Y635124D01*
X47160Y635186D01*
X47119Y635252D01*
X47087Y635322D01*
X47045Y635371D01*
X47012Y635426D01*
X46954Y635478D01*
X46904Y635536D01*
X46850Y635572D01*
X46802Y635615D01*
X46733Y635648D01*
X46668Y635691D01*
X46606Y635710D01*
X46549Y635738D01*
X46479Y635749D01*
X46398Y635773D01*
X46313Y635774D01*
X46244Y635785D01*
X43577Y635785D01*
X43482Y635772D01*
X43386Y635767D01*
X43343Y635752D01*
X43298Y635745D01*
X43210Y635706D01*
X43119Y635674D01*
X43085Y635649D01*
X43041Y635629D01*
X42943Y635546D01*
X42870Y635493D01*
X28717Y621340D01*
X28660Y621263D01*
X28595Y621192D01*
X28575Y621151D01*
X28548Y621114D01*
X28514Y621024D01*
X28472Y620938D01*
X28466Y620896D01*
X28449Y620850D01*
X28439Y620723D01*
X28425Y620633D01*
X28425Y522367D01*
X28438Y522272D01*
X28443Y522176D01*
X28458Y522133D01*
X28465Y522088D01*
X28504Y522000D01*
X28536Y521909D01*
X28561Y521875D01*
X28581Y521831D01*
X28664Y521733D01*
X28717Y521660D01*
X66525Y483853D01*
X66525Y372507D01*
X66538Y372412D01*
X66543Y372316D01*
X66558Y372273D01*
X66565Y372228D01*
X66604Y372140D01*
X66636Y372049D01*
X66661Y372015D01*
X66681Y371971D01*
X66764Y371873D01*
X66817Y371800D01*
X99142Y339476D01*
X99150Y339470D01*
X99155Y339462D01*
X99262Y339385D01*
X99368Y339306D01*
X99376Y339303D01*
X99384Y339297D01*
X99508Y339253D01*
X99631Y339207D01*
X99641Y339206D01*
X99650Y339203D01*
X99781Y339195D01*
X99913Y339185D01*
X99922Y339187D01*
X99931Y339186D01*
X100007Y339205D01*
X100189Y339243D01*
X100210Y339254D01*
X100231Y339259D01*
X103118Y340455D01*
X107702Y340455D01*
X111938Y338700D01*
X115180Y335458D01*
X116935Y331222D01*
X116935Y326638D01*
X115180Y322402D01*
X111938Y319160D01*
X107702Y317405D01*
X103118Y317405D01*
G37*
%LPD*%
%LPC*%
G36*
X179318Y342805D02*
X179318Y342805D01*
X175082Y344560D01*
X171840Y347802D01*
X170644Y350688D01*
X170639Y350697D01*
X170637Y350706D01*
X170567Y350818D01*
X170500Y350931D01*
X170494Y350938D01*
X170489Y350946D01*
X170391Y351034D01*
X170295Y351124D01*
X170286Y351128D01*
X170279Y351135D01*
X170161Y351192D01*
X170043Y351252D01*
X170034Y351254D01*
X170026Y351258D01*
X169950Y351270D01*
X169766Y351304D01*
X169742Y351302D01*
X169721Y351305D01*
X152417Y351305D01*
X150353Y353370D01*
X126040Y377683D01*
X123975Y379747D01*
X123975Y417433D01*
X123962Y417528D01*
X123957Y417624D01*
X123942Y417667D01*
X123935Y417712D01*
X123896Y417800D01*
X123864Y417891D01*
X123839Y417925D01*
X123819Y417969D01*
X123736Y418067D01*
X123683Y418140D01*
X98575Y443247D01*
X98575Y506333D01*
X98562Y506428D01*
X98557Y506524D01*
X98542Y506567D01*
X98535Y506612D01*
X98496Y506700D01*
X98464Y506791D01*
X98439Y506825D01*
X98419Y506869D01*
X98336Y506967D01*
X98283Y507040D01*
X71430Y533893D01*
X71353Y533950D01*
X71282Y534015D01*
X71241Y534035D01*
X71204Y534062D01*
X71114Y534096D01*
X71028Y534138D01*
X70986Y534144D01*
X70940Y534161D01*
X70813Y534171D01*
X70723Y534185D01*
X67288Y534185D01*
X67278Y534184D01*
X67269Y534185D01*
X67139Y534164D01*
X67009Y534145D01*
X67000Y534142D01*
X66991Y534140D01*
X66871Y534083D01*
X66752Y534029D01*
X66744Y534023D01*
X66736Y534019D01*
X66637Y533931D01*
X66537Y533846D01*
X66532Y533838D01*
X66525Y533832D01*
X66485Y533766D01*
X66383Y533610D01*
X66376Y533587D01*
X66365Y533568D01*
X65548Y531598D01*
X62762Y528812D01*
X59121Y527303D01*
X55179Y527303D01*
X51538Y528812D01*
X48752Y531598D01*
X47243Y535239D01*
X47243Y539181D01*
X48752Y542822D01*
X51538Y545608D01*
X55179Y547117D01*
X59121Y547117D01*
X62762Y545608D01*
X65548Y542822D01*
X66365Y540852D01*
X66369Y540843D01*
X66372Y540834D01*
X66441Y540722D01*
X66508Y540609D01*
X66515Y540602D01*
X66520Y540594D01*
X66618Y540506D01*
X66714Y540416D01*
X66722Y540412D01*
X66729Y540405D01*
X66848Y540348D01*
X66965Y540288D01*
X66975Y540286D01*
X66983Y540282D01*
X67059Y540270D01*
X67242Y540236D01*
X67266Y540238D01*
X67288Y540235D01*
X73643Y540235D01*
X104625Y509253D01*
X104625Y446167D01*
X104638Y446072D01*
X104643Y445976D01*
X104658Y445933D01*
X104665Y445888D01*
X104704Y445800D01*
X104736Y445709D01*
X104761Y445675D01*
X104781Y445631D01*
X104864Y445533D01*
X104917Y445460D01*
X130025Y420353D01*
X130025Y382667D01*
X130038Y382572D01*
X130043Y382476D01*
X130058Y382433D01*
X130065Y382388D01*
X130104Y382300D01*
X130136Y382209D01*
X130161Y382175D01*
X130181Y382131D01*
X130264Y382033D01*
X130317Y381960D01*
X154630Y357647D01*
X154707Y357590D01*
X154778Y357525D01*
X154819Y357505D01*
X154856Y357478D01*
X154946Y357444D01*
X155032Y357402D01*
X155074Y357396D01*
X155120Y357379D01*
X155247Y357369D01*
X155337Y357355D01*
X169721Y357355D01*
X169730Y357356D01*
X169740Y357355D01*
X169870Y357376D01*
X170000Y357395D01*
X170009Y357398D01*
X170018Y357400D01*
X170138Y357457D01*
X170257Y357511D01*
X170264Y357517D01*
X170273Y357521D01*
X170372Y357609D01*
X170471Y357694D01*
X170477Y357702D01*
X170484Y357708D01*
X170524Y357774D01*
X170626Y357930D01*
X170633Y357953D01*
X170644Y357972D01*
X171840Y360858D01*
X175082Y364100D01*
X179318Y365855D01*
X183902Y365855D01*
X188138Y364100D01*
X191380Y360858D01*
X193135Y356622D01*
X193135Y352038D01*
X191380Y347802D01*
X188138Y344560D01*
X183902Y342805D01*
X179318Y342805D01*
G37*
%LPD*%
%LPC*%
G36*
X429508Y335185D02*
X429508Y335185D01*
X425272Y336940D01*
X422030Y340182D01*
X421041Y342568D01*
X421036Y342577D01*
X421034Y342586D01*
X420964Y342698D01*
X420898Y342811D01*
X420891Y342818D01*
X420886Y342826D01*
X420788Y342914D01*
X420692Y343004D01*
X420683Y343008D01*
X420676Y343015D01*
X420558Y343072D01*
X420440Y343132D01*
X420431Y343134D01*
X420423Y343138D01*
X420347Y343150D01*
X420163Y343184D01*
X420139Y343182D01*
X420118Y343185D01*
X415587Y343185D01*
X415577Y343184D01*
X415568Y343185D01*
X415438Y343164D01*
X415307Y343145D01*
X415299Y343142D01*
X415290Y343140D01*
X415170Y343083D01*
X415051Y343029D01*
X415043Y343023D01*
X415035Y343019D01*
X414936Y342931D01*
X414836Y342846D01*
X414831Y342838D01*
X414824Y342832D01*
X414784Y342766D01*
X414682Y342610D01*
X414675Y342587D01*
X414664Y342568D01*
X413528Y339828D01*
X410742Y337042D01*
X407101Y335533D01*
X403159Y335533D01*
X399518Y337042D01*
X396732Y339828D01*
X395223Y343469D01*
X395223Y347411D01*
X396732Y351052D01*
X399518Y353838D01*
X403159Y355347D01*
X407101Y355347D01*
X410742Y353838D01*
X413528Y351052D01*
X413611Y350852D01*
X413616Y350843D01*
X413619Y350834D01*
X413688Y350722D01*
X413755Y350609D01*
X413762Y350602D01*
X413767Y350594D01*
X413865Y350506D01*
X413961Y350416D01*
X413969Y350412D01*
X413976Y350405D01*
X414095Y350348D01*
X414212Y350288D01*
X414222Y350286D01*
X414230Y350282D01*
X414306Y350270D01*
X414489Y350236D01*
X414513Y350238D01*
X414535Y350235D01*
X420118Y350235D01*
X420127Y350236D01*
X420137Y350235D01*
X420267Y350256D01*
X420397Y350275D01*
X420406Y350278D01*
X420415Y350280D01*
X420535Y350337D01*
X420654Y350391D01*
X420661Y350397D01*
X420670Y350401D01*
X420769Y350489D01*
X420868Y350574D01*
X420874Y350582D01*
X420881Y350588D01*
X420921Y350654D01*
X421023Y350810D01*
X421030Y350833D01*
X421041Y350852D01*
X422030Y353238D01*
X425272Y356480D01*
X428945Y358002D01*
X429007Y358038D01*
X429073Y358066D01*
X429128Y358110D01*
X429188Y358145D01*
X429237Y358198D01*
X429293Y358242D01*
X429333Y358300D01*
X429381Y358351D01*
X429413Y358415D01*
X429454Y358473D01*
X429477Y358540D01*
X429509Y358603D01*
X429522Y358673D01*
X429545Y358740D01*
X429548Y358811D01*
X429561Y358880D01*
X429554Y358951D01*
X429557Y359022D01*
X429541Y359091D01*
X429534Y359160D01*
X429508Y359227D01*
X429491Y359296D01*
X429456Y359357D01*
X429430Y359422D01*
X429386Y359479D01*
X429350Y359541D01*
X429299Y359589D01*
X429256Y359645D01*
X429198Y359686D01*
X429147Y359736D01*
X429089Y359765D01*
X429027Y359810D01*
X428939Y359841D01*
X428872Y359875D01*
X426986Y360488D01*
X425227Y361384D01*
X423630Y362545D01*
X422235Y363940D01*
X421074Y365537D01*
X420178Y367296D01*
X419568Y369173D01*
X419420Y370111D01*
X430800Y370111D01*
X430863Y370120D01*
X430928Y370119D01*
X431002Y370140D01*
X431079Y370151D01*
X431138Y370177D01*
X431200Y370194D01*
X431266Y370235D01*
X431336Y370267D01*
X431385Y370309D01*
X431440Y370342D01*
X431491Y370400D01*
X431550Y370450D01*
X431586Y370504D01*
X431629Y370552D01*
X431662Y370621D01*
X431705Y370686D01*
X431724Y370748D01*
X431752Y370805D01*
X431762Y370875D01*
X431787Y370956D01*
X431788Y371041D01*
X431799Y371110D01*
X431799Y373110D01*
X431790Y373174D01*
X431791Y373238D01*
X431770Y373313D01*
X431759Y373389D01*
X431733Y373448D01*
X431716Y373510D01*
X431675Y373576D01*
X431643Y373646D01*
X431601Y373695D01*
X431568Y373750D01*
X431510Y373802D01*
X431460Y373860D01*
X431406Y373896D01*
X431358Y373939D01*
X431289Y373972D01*
X431224Y374015D01*
X431162Y374034D01*
X431104Y374062D01*
X431035Y374072D01*
X430954Y374097D01*
X430869Y374098D01*
X430800Y374109D01*
X419420Y374109D01*
X419568Y375047D01*
X420178Y376924D01*
X421074Y378683D01*
X422235Y380280D01*
X423630Y381675D01*
X425227Y382836D01*
X426986Y383732D01*
X428872Y384345D01*
X428936Y384376D01*
X429004Y384398D01*
X429062Y384438D01*
X429125Y384469D01*
X429178Y384517D01*
X429237Y384557D01*
X429281Y384611D01*
X429333Y384659D01*
X429371Y384720D01*
X429416Y384775D01*
X429444Y384839D01*
X429481Y384899D01*
X429499Y384968D01*
X429527Y385034D01*
X429536Y385104D01*
X429555Y385171D01*
X429553Y385243D01*
X429562Y385314D01*
X429551Y385383D01*
X429550Y385453D01*
X429528Y385522D01*
X429517Y385592D01*
X429487Y385656D01*
X429466Y385723D01*
X429427Y385782D01*
X429396Y385847D01*
X429349Y385900D01*
X429310Y385958D01*
X429256Y386004D01*
X429209Y386058D01*
X429154Y386091D01*
X429095Y386141D01*
X429010Y386179D01*
X428945Y386218D01*
X425272Y387740D01*
X422030Y390982D01*
X420275Y395218D01*
X420275Y399802D01*
X422030Y404038D01*
X425272Y407280D01*
X429508Y409035D01*
X434092Y409035D01*
X438328Y407280D01*
X441570Y404038D01*
X443325Y399802D01*
X443325Y395218D01*
X441570Y390982D01*
X438328Y387740D01*
X434655Y386218D01*
X434593Y386182D01*
X434527Y386154D01*
X434472Y386110D01*
X434412Y386075D01*
X434363Y386022D01*
X434307Y385978D01*
X434267Y385920D01*
X434219Y385869D01*
X434187Y385805D01*
X434146Y385747D01*
X434123Y385680D01*
X434091Y385617D01*
X434078Y385547D01*
X434055Y385480D01*
X434052Y385409D01*
X434039Y385340D01*
X434046Y385269D01*
X434043Y385198D01*
X434059Y385129D01*
X434066Y385060D01*
X434092Y384993D01*
X434109Y384924D01*
X434144Y384863D01*
X434170Y384798D01*
X434214Y384741D01*
X434250Y384679D01*
X434301Y384631D01*
X434344Y384575D01*
X434402Y384534D01*
X434453Y384484D01*
X434511Y384455D01*
X434573Y384410D01*
X434661Y384379D01*
X434728Y384345D01*
X436614Y383732D01*
X438373Y382836D01*
X439970Y381675D01*
X441365Y380280D01*
X442526Y378683D01*
X443422Y376924D01*
X444035Y375038D01*
X444066Y374974D01*
X444088Y374906D01*
X444128Y374848D01*
X444159Y374785D01*
X444207Y374732D01*
X444247Y374673D01*
X444301Y374629D01*
X444349Y374577D01*
X444410Y374539D01*
X444465Y374494D01*
X444529Y374466D01*
X444589Y374429D01*
X444658Y374411D01*
X444724Y374383D01*
X444794Y374374D01*
X444861Y374355D01*
X444933Y374357D01*
X445004Y374348D01*
X445073Y374359D01*
X445143Y374360D01*
X445212Y374382D01*
X445282Y374393D01*
X445346Y374423D01*
X445413Y374444D01*
X445472Y374483D01*
X445537Y374514D01*
X445590Y374561D01*
X445648Y374600D01*
X445694Y374654D01*
X445748Y374701D01*
X445781Y374756D01*
X445831Y374815D01*
X445869Y374900D01*
X445908Y374965D01*
X447430Y378638D01*
X450672Y381880D01*
X454908Y383635D01*
X459492Y383635D01*
X463728Y381880D01*
X466970Y378638D01*
X468725Y374402D01*
X468725Y369818D01*
X466970Y365582D01*
X463728Y362340D01*
X459492Y360585D01*
X454908Y360585D01*
X450672Y362340D01*
X447430Y365582D01*
X445908Y369255D01*
X445872Y369317D01*
X445844Y369383D01*
X445800Y369438D01*
X445765Y369498D01*
X445712Y369547D01*
X445668Y369603D01*
X445610Y369643D01*
X445559Y369691D01*
X445495Y369723D01*
X445437Y369764D01*
X445370Y369787D01*
X445307Y369819D01*
X445237Y369832D01*
X445170Y369855D01*
X445099Y369858D01*
X445030Y369871D01*
X444959Y369864D01*
X444888Y369867D01*
X444819Y369851D01*
X444750Y369844D01*
X444683Y369818D01*
X444614Y369801D01*
X444553Y369766D01*
X444488Y369740D01*
X444431Y369696D01*
X444369Y369660D01*
X444321Y369609D01*
X444265Y369566D01*
X444224Y369508D01*
X444174Y369457D01*
X444145Y369399D01*
X444100Y369337D01*
X444069Y369249D01*
X444035Y369182D01*
X443422Y367296D01*
X442526Y365537D01*
X441365Y363940D01*
X439970Y362545D01*
X438373Y361384D01*
X436614Y360488D01*
X434728Y359875D01*
X434664Y359844D01*
X434596Y359822D01*
X434538Y359782D01*
X434475Y359751D01*
X434422Y359703D01*
X434363Y359663D01*
X434319Y359609D01*
X434267Y359561D01*
X434229Y359500D01*
X434184Y359445D01*
X434156Y359381D01*
X434119Y359321D01*
X434101Y359252D01*
X434073Y359186D01*
X434064Y359116D01*
X434045Y359049D01*
X434047Y358977D01*
X434038Y358906D01*
X434049Y358837D01*
X434050Y358767D01*
X434072Y358698D01*
X434083Y358628D01*
X434113Y358564D01*
X434134Y358497D01*
X434173Y358438D01*
X434204Y358373D01*
X434251Y358320D01*
X434290Y358262D01*
X434344Y358216D01*
X434391Y358162D01*
X434446Y358129D01*
X434505Y358079D01*
X434590Y358041D01*
X434655Y358002D01*
X438328Y356480D01*
X441570Y353238D01*
X443325Y349002D01*
X443325Y344418D01*
X441570Y340182D01*
X438328Y336940D01*
X434092Y335185D01*
X429508Y335185D01*
G37*
%LPD*%
%LPC*%
G36*
X454908Y411385D02*
X454908Y411385D01*
X450672Y413140D01*
X447430Y416382D01*
X445675Y420618D01*
X445675Y425202D01*
X447430Y429438D01*
X450672Y432680D01*
X454345Y434202D01*
X454407Y434238D01*
X454473Y434266D01*
X454528Y434310D01*
X454588Y434345D01*
X454637Y434397D01*
X454693Y434442D01*
X454733Y434500D01*
X454781Y434551D01*
X454813Y434615D01*
X454854Y434673D01*
X454877Y434740D01*
X454909Y434803D01*
X454922Y434873D01*
X454945Y434940D01*
X454948Y435011D01*
X454961Y435080D01*
X454954Y435151D01*
X454957Y435222D01*
X454941Y435291D01*
X454934Y435360D01*
X454908Y435427D01*
X454891Y435496D01*
X454856Y435557D01*
X454830Y435622D01*
X454786Y435679D01*
X454750Y435741D01*
X454699Y435789D01*
X454656Y435845D01*
X454598Y435886D01*
X454547Y435936D01*
X454489Y435965D01*
X454427Y436010D01*
X454339Y436041D01*
X454272Y436075D01*
X452386Y436688D01*
X450627Y437584D01*
X449030Y438745D01*
X447635Y440140D01*
X446474Y441737D01*
X445578Y443496D01*
X444965Y445382D01*
X444934Y445446D01*
X444912Y445514D01*
X444872Y445572D01*
X444841Y445635D01*
X444793Y445688D01*
X444753Y445747D01*
X444699Y445791D01*
X444651Y445843D01*
X444590Y445881D01*
X444535Y445926D01*
X444471Y445954D01*
X444411Y445991D01*
X444342Y446009D01*
X444276Y446037D01*
X444206Y446046D01*
X444138Y446065D01*
X444067Y446063D01*
X443996Y446072D01*
X443927Y446061D01*
X443857Y446060D01*
X443788Y446038D01*
X443718Y446027D01*
X443654Y445997D01*
X443587Y445976D01*
X443528Y445937D01*
X443463Y445906D01*
X443410Y445859D01*
X443352Y445820D01*
X443306Y445766D01*
X443252Y445719D01*
X443219Y445664D01*
X443169Y445605D01*
X443131Y445520D01*
X443092Y445455D01*
X441570Y441782D01*
X438328Y438540D01*
X434092Y436785D01*
X429508Y436785D01*
X425272Y438540D01*
X422030Y441782D01*
X420275Y446018D01*
X420275Y450602D01*
X422030Y454838D01*
X425272Y458080D01*
X429508Y459835D01*
X434092Y459835D01*
X438328Y458080D01*
X441570Y454838D01*
X443092Y451165D01*
X443128Y451103D01*
X443156Y451037D01*
X443200Y450982D01*
X443235Y450922D01*
X443287Y450873D01*
X443332Y450817D01*
X443390Y450777D01*
X443441Y450729D01*
X443505Y450697D01*
X443563Y450656D01*
X443630Y450633D01*
X443693Y450601D01*
X443763Y450588D01*
X443830Y450565D01*
X443901Y450562D01*
X443970Y450549D01*
X444041Y450556D01*
X444112Y450553D01*
X444181Y450569D01*
X444250Y450576D01*
X444317Y450602D01*
X444386Y450619D01*
X444447Y450654D01*
X444512Y450680D01*
X444569Y450724D01*
X444631Y450760D01*
X444679Y450811D01*
X444735Y450854D01*
X444776Y450912D01*
X444826Y450963D01*
X444855Y451021D01*
X444900Y451083D01*
X444931Y451171D01*
X444965Y451238D01*
X445578Y453124D01*
X446474Y454883D01*
X447635Y456480D01*
X449030Y457875D01*
X450627Y459036D01*
X452386Y459932D01*
X454272Y460545D01*
X454336Y460576D01*
X454404Y460598D01*
X454462Y460638D01*
X454525Y460669D01*
X454578Y460717D01*
X454637Y460757D01*
X454681Y460811D01*
X454733Y460859D01*
X454771Y460920D01*
X454816Y460975D01*
X454844Y461039D01*
X454881Y461099D01*
X454899Y461168D01*
X454927Y461234D01*
X454936Y461304D01*
X454955Y461372D01*
X454953Y461443D01*
X454962Y461514D01*
X454951Y461583D01*
X454950Y461653D01*
X454928Y461722D01*
X454917Y461792D01*
X454887Y461856D01*
X454866Y461923D01*
X454827Y461982D01*
X454796Y462047D01*
X454749Y462100D01*
X454710Y462158D01*
X454656Y462204D01*
X454609Y462258D01*
X454554Y462291D01*
X454495Y462341D01*
X454410Y462379D01*
X454345Y462418D01*
X450672Y463940D01*
X447430Y467182D01*
X445675Y471418D01*
X445675Y476002D01*
X447430Y480238D01*
X450672Y483480D01*
X454908Y485235D01*
X459492Y485235D01*
X463728Y483480D01*
X466970Y480238D01*
X468725Y476002D01*
X468725Y471418D01*
X466970Y467182D01*
X463728Y463940D01*
X460055Y462418D01*
X459993Y462382D01*
X459927Y462354D01*
X459872Y462310D01*
X459812Y462275D01*
X459763Y462223D01*
X459707Y462178D01*
X459667Y462120D01*
X459619Y462069D01*
X459587Y462005D01*
X459546Y461947D01*
X459523Y461880D01*
X459491Y461817D01*
X459478Y461747D01*
X459455Y461680D01*
X459452Y461609D01*
X459439Y461540D01*
X459446Y461469D01*
X459443Y461398D01*
X459459Y461329D01*
X459466Y461260D01*
X459492Y461193D01*
X459509Y461124D01*
X459544Y461063D01*
X459570Y460998D01*
X459614Y460941D01*
X459650Y460879D01*
X459701Y460831D01*
X459744Y460775D01*
X459802Y460734D01*
X459853Y460684D01*
X459911Y460655D01*
X459973Y460610D01*
X460061Y460579D01*
X460128Y460545D01*
X462014Y459932D01*
X463773Y459036D01*
X465370Y457875D01*
X466765Y456480D01*
X467926Y454883D01*
X468822Y453124D01*
X469432Y451247D01*
X469580Y450309D01*
X458200Y450309D01*
X458137Y450300D01*
X458072Y450301D01*
X457998Y450280D01*
X457921Y450269D01*
X457862Y450243D01*
X457800Y450226D01*
X457734Y450185D01*
X457664Y450153D01*
X457615Y450111D01*
X457560Y450078D01*
X457509Y450020D01*
X457450Y449970D01*
X457414Y449916D01*
X457371Y449868D01*
X457338Y449799D01*
X457295Y449734D01*
X457276Y449672D01*
X457248Y449615D01*
X457238Y449545D01*
X457213Y449464D01*
X457212Y449379D01*
X457201Y449310D01*
X457201Y447310D01*
X457210Y447246D01*
X457209Y447182D01*
X457230Y447107D01*
X457241Y447031D01*
X457267Y446972D01*
X457284Y446910D01*
X457325Y446844D01*
X457357Y446774D01*
X457399Y446725D01*
X457432Y446670D01*
X457490Y446618D01*
X457540Y446560D01*
X457594Y446524D01*
X457642Y446481D01*
X457711Y446448D01*
X457776Y446405D01*
X457838Y446386D01*
X457896Y446358D01*
X457965Y446347D01*
X458046Y446323D01*
X458131Y446322D01*
X458200Y446311D01*
X469580Y446311D01*
X469432Y445373D01*
X468822Y443496D01*
X467926Y441737D01*
X466765Y440140D01*
X465370Y438745D01*
X463773Y437584D01*
X462014Y436688D01*
X460128Y436075D01*
X460064Y436044D01*
X459996Y436022D01*
X459938Y435982D01*
X459875Y435951D01*
X459822Y435903D01*
X459763Y435863D01*
X459719Y435809D01*
X459667Y435761D01*
X459629Y435700D01*
X459584Y435645D01*
X459556Y435581D01*
X459519Y435521D01*
X459501Y435452D01*
X459473Y435386D01*
X459464Y435316D01*
X459445Y435248D01*
X459447Y435177D01*
X459438Y435106D01*
X459449Y435037D01*
X459450Y434967D01*
X459472Y434898D01*
X459483Y434828D01*
X459513Y434764D01*
X459534Y434697D01*
X459573Y434638D01*
X459604Y434573D01*
X459651Y434520D01*
X459690Y434462D01*
X459744Y434416D01*
X459791Y434362D01*
X459846Y434329D01*
X459905Y434279D01*
X459990Y434241D01*
X460055Y434202D01*
X463728Y432680D01*
X466970Y429438D01*
X468725Y425202D01*
X468725Y420618D01*
X466970Y416382D01*
X463728Y413140D01*
X459492Y411385D01*
X454908Y411385D01*
G37*
%LPD*%
%LPC*%
G36*
X454908Y487585D02*
X454908Y487585D01*
X450672Y489340D01*
X447430Y492582D01*
X445675Y496818D01*
X445675Y501402D01*
X447430Y505638D01*
X450672Y508880D01*
X454345Y510402D01*
X454407Y510438D01*
X454473Y510466D01*
X454528Y510510D01*
X454588Y510545D01*
X454637Y510597D01*
X454693Y510642D01*
X454733Y510700D01*
X454781Y510751D01*
X454813Y510815D01*
X454854Y510873D01*
X454877Y510940D01*
X454909Y511003D01*
X454922Y511073D01*
X454945Y511140D01*
X454948Y511211D01*
X454961Y511280D01*
X454954Y511351D01*
X454957Y511422D01*
X454941Y511491D01*
X454934Y511560D01*
X454908Y511627D01*
X454891Y511696D01*
X454856Y511757D01*
X454830Y511822D01*
X454786Y511879D01*
X454750Y511941D01*
X454699Y511989D01*
X454656Y512045D01*
X454598Y512086D01*
X454547Y512136D01*
X454489Y512165D01*
X454427Y512210D01*
X454339Y512241D01*
X454272Y512275D01*
X452386Y512888D01*
X450627Y513784D01*
X449030Y514945D01*
X447635Y516340D01*
X446474Y517937D01*
X445578Y519696D01*
X444965Y521582D01*
X444934Y521646D01*
X444912Y521714D01*
X444872Y521772D01*
X444841Y521835D01*
X444793Y521888D01*
X444753Y521947D01*
X444699Y521991D01*
X444651Y522043D01*
X444590Y522081D01*
X444535Y522126D01*
X444471Y522154D01*
X444411Y522191D01*
X444342Y522209D01*
X444276Y522237D01*
X444206Y522246D01*
X444138Y522265D01*
X444067Y522263D01*
X443996Y522272D01*
X443927Y522261D01*
X443857Y522260D01*
X443788Y522238D01*
X443718Y522227D01*
X443654Y522197D01*
X443587Y522176D01*
X443528Y522137D01*
X443463Y522106D01*
X443410Y522059D01*
X443352Y522020D01*
X443306Y521966D01*
X443252Y521919D01*
X443219Y521864D01*
X443169Y521805D01*
X443131Y521720D01*
X443092Y521655D01*
X441570Y517982D01*
X438328Y514740D01*
X434092Y512985D01*
X429508Y512985D01*
X425272Y514740D01*
X422030Y517982D01*
X420275Y522218D01*
X420275Y526802D01*
X422030Y531038D01*
X425272Y534280D01*
X429508Y536035D01*
X434092Y536035D01*
X438328Y534280D01*
X441570Y531038D01*
X443092Y527365D01*
X443128Y527303D01*
X443156Y527237D01*
X443200Y527182D01*
X443235Y527122D01*
X443287Y527073D01*
X443332Y527017D01*
X443390Y526977D01*
X443441Y526929D01*
X443505Y526897D01*
X443563Y526856D01*
X443630Y526833D01*
X443693Y526801D01*
X443763Y526788D01*
X443830Y526765D01*
X443901Y526762D01*
X443970Y526749D01*
X444041Y526756D01*
X444112Y526753D01*
X444181Y526769D01*
X444250Y526776D01*
X444317Y526802D01*
X444386Y526819D01*
X444447Y526854D01*
X444512Y526880D01*
X444569Y526924D01*
X444631Y526960D01*
X444679Y527011D01*
X444735Y527054D01*
X444776Y527112D01*
X444826Y527163D01*
X444855Y527221D01*
X444900Y527283D01*
X444917Y527332D01*
X444928Y527348D01*
X444941Y527390D01*
X444965Y527438D01*
X445578Y529324D01*
X446474Y531083D01*
X447635Y532680D01*
X449030Y534075D01*
X450627Y535236D01*
X452386Y536132D01*
X454272Y536745D01*
X454336Y536776D01*
X454404Y536798D01*
X454462Y536838D01*
X454525Y536869D01*
X454578Y536917D01*
X454637Y536957D01*
X454681Y537011D01*
X454733Y537059D01*
X454771Y537120D01*
X454816Y537175D01*
X454844Y537239D01*
X454881Y537299D01*
X454899Y537368D01*
X454927Y537434D01*
X454936Y537504D01*
X454955Y537572D01*
X454953Y537643D01*
X454962Y537714D01*
X454951Y537783D01*
X454950Y537853D01*
X454928Y537922D01*
X454917Y537992D01*
X454887Y538056D01*
X454866Y538123D01*
X454827Y538182D01*
X454796Y538247D01*
X454749Y538300D01*
X454710Y538358D01*
X454656Y538404D01*
X454609Y538458D01*
X454554Y538491D01*
X454495Y538541D01*
X454410Y538579D01*
X454345Y538618D01*
X450672Y540140D01*
X447430Y543382D01*
X445675Y547618D01*
X445675Y552202D01*
X447430Y556438D01*
X450672Y559680D01*
X454908Y561435D01*
X459492Y561435D01*
X463728Y559680D01*
X466970Y556438D01*
X468725Y552202D01*
X468725Y547618D01*
X466970Y543382D01*
X463728Y540140D01*
X460055Y538618D01*
X459993Y538582D01*
X459927Y538554D01*
X459872Y538510D01*
X459812Y538475D01*
X459763Y538423D01*
X459707Y538378D01*
X459667Y538320D01*
X459619Y538269D01*
X459587Y538205D01*
X459546Y538147D01*
X459523Y538080D01*
X459491Y538017D01*
X459478Y537947D01*
X459455Y537880D01*
X459452Y537809D01*
X459439Y537740D01*
X459446Y537669D01*
X459443Y537598D01*
X459459Y537529D01*
X459466Y537460D01*
X459492Y537393D01*
X459509Y537324D01*
X459544Y537263D01*
X459570Y537198D01*
X459614Y537141D01*
X459650Y537079D01*
X459701Y537031D01*
X459744Y536975D01*
X459802Y536934D01*
X459853Y536884D01*
X459911Y536855D01*
X459973Y536810D01*
X460061Y536779D01*
X460128Y536745D01*
X462014Y536132D01*
X463773Y535236D01*
X465370Y534075D01*
X466765Y532680D01*
X467926Y531083D01*
X468822Y529324D01*
X469432Y527447D01*
X469580Y526509D01*
X458200Y526509D01*
X458137Y526500D01*
X458072Y526501D01*
X457998Y526480D01*
X457921Y526469D01*
X457862Y526443D01*
X457800Y526426D01*
X457734Y526385D01*
X457664Y526353D01*
X457615Y526311D01*
X457560Y526278D01*
X457509Y526220D01*
X457450Y526170D01*
X457414Y526116D01*
X457371Y526068D01*
X457338Y525999D01*
X457295Y525934D01*
X457276Y525872D01*
X457248Y525815D01*
X457238Y525745D01*
X457213Y525664D01*
X457212Y525579D01*
X457201Y525510D01*
X457201Y523510D01*
X457210Y523446D01*
X457209Y523382D01*
X457230Y523307D01*
X457241Y523231D01*
X457267Y523172D01*
X457284Y523110D01*
X457325Y523044D01*
X457357Y522974D01*
X457399Y522925D01*
X457432Y522870D01*
X457490Y522818D01*
X457540Y522760D01*
X457594Y522724D01*
X457642Y522681D01*
X457711Y522648D01*
X457776Y522605D01*
X457838Y522586D01*
X457896Y522558D01*
X457965Y522547D01*
X458046Y522523D01*
X458131Y522522D01*
X458200Y522511D01*
X469580Y522511D01*
X469489Y521931D01*
X469432Y521573D01*
X468822Y519696D01*
X467926Y517937D01*
X466765Y516340D01*
X465370Y514945D01*
X463773Y513784D01*
X462014Y512888D01*
X460128Y512275D01*
X460064Y512244D01*
X459996Y512222D01*
X459938Y512182D01*
X459875Y512151D01*
X459822Y512103D01*
X459763Y512063D01*
X459719Y512009D01*
X459667Y511961D01*
X459629Y511900D01*
X459584Y511845D01*
X459556Y511781D01*
X459519Y511721D01*
X459501Y511652D01*
X459473Y511586D01*
X459464Y511516D01*
X459445Y511448D01*
X459447Y511377D01*
X459438Y511306D01*
X459449Y511237D01*
X459450Y511167D01*
X459472Y511098D01*
X459483Y511028D01*
X459513Y510964D01*
X459534Y510897D01*
X459573Y510838D01*
X459604Y510773D01*
X459651Y510720D01*
X459690Y510662D01*
X459744Y510616D01*
X459791Y510562D01*
X459846Y510529D01*
X459905Y510479D01*
X459990Y510441D01*
X460055Y510402D01*
X463728Y508880D01*
X466970Y505638D01*
X468725Y501402D01*
X468725Y496818D01*
X466970Y492582D01*
X463728Y489340D01*
X459492Y487585D01*
X454908Y487585D01*
G37*
%LPD*%
%LPC*%
G36*
X100544Y667793D02*
X100544Y667793D01*
X98594Y668601D01*
X97101Y670094D01*
X96293Y672044D01*
X96293Y674156D01*
X97101Y676106D01*
X98594Y677599D01*
X100544Y678407D01*
X102656Y678407D01*
X104606Y677599D01*
X105787Y676417D01*
X105864Y676360D01*
X105936Y676295D01*
X105977Y676275D01*
X106013Y676248D01*
X106103Y676214D01*
X106189Y676172D01*
X106231Y676166D01*
X106277Y676149D01*
X106405Y676139D01*
X106494Y676125D01*
X152003Y676125D01*
X152098Y676138D01*
X152194Y676143D01*
X152237Y676158D01*
X152282Y676165D01*
X152370Y676204D01*
X152461Y676236D01*
X152495Y676261D01*
X152539Y676281D01*
X152637Y676364D01*
X152710Y676417D01*
X233294Y757002D01*
X233300Y757010D01*
X233308Y757015D01*
X233385Y757122D01*
X233464Y757228D01*
X233467Y757236D01*
X233473Y757244D01*
X233516Y757367D01*
X233563Y757491D01*
X233564Y757501D01*
X233567Y757510D01*
X233575Y757641D01*
X233585Y757773D01*
X233583Y757782D01*
X233584Y757791D01*
X233565Y757867D01*
X233527Y758049D01*
X233516Y758070D01*
X233511Y758091D01*
X232315Y760978D01*
X232315Y765562D01*
X234070Y769798D01*
X237312Y773040D01*
X241548Y774795D01*
X246132Y774795D01*
X250368Y773040D01*
X253610Y769798D01*
X255365Y765562D01*
X255365Y760978D01*
X253610Y756742D01*
X250368Y753500D01*
X246132Y751745D01*
X241548Y751745D01*
X238661Y752941D01*
X238652Y752943D01*
X238644Y752948D01*
X238515Y752979D01*
X238388Y753011D01*
X238378Y753011D01*
X238369Y753013D01*
X238236Y753006D01*
X238106Y753002D01*
X238097Y752999D01*
X238087Y752999D01*
X237963Y752955D01*
X237838Y752915D01*
X237830Y752909D01*
X237821Y752906D01*
X237759Y752861D01*
X237605Y752756D01*
X237589Y752737D01*
X237572Y752724D01*
X154923Y670075D01*
X106494Y670075D01*
X106399Y670062D01*
X106303Y670057D01*
X106260Y670042D01*
X106215Y670035D01*
X106127Y669996D01*
X106036Y669964D01*
X106002Y669939D01*
X105958Y669919D01*
X105861Y669836D01*
X105787Y669783D01*
X104606Y668601D01*
X102656Y667793D01*
X100544Y667793D01*
G37*
%LPD*%
%LPC*%
G36*
X341145Y447039D02*
X341145Y447039D01*
X333210Y450326D01*
X327136Y456400D01*
X323849Y464335D01*
X323849Y472925D01*
X327136Y480860D01*
X333210Y486934D01*
X341145Y490221D01*
X349735Y490221D01*
X357670Y486934D01*
X363744Y480860D01*
X367031Y472925D01*
X367031Y464335D01*
X363744Y456400D01*
X357670Y450326D01*
X349735Y447039D01*
X341145Y447039D01*
G37*
%LPD*%
%LPC*%
G36*
X137945Y447039D02*
X137945Y447039D01*
X130010Y450326D01*
X123936Y456400D01*
X120649Y464335D01*
X120649Y472925D01*
X123936Y480860D01*
X130010Y486934D01*
X137945Y490221D01*
X146535Y490221D01*
X154470Y486934D01*
X160544Y480860D01*
X163831Y472925D01*
X163831Y464335D01*
X160544Y456400D01*
X154470Y450326D01*
X146535Y447039D01*
X137945Y447039D01*
G37*
%LPD*%
%LPC*%
G36*
X195039Y762270D02*
X195039Y762270D01*
X195030Y762333D01*
X195031Y762398D01*
X195010Y762472D01*
X194999Y762549D01*
X194973Y762608D01*
X194956Y762670D01*
X194915Y762736D01*
X194883Y762806D01*
X194841Y762855D01*
X194808Y762910D01*
X194750Y762961D01*
X194700Y763020D01*
X194646Y763056D01*
X194598Y763099D01*
X194529Y763132D01*
X194464Y763175D01*
X194402Y763194D01*
X194345Y763222D01*
X194275Y763232D01*
X194194Y763257D01*
X194109Y763258D01*
X194040Y763269D01*
X192040Y763269D01*
X191976Y763260D01*
X191912Y763261D01*
X191837Y763240D01*
X191761Y763229D01*
X191702Y763203D01*
X191640Y763186D01*
X191574Y763145D01*
X191504Y763113D01*
X191455Y763071D01*
X191400Y763038D01*
X191348Y762980D01*
X191290Y762930D01*
X191254Y762876D01*
X191211Y762828D01*
X191178Y762759D01*
X191135Y762694D01*
X191116Y762632D01*
X191088Y762574D01*
X191077Y762505D01*
X191053Y762424D01*
X191052Y762339D01*
X191041Y762270D01*
X191041Y750890D01*
X190103Y751038D01*
X188226Y751648D01*
X186467Y752544D01*
X184870Y753705D01*
X183475Y755100D01*
X182314Y756697D01*
X181418Y758456D01*
X180805Y760342D01*
X180774Y760406D01*
X180752Y760474D01*
X180712Y760532D01*
X180681Y760595D01*
X180633Y760648D01*
X180593Y760707D01*
X180539Y760751D01*
X180491Y760803D01*
X180430Y760841D01*
X180375Y760886D01*
X180311Y760914D01*
X180251Y760951D01*
X180182Y760969D01*
X180116Y760997D01*
X180046Y761006D01*
X179979Y761025D01*
X179907Y761023D01*
X179836Y761032D01*
X179767Y761021D01*
X179697Y761020D01*
X179628Y760998D01*
X179558Y760987D01*
X179494Y760957D01*
X179427Y760936D01*
X179368Y760897D01*
X179303Y760866D01*
X179250Y760819D01*
X179192Y760780D01*
X179146Y760726D01*
X179092Y760679D01*
X179059Y760624D01*
X179009Y760565D01*
X178971Y760480D01*
X178932Y760415D01*
X177410Y756742D01*
X174168Y753500D01*
X169932Y751745D01*
X165348Y751745D01*
X161112Y753500D01*
X157870Y756742D01*
X156115Y760978D01*
X156115Y765562D01*
X157870Y769798D01*
X161112Y773040D01*
X165348Y774795D01*
X169932Y774795D01*
X174168Y773040D01*
X177410Y769798D01*
X178932Y766125D01*
X178968Y766063D01*
X178996Y765997D01*
X179040Y765942D01*
X179075Y765882D01*
X179128Y765833D01*
X179172Y765777D01*
X179230Y765737D01*
X179281Y765689D01*
X179345Y765657D01*
X179403Y765616D01*
X179470Y765593D01*
X179533Y765561D01*
X179603Y765548D01*
X179670Y765525D01*
X179741Y765522D01*
X179810Y765509D01*
X179881Y765516D01*
X179952Y765513D01*
X180021Y765529D01*
X180090Y765536D01*
X180157Y765562D01*
X180226Y765579D01*
X180287Y765614D01*
X180352Y765640D01*
X180409Y765684D01*
X180471Y765720D01*
X180519Y765771D01*
X180575Y765814D01*
X180616Y765872D01*
X180666Y765923D01*
X180695Y765981D01*
X180740Y766043D01*
X180771Y766131D01*
X180805Y766198D01*
X181418Y768084D01*
X182314Y769843D01*
X183475Y771440D01*
X184870Y772835D01*
X186467Y773996D01*
X188226Y774892D01*
X190103Y775502D01*
X191041Y775650D01*
X191041Y764270D01*
X191050Y764207D01*
X191049Y764142D01*
X191070Y764068D01*
X191081Y763991D01*
X191107Y763932D01*
X191124Y763870D01*
X191165Y763804D01*
X191197Y763734D01*
X191239Y763685D01*
X191272Y763630D01*
X191330Y763579D01*
X191380Y763520D01*
X191434Y763484D01*
X191482Y763441D01*
X191551Y763408D01*
X191616Y763365D01*
X191678Y763346D01*
X191735Y763318D01*
X191805Y763308D01*
X191886Y763283D01*
X191971Y763282D01*
X192040Y763271D01*
X194040Y763271D01*
X194104Y763280D01*
X194168Y763279D01*
X194243Y763300D01*
X194319Y763311D01*
X194378Y763337D01*
X194440Y763354D01*
X194506Y763395D01*
X194576Y763427D01*
X194625Y763469D01*
X194680Y763502D01*
X194732Y763560D01*
X194790Y763610D01*
X194826Y763664D01*
X194869Y763712D01*
X194902Y763781D01*
X194945Y763846D01*
X194964Y763908D01*
X194992Y763966D01*
X195002Y764035D01*
X195027Y764116D01*
X195028Y764201D01*
X195039Y764270D01*
X195039Y775650D01*
X195977Y775502D01*
X197854Y774892D01*
X199613Y773996D01*
X201210Y772835D01*
X202605Y771440D01*
X203766Y769843D01*
X204662Y768084D01*
X205275Y766198D01*
X205306Y766134D01*
X205328Y766066D01*
X205368Y766008D01*
X205399Y765945D01*
X205447Y765892D01*
X205487Y765833D01*
X205541Y765789D01*
X205589Y765737D01*
X205650Y765699D01*
X205705Y765654D01*
X205769Y765626D01*
X205829Y765589D01*
X205898Y765571D01*
X205964Y765543D01*
X206034Y765534D01*
X206101Y765515D01*
X206173Y765517D01*
X206244Y765508D01*
X206313Y765519D01*
X206383Y765520D01*
X206452Y765542D01*
X206522Y765553D01*
X206586Y765583D01*
X206653Y765604D01*
X206712Y765643D01*
X206777Y765674D01*
X206830Y765721D01*
X206888Y765760D01*
X206934Y765814D01*
X206988Y765861D01*
X207021Y765916D01*
X207071Y765975D01*
X207109Y766060D01*
X207148Y766125D01*
X208670Y769798D01*
X211912Y773040D01*
X216148Y774795D01*
X220732Y774795D01*
X224968Y773040D01*
X228210Y769798D01*
X229965Y765562D01*
X229965Y760978D01*
X228210Y756742D01*
X224968Y753500D01*
X220732Y751745D01*
X216148Y751745D01*
X211912Y753500D01*
X208670Y756742D01*
X207148Y760415D01*
X207112Y760477D01*
X207084Y760543D01*
X207040Y760598D01*
X207005Y760658D01*
X206952Y760707D01*
X206908Y760763D01*
X206850Y760803D01*
X206799Y760851D01*
X206735Y760883D01*
X206677Y760924D01*
X206610Y760947D01*
X206547Y760979D01*
X206477Y760992D01*
X206410Y761015D01*
X206339Y761018D01*
X206270Y761031D01*
X206199Y761024D01*
X206128Y761027D01*
X206059Y761011D01*
X205990Y761004D01*
X205923Y760978D01*
X205854Y760961D01*
X205793Y760926D01*
X205728Y760900D01*
X205671Y760856D01*
X205609Y760820D01*
X205561Y760769D01*
X205505Y760726D01*
X205464Y760668D01*
X205414Y760617D01*
X205385Y760559D01*
X205340Y760497D01*
X205309Y760409D01*
X205275Y760342D01*
X204662Y758456D01*
X203766Y756697D01*
X202605Y755100D01*
X201210Y753705D01*
X199613Y752544D01*
X197854Y751648D01*
X195977Y751038D01*
X195039Y750890D01*
X195039Y762270D01*
G37*
%LPD*%
%LPC*%
G36*
X433799Y193310D02*
X433799Y193310D01*
X433790Y193373D01*
X433791Y193438D01*
X433770Y193512D01*
X433759Y193589D01*
X433733Y193648D01*
X433716Y193710D01*
X433675Y193776D01*
X433643Y193846D01*
X433601Y193895D01*
X433568Y193950D01*
X433510Y194001D01*
X433460Y194060D01*
X433406Y194096D01*
X433358Y194139D01*
X433289Y194172D01*
X433224Y194215D01*
X433162Y194234D01*
X433105Y194262D01*
X433035Y194272D01*
X432954Y194297D01*
X432869Y194298D01*
X432800Y194309D01*
X431799Y194309D01*
X431799Y195310D01*
X431790Y195374D01*
X431791Y195438D01*
X431770Y195513D01*
X431759Y195589D01*
X431733Y195648D01*
X431716Y195710D01*
X431675Y195776D01*
X431643Y195846D01*
X431601Y195895D01*
X431568Y195950D01*
X431510Y196002D01*
X431460Y196060D01*
X431406Y196096D01*
X431358Y196139D01*
X431289Y196172D01*
X431224Y196215D01*
X431162Y196234D01*
X431104Y196262D01*
X431035Y196272D01*
X430954Y196297D01*
X430869Y196298D01*
X430800Y196309D01*
X419420Y196309D01*
X419568Y197247D01*
X420178Y199124D01*
X421074Y200883D01*
X422235Y202480D01*
X423630Y203875D01*
X425227Y205036D01*
X426986Y205932D01*
X428872Y206545D01*
X428936Y206576D01*
X429004Y206598D01*
X429062Y206638D01*
X429125Y206669D01*
X429178Y206717D01*
X429237Y206757D01*
X429281Y206811D01*
X429333Y206859D01*
X429371Y206920D01*
X429416Y206975D01*
X429444Y207039D01*
X429481Y207099D01*
X429499Y207168D01*
X429527Y207234D01*
X429536Y207304D01*
X429555Y207372D01*
X429553Y207443D01*
X429562Y207514D01*
X429551Y207583D01*
X429550Y207653D01*
X429528Y207722D01*
X429517Y207792D01*
X429487Y207856D01*
X429466Y207923D01*
X429427Y207982D01*
X429396Y208047D01*
X429349Y208100D01*
X429310Y208158D01*
X429256Y208204D01*
X429209Y208258D01*
X429154Y208291D01*
X429095Y208341D01*
X429010Y208379D01*
X428945Y208418D01*
X425272Y209940D01*
X422030Y213182D01*
X420275Y217418D01*
X420275Y222002D01*
X422030Y226238D01*
X425272Y229480D01*
X429508Y231235D01*
X434092Y231235D01*
X438328Y229480D01*
X441570Y226238D01*
X443325Y222002D01*
X443325Y217418D01*
X441570Y213182D01*
X438328Y209940D01*
X434655Y208418D01*
X434593Y208382D01*
X434527Y208354D01*
X434472Y208310D01*
X434412Y208275D01*
X434363Y208223D01*
X434307Y208178D01*
X434267Y208120D01*
X434219Y208069D01*
X434187Y208005D01*
X434146Y207947D01*
X434123Y207880D01*
X434091Y207817D01*
X434078Y207747D01*
X434055Y207680D01*
X434052Y207609D01*
X434039Y207540D01*
X434046Y207469D01*
X434043Y207398D01*
X434059Y207329D01*
X434066Y207260D01*
X434092Y207193D01*
X434109Y207124D01*
X434144Y207063D01*
X434170Y206998D01*
X434214Y206941D01*
X434250Y206879D01*
X434301Y206831D01*
X434344Y206775D01*
X434402Y206734D01*
X434453Y206684D01*
X434511Y206655D01*
X434573Y206610D01*
X434661Y206579D01*
X434728Y206545D01*
X436614Y205932D01*
X438373Y205036D01*
X439970Y203875D01*
X441365Y202480D01*
X442526Y200883D01*
X443422Y199124D01*
X444035Y197238D01*
X444066Y197174D01*
X444088Y197106D01*
X444128Y197048D01*
X444159Y196985D01*
X444207Y196932D01*
X444247Y196873D01*
X444301Y196829D01*
X444349Y196777D01*
X444410Y196739D01*
X444465Y196694D01*
X444529Y196666D01*
X444589Y196629D01*
X444658Y196611D01*
X444724Y196583D01*
X444794Y196574D01*
X444862Y196555D01*
X444933Y196557D01*
X445004Y196548D01*
X445073Y196559D01*
X445143Y196560D01*
X445212Y196582D01*
X445282Y196593D01*
X445346Y196623D01*
X445413Y196644D01*
X445472Y196683D01*
X445537Y196714D01*
X445590Y196761D01*
X445648Y196800D01*
X445694Y196854D01*
X445748Y196901D01*
X445781Y196956D01*
X445831Y197015D01*
X445869Y197100D01*
X445908Y197165D01*
X447430Y200838D01*
X450672Y204080D01*
X454908Y205835D01*
X459492Y205835D01*
X463728Y204080D01*
X466970Y200838D01*
X468725Y196602D01*
X468725Y192018D01*
X466970Y187782D01*
X463728Y184540D01*
X459492Y182785D01*
X454908Y182785D01*
X450672Y184540D01*
X447430Y187782D01*
X445908Y191455D01*
X445872Y191517D01*
X445844Y191583D01*
X445800Y191638D01*
X445765Y191698D01*
X445713Y191747D01*
X445668Y191803D01*
X445610Y191843D01*
X445559Y191891D01*
X445495Y191923D01*
X445437Y191964D01*
X445370Y191987D01*
X445307Y192019D01*
X445237Y192032D01*
X445170Y192055D01*
X445099Y192058D01*
X445030Y192071D01*
X444959Y192064D01*
X444888Y192067D01*
X444819Y192051D01*
X444750Y192044D01*
X444683Y192018D01*
X444614Y192001D01*
X444553Y191966D01*
X444488Y191940D01*
X444431Y191896D01*
X444369Y191860D01*
X444321Y191809D01*
X444265Y191766D01*
X444224Y191708D01*
X444174Y191657D01*
X444145Y191599D01*
X444100Y191537D01*
X444074Y191463D01*
X444064Y191449D01*
X444058Y191428D01*
X444035Y191382D01*
X443422Y189496D01*
X442526Y187737D01*
X441365Y186140D01*
X439970Y184745D01*
X438373Y183584D01*
X436614Y182688D01*
X434737Y182078D01*
X433799Y181930D01*
X433799Y193310D01*
G37*
%LPD*%
%LPC*%
G36*
X429508Y284385D02*
X429508Y284385D01*
X425272Y286140D01*
X422030Y289382D01*
X421041Y291768D01*
X421036Y291777D01*
X421034Y291786D01*
X420964Y291898D01*
X420898Y292011D01*
X420891Y292018D01*
X420886Y292026D01*
X420788Y292114D01*
X420692Y292204D01*
X420683Y292208D01*
X420676Y292215D01*
X420558Y292272D01*
X420440Y292332D01*
X420431Y292334D01*
X420423Y292338D01*
X420347Y292350D01*
X420163Y292384D01*
X420139Y292382D01*
X420118Y292385D01*
X415587Y292385D01*
X415577Y292384D01*
X415568Y292385D01*
X415438Y292364D01*
X415307Y292345D01*
X415299Y292342D01*
X415290Y292340D01*
X415170Y292283D01*
X415051Y292229D01*
X415043Y292223D01*
X415035Y292219D01*
X414936Y292131D01*
X414836Y292046D01*
X414831Y292038D01*
X414824Y292032D01*
X414784Y291966D01*
X414682Y291810D01*
X414675Y291787D01*
X414664Y291768D01*
X413528Y289028D01*
X410742Y286242D01*
X407101Y284733D01*
X403159Y284733D01*
X399518Y286242D01*
X396732Y289028D01*
X395223Y292669D01*
X395223Y296611D01*
X396732Y300252D01*
X399518Y303038D01*
X403159Y304547D01*
X407101Y304547D01*
X410742Y303038D01*
X413528Y300252D01*
X413611Y300052D01*
X413616Y300043D01*
X413619Y300034D01*
X413688Y299922D01*
X413755Y299809D01*
X413762Y299802D01*
X413767Y299794D01*
X413865Y299706D01*
X413961Y299616D01*
X413969Y299612D01*
X413976Y299605D01*
X414095Y299548D01*
X414212Y299488D01*
X414222Y299486D01*
X414230Y299482D01*
X414306Y299470D01*
X414489Y299436D01*
X414513Y299438D01*
X414535Y299435D01*
X420118Y299435D01*
X420127Y299436D01*
X420137Y299435D01*
X420267Y299456D01*
X420397Y299475D01*
X420406Y299478D01*
X420415Y299480D01*
X420535Y299537D01*
X420654Y299591D01*
X420661Y299597D01*
X420670Y299601D01*
X420769Y299689D01*
X420868Y299774D01*
X420874Y299782D01*
X420881Y299788D01*
X420921Y299854D01*
X421023Y300010D01*
X421030Y300033D01*
X421041Y300052D01*
X422030Y302438D01*
X425272Y305680D01*
X429508Y307435D01*
X434092Y307435D01*
X438328Y305680D01*
X441570Y302438D01*
X443325Y298202D01*
X443325Y293618D01*
X441570Y289382D01*
X438328Y286140D01*
X434092Y284385D01*
X429508Y284385D01*
G37*
%LPD*%
%LPC*%
G36*
X196453Y166838D02*
X196453Y166838D01*
X194576Y167448D01*
X192817Y168344D01*
X191220Y169505D01*
X189825Y170900D01*
X188664Y172497D01*
X187768Y174256D01*
X187155Y176142D01*
X187124Y176206D01*
X187102Y176274D01*
X187062Y176332D01*
X187031Y176395D01*
X186983Y176448D01*
X186943Y176507D01*
X186889Y176551D01*
X186841Y176603D01*
X186780Y176641D01*
X186725Y176686D01*
X186661Y176714D01*
X186601Y176751D01*
X186532Y176769D01*
X186466Y176797D01*
X186396Y176806D01*
X186328Y176825D01*
X186257Y176823D01*
X186186Y176832D01*
X186117Y176821D01*
X186047Y176820D01*
X185978Y176798D01*
X185908Y176787D01*
X185844Y176757D01*
X185777Y176736D01*
X185718Y176697D01*
X185653Y176666D01*
X185600Y176619D01*
X185542Y176580D01*
X185496Y176526D01*
X185442Y176479D01*
X185409Y176424D01*
X185359Y176365D01*
X185321Y176280D01*
X185282Y176215D01*
X183760Y172542D01*
X180518Y169300D01*
X176282Y167545D01*
X171698Y167545D01*
X167462Y169300D01*
X164220Y172542D01*
X162465Y176778D01*
X162465Y181362D01*
X164220Y185598D01*
X167462Y188840D01*
X171698Y190595D01*
X176282Y190595D01*
X180518Y188840D01*
X183760Y185598D01*
X185282Y181925D01*
X185318Y181863D01*
X185346Y181797D01*
X185390Y181742D01*
X185425Y181682D01*
X185477Y181633D01*
X185522Y181577D01*
X185580Y181537D01*
X185631Y181489D01*
X185695Y181457D01*
X185753Y181416D01*
X185820Y181393D01*
X185883Y181361D01*
X185953Y181348D01*
X186020Y181325D01*
X186091Y181322D01*
X186160Y181309D01*
X186231Y181316D01*
X186302Y181313D01*
X186371Y181329D01*
X186440Y181336D01*
X186507Y181362D01*
X186576Y181379D01*
X186637Y181414D01*
X186702Y181440D01*
X186759Y181484D01*
X186821Y181520D01*
X186869Y181571D01*
X186925Y181614D01*
X186966Y181672D01*
X187016Y181723D01*
X187045Y181781D01*
X187090Y181843D01*
X187121Y181931D01*
X187155Y181998D01*
X187768Y183884D01*
X188664Y185643D01*
X189825Y187240D01*
X191220Y188635D01*
X192817Y189796D01*
X194576Y190692D01*
X196453Y191302D01*
X197391Y191450D01*
X197391Y180070D01*
X197400Y180007D01*
X197399Y179942D01*
X197420Y179868D01*
X197431Y179791D01*
X197457Y179732D01*
X197474Y179670D01*
X197515Y179604D01*
X197547Y179534D01*
X197589Y179485D01*
X197622Y179430D01*
X197680Y179379D01*
X197730Y179320D01*
X197784Y179284D01*
X197832Y179241D01*
X197901Y179208D01*
X197966Y179165D01*
X198028Y179146D01*
X198085Y179118D01*
X198155Y179108D01*
X198236Y179083D01*
X198321Y179082D01*
X198390Y179071D01*
X199391Y179071D01*
X199391Y179069D01*
X198390Y179069D01*
X198326Y179060D01*
X198262Y179061D01*
X198187Y179040D01*
X198111Y179029D01*
X198052Y179003D01*
X197990Y178986D01*
X197924Y178945D01*
X197854Y178913D01*
X197805Y178871D01*
X197750Y178838D01*
X197698Y178780D01*
X197640Y178730D01*
X197604Y178676D01*
X197561Y178628D01*
X197528Y178559D01*
X197485Y178494D01*
X197466Y178432D01*
X197438Y178374D01*
X197427Y178305D01*
X197403Y178224D01*
X197402Y178139D01*
X197391Y178070D01*
X197391Y166690D01*
X196453Y166838D01*
G37*
%LPD*%
%LPC*%
G36*
X300060Y332993D02*
X300060Y332993D01*
X296699Y334385D01*
X294126Y336958D01*
X292734Y340319D01*
X292734Y359197D01*
X294126Y362558D01*
X296699Y365131D01*
X300060Y366523D01*
X303698Y366523D01*
X307059Y365131D01*
X309632Y362558D01*
X311024Y359197D01*
X311024Y340319D01*
X309632Y336958D01*
X307059Y334385D01*
X303698Y332993D01*
X300060Y332993D01*
G37*
%LPD*%
%LPC*%
G36*
X345272Y332993D02*
X345272Y332993D01*
X341911Y334385D01*
X339338Y336958D01*
X337946Y340319D01*
X337946Y359197D01*
X339338Y362558D01*
X341911Y365131D01*
X345272Y366523D01*
X348910Y366523D01*
X352271Y365131D01*
X354844Y362558D01*
X356236Y359197D01*
X356236Y340319D01*
X354844Y336958D01*
X352271Y334385D01*
X348910Y332993D01*
X345272Y332993D01*
G37*
%LPD*%
%LPC*%
G36*
X300060Y290067D02*
X300060Y290067D01*
X296699Y291459D01*
X294126Y294032D01*
X292734Y297393D01*
X292734Y316271D01*
X294126Y319632D01*
X296699Y322205D01*
X300060Y323597D01*
X303698Y323597D01*
X307059Y322205D01*
X309632Y319632D01*
X311024Y316271D01*
X311024Y297393D01*
X309632Y294032D01*
X307059Y291459D01*
X303698Y290067D01*
X300060Y290067D01*
G37*
%LPD*%
%LPC*%
G36*
X345272Y290067D02*
X345272Y290067D01*
X341911Y291459D01*
X339338Y294032D01*
X337946Y297393D01*
X337946Y316271D01*
X339338Y319632D01*
X341911Y322205D01*
X345272Y323597D01*
X348910Y323597D01*
X352271Y322205D01*
X354844Y319632D01*
X356236Y316271D01*
X356236Y297393D01*
X354844Y294032D01*
X352271Y291459D01*
X348910Y290067D01*
X345272Y290067D01*
G37*
%LPD*%
%LPC*%
G36*
X300060Y225043D02*
X300060Y225043D01*
X296699Y226435D01*
X294126Y229008D01*
X292734Y232369D01*
X292734Y251247D01*
X294126Y254608D01*
X296699Y257181D01*
X300060Y258573D01*
X303698Y258573D01*
X307059Y257181D01*
X309632Y254608D01*
X311024Y251247D01*
X311024Y232369D01*
X309632Y229008D01*
X307059Y226435D01*
X303698Y225043D01*
X300060Y225043D01*
G37*
%LPD*%
%LPC*%
G36*
X94778Y393605D02*
X94778Y393605D01*
X93885Y394498D01*
X93885Y415762D01*
X94778Y416655D01*
X116042Y416655D01*
X116935Y415762D01*
X116935Y394498D01*
X116042Y393605D01*
X94778Y393605D01*
G37*
%LPD*%
%LPC*%
G36*
X421168Y665385D02*
X421168Y665385D01*
X420275Y666278D01*
X420275Y687542D01*
X421168Y688435D01*
X442432Y688435D01*
X443325Y687542D01*
X443325Y666278D01*
X442432Y665385D01*
X421168Y665385D01*
G37*
%LPD*%
%LPC*%
G36*
X334808Y751745D02*
X334808Y751745D01*
X333915Y752638D01*
X333915Y773902D01*
X334808Y774795D01*
X356072Y774795D01*
X356965Y773902D01*
X356965Y752638D01*
X356072Y751745D01*
X334808Y751745D01*
G37*
%LPD*%
%LPC*%
G36*
X429508Y487585D02*
X429508Y487585D01*
X425272Y489340D01*
X422030Y492582D01*
X420275Y496818D01*
X420275Y501402D01*
X422030Y505638D01*
X425272Y508880D01*
X429508Y510635D01*
X434092Y510635D01*
X438328Y508880D01*
X441570Y505638D01*
X443325Y501402D01*
X443325Y496818D01*
X441570Y492582D01*
X438328Y489340D01*
X434092Y487585D01*
X429508Y487585D01*
G37*
%LPD*%
%LPC*%
G36*
X179318Y317405D02*
X179318Y317405D01*
X175082Y319160D01*
X171840Y322402D01*
X170085Y326638D01*
X170085Y331222D01*
X171840Y335458D01*
X175082Y338700D01*
X179318Y340455D01*
X183902Y340455D01*
X188138Y338700D01*
X191380Y335458D01*
X193135Y331222D01*
X193135Y326638D01*
X191380Y322402D01*
X188138Y319160D01*
X183902Y317405D01*
X179318Y317405D01*
G37*
%LPD*%
%LPC*%
G36*
X339127Y58575D02*
X339127Y58575D01*
X334891Y60330D01*
X331649Y63572D01*
X329894Y67808D01*
X329894Y72392D01*
X331649Y76628D01*
X334891Y79870D01*
X339127Y81625D01*
X343711Y81625D01*
X347947Y79870D01*
X351189Y76628D01*
X352944Y72392D01*
X352944Y67808D01*
X351189Y63572D01*
X347947Y60330D01*
X343711Y58575D01*
X339127Y58575D01*
G37*
%LPD*%
%LPC*%
G36*
X429508Y462185D02*
X429508Y462185D01*
X425272Y463940D01*
X422030Y467182D01*
X420275Y471418D01*
X420275Y476002D01*
X422030Y480238D01*
X425272Y483480D01*
X429508Y485235D01*
X434092Y485235D01*
X438328Y483480D01*
X441570Y480238D01*
X443325Y476002D01*
X443325Y471418D01*
X441570Y467182D01*
X438328Y463940D01*
X434092Y462185D01*
X429508Y462185D01*
G37*
%LPD*%
%LPC*%
G36*
X429508Y411385D02*
X429508Y411385D01*
X425272Y413140D01*
X422030Y416382D01*
X420275Y420618D01*
X420275Y425202D01*
X422030Y429438D01*
X425272Y432680D01*
X429508Y434435D01*
X434092Y434435D01*
X438328Y432680D01*
X441570Y429438D01*
X443325Y425202D01*
X443325Y420618D01*
X441570Y416382D01*
X438328Y413140D01*
X434092Y411385D01*
X429508Y411385D01*
G37*
%LPD*%
%LPC*%
G36*
X103118Y241205D02*
X103118Y241205D01*
X98882Y242960D01*
X95640Y246202D01*
X93885Y250438D01*
X93885Y255022D01*
X95640Y259258D01*
X98882Y262500D01*
X103118Y264255D01*
X107702Y264255D01*
X111938Y262500D01*
X115180Y259258D01*
X116935Y255022D01*
X116935Y250438D01*
X115180Y246202D01*
X111938Y242960D01*
X107702Y241205D01*
X103118Y241205D01*
G37*
%LPD*%
%LPC*%
G36*
X179318Y241205D02*
X179318Y241205D01*
X175082Y242960D01*
X171840Y246202D01*
X170085Y250438D01*
X170085Y255022D01*
X171840Y259258D01*
X175082Y262500D01*
X179318Y264255D01*
X183902Y264255D01*
X188138Y262500D01*
X191380Y259258D01*
X193135Y255022D01*
X193135Y250438D01*
X191380Y246202D01*
X188138Y242960D01*
X183902Y241205D01*
X179318Y241205D01*
G37*
%LPD*%
%LPC*%
G36*
X139948Y751745D02*
X139948Y751745D01*
X135712Y753500D01*
X132470Y756742D01*
X130715Y760978D01*
X130715Y765562D01*
X132470Y769798D01*
X135712Y773040D01*
X139948Y774795D01*
X144532Y774795D01*
X148768Y773040D01*
X152010Y769798D01*
X153765Y765562D01*
X153765Y760978D01*
X152010Y756742D01*
X148768Y753500D01*
X144532Y751745D01*
X139948Y751745D01*
G37*
%LPD*%
%LPC*%
G36*
X292348Y751745D02*
X292348Y751745D01*
X288112Y753500D01*
X284870Y756742D01*
X283115Y760978D01*
X283115Y765562D01*
X284870Y769798D01*
X288112Y773040D01*
X292348Y774795D01*
X296932Y774795D01*
X301168Y773040D01*
X304410Y769798D01*
X306165Y765562D01*
X306165Y760978D01*
X304410Y756742D01*
X301168Y753500D01*
X296932Y751745D01*
X292348Y751745D01*
G37*
%LPD*%
%LPC*%
G36*
X207029Y58575D02*
X207029Y58575D01*
X202793Y60330D01*
X199551Y63572D01*
X197796Y67808D01*
X197796Y72392D01*
X199551Y76628D01*
X202793Y79870D01*
X207029Y81625D01*
X211613Y81625D01*
X215849Y79870D01*
X219091Y76628D01*
X220846Y72392D01*
X220846Y67808D01*
X219091Y63572D01*
X215849Y60330D01*
X211613Y58575D01*
X207029Y58575D01*
G37*
%LPD*%
%LPC*%
G36*
X454908Y208185D02*
X454908Y208185D01*
X450672Y209940D01*
X447430Y213182D01*
X445675Y217418D01*
X445675Y222002D01*
X447430Y226238D01*
X450672Y229480D01*
X454908Y231235D01*
X459492Y231235D01*
X463728Y229480D01*
X466970Y226238D01*
X468725Y222002D01*
X468725Y217418D01*
X466970Y213182D01*
X463728Y209940D01*
X459492Y208185D01*
X454908Y208185D01*
G37*
%LPD*%
%LPC*%
G36*
X103118Y266605D02*
X103118Y266605D01*
X98882Y268360D01*
X95640Y271602D01*
X93885Y275838D01*
X93885Y280422D01*
X95640Y284658D01*
X98882Y287900D01*
X103118Y289655D01*
X107702Y289655D01*
X111938Y287900D01*
X115180Y284658D01*
X116935Y280422D01*
X116935Y275838D01*
X115180Y271602D01*
X111938Y268360D01*
X107702Y266605D01*
X103118Y266605D01*
G37*
%LPD*%
%LPC*%
G36*
X179318Y266605D02*
X179318Y266605D01*
X175082Y268360D01*
X171840Y271602D01*
X170085Y275838D01*
X170085Y280422D01*
X171840Y284658D01*
X175082Y287900D01*
X179318Y289655D01*
X183902Y289655D01*
X188138Y287900D01*
X191380Y284658D01*
X193135Y280422D01*
X193135Y275838D01*
X191380Y271602D01*
X188138Y268360D01*
X183902Y266605D01*
X179318Y266605D01*
G37*
%LPD*%
%LPC*%
G36*
X454908Y385985D02*
X454908Y385985D01*
X450672Y387740D01*
X447430Y390982D01*
X445675Y395218D01*
X445675Y399802D01*
X447430Y404038D01*
X450672Y407280D01*
X454908Y409035D01*
X459492Y409035D01*
X463728Y407280D01*
X466970Y404038D01*
X468725Y399802D01*
X468725Y395218D01*
X466970Y390982D01*
X463728Y387740D01*
X459492Y385985D01*
X454908Y385985D01*
G37*
%LPD*%
%LPC*%
G36*
X317748Y751745D02*
X317748Y751745D01*
X313512Y753500D01*
X310270Y756742D01*
X308515Y760978D01*
X308515Y765562D01*
X310270Y769798D01*
X313512Y773040D01*
X317748Y774795D01*
X322332Y774795D01*
X326568Y773040D01*
X329810Y769798D01*
X331565Y765562D01*
X331565Y760978D01*
X329810Y756742D01*
X326568Y753500D01*
X322332Y751745D01*
X317748Y751745D01*
G37*
%LPD*%
%LPC*%
G36*
X103118Y368205D02*
X103118Y368205D01*
X98882Y369960D01*
X95640Y373202D01*
X93885Y377438D01*
X93885Y382022D01*
X95640Y386258D01*
X98882Y389500D01*
X103118Y391255D01*
X107702Y391255D01*
X111938Y389500D01*
X115180Y386258D01*
X116935Y382022D01*
X116935Y377438D01*
X115180Y373202D01*
X111938Y369960D01*
X107702Y368205D01*
X103118Y368205D01*
G37*
%LPD*%
%LPC*%
G36*
X454908Y665385D02*
X454908Y665385D01*
X450672Y667140D01*
X447430Y670382D01*
X445675Y674618D01*
X445675Y679202D01*
X447430Y683438D01*
X450672Y686680D01*
X454908Y688435D01*
X459492Y688435D01*
X463728Y686680D01*
X466970Y683438D01*
X468725Y679202D01*
X468725Y674618D01*
X466970Y670382D01*
X463728Y667140D01*
X459492Y665385D01*
X454908Y665385D01*
G37*
%LPD*%
%LPC*%
G36*
X179318Y292005D02*
X179318Y292005D01*
X175082Y293760D01*
X171840Y297002D01*
X170085Y301238D01*
X170085Y305822D01*
X171840Y310058D01*
X175082Y313300D01*
X179318Y315055D01*
X183902Y315055D01*
X188138Y313300D01*
X191380Y310058D01*
X193135Y305822D01*
X193135Y301238D01*
X191380Y297002D01*
X188138Y293760D01*
X183902Y292005D01*
X179318Y292005D01*
G37*
%LPD*%
%LPC*%
G36*
X103118Y342805D02*
X103118Y342805D01*
X98882Y344560D01*
X95640Y347802D01*
X93885Y352038D01*
X93885Y356622D01*
X95640Y360858D01*
X98882Y364100D01*
X103118Y365855D01*
X107702Y365855D01*
X111938Y364100D01*
X115180Y360858D01*
X116935Y356622D01*
X116935Y352038D01*
X115180Y347802D01*
X111938Y344560D01*
X107702Y342805D01*
X103118Y342805D01*
G37*
%LPD*%
%LPC*%
G36*
X349498Y167545D02*
X349498Y167545D01*
X345262Y169300D01*
X342020Y172542D01*
X340265Y176778D01*
X340265Y181362D01*
X342020Y185598D01*
X345262Y188840D01*
X349498Y190595D01*
X354082Y190595D01*
X358318Y188840D01*
X361560Y185598D01*
X363315Y181362D01*
X363315Y176778D01*
X361560Y172542D01*
X358318Y169300D01*
X354082Y167545D01*
X349498Y167545D01*
G37*
%LPD*%
%LPC*%
G36*
X429508Y233585D02*
X429508Y233585D01*
X425272Y235340D01*
X422030Y238582D01*
X420275Y242818D01*
X420275Y247402D01*
X422030Y251638D01*
X425272Y254880D01*
X429508Y256635D01*
X434092Y256635D01*
X438328Y254880D01*
X441570Y251638D01*
X443325Y247402D01*
X443325Y242818D01*
X441570Y238582D01*
X438328Y235340D01*
X434092Y233585D01*
X429508Y233585D01*
G37*
%LPD*%
%LPC*%
G36*
X103118Y292005D02*
X103118Y292005D01*
X98882Y293760D01*
X95640Y297002D01*
X93885Y301238D01*
X93885Y305822D01*
X95640Y310058D01*
X98882Y313300D01*
X103118Y315055D01*
X107702Y315055D01*
X111938Y313300D01*
X115180Y310058D01*
X116935Y305822D01*
X116935Y301238D01*
X115180Y297002D01*
X111938Y293760D01*
X107702Y292005D01*
X103118Y292005D01*
G37*
%LPD*%
%LPC*%
G36*
X266948Y751745D02*
X266948Y751745D01*
X262712Y753500D01*
X259470Y756742D01*
X257715Y760978D01*
X257715Y765562D01*
X259470Y769798D01*
X262712Y773040D01*
X266948Y774795D01*
X271532Y774795D01*
X275768Y773040D01*
X279010Y769798D01*
X280765Y765562D01*
X280765Y760978D01*
X279010Y756742D01*
X275768Y753500D01*
X271532Y751745D01*
X266948Y751745D01*
G37*
%LPD*%
%LPC*%
G36*
X146298Y167545D02*
X146298Y167545D01*
X142062Y169300D01*
X138820Y172542D01*
X137065Y176778D01*
X137065Y181362D01*
X138820Y185598D01*
X142062Y188840D01*
X146298Y190595D01*
X150882Y190595D01*
X155118Y188840D01*
X158360Y185598D01*
X160115Y181362D01*
X160115Y176778D01*
X158360Y172542D01*
X155118Y169300D01*
X150882Y167545D01*
X146298Y167545D01*
G37*
%LPD*%
%LPC*%
G36*
X324098Y167545D02*
X324098Y167545D01*
X319862Y169300D01*
X316620Y172542D01*
X314865Y176778D01*
X314865Y181362D01*
X316620Y185598D01*
X319862Y188840D01*
X324098Y190595D01*
X328682Y190595D01*
X332918Y188840D01*
X336160Y185598D01*
X337915Y181362D01*
X337915Y176778D01*
X336160Y172542D01*
X332918Y169300D01*
X328682Y167545D01*
X324098Y167545D01*
G37*
%LPD*%
%LPC*%
G36*
X429508Y639985D02*
X429508Y639985D01*
X425272Y641740D01*
X422030Y644982D01*
X420275Y649218D01*
X420275Y653802D01*
X422030Y658038D01*
X425272Y661280D01*
X429508Y663035D01*
X434092Y663035D01*
X438328Y661280D01*
X441570Y658038D01*
X443325Y653802D01*
X443325Y649218D01*
X441570Y644982D01*
X438328Y641740D01*
X434092Y639985D01*
X429508Y639985D01*
G37*
%LPD*%
%LPC*%
G36*
X253876Y241807D02*
X253876Y241807D01*
X252983Y242700D01*
X252983Y260728D01*
X253876Y261621D01*
X271904Y261621D01*
X272797Y260728D01*
X272797Y242700D01*
X271904Y241807D01*
X253876Y241807D01*
G37*
%LPD*%
%LPC*%
G36*
X260919Y292607D02*
X260919Y292607D01*
X257278Y294116D01*
X254492Y296902D01*
X252983Y300543D01*
X252983Y304485D01*
X254491Y308126D01*
X257278Y310912D01*
X260919Y312421D01*
X264861Y312421D01*
X268502Y310912D01*
X271289Y308126D01*
X272797Y304485D01*
X272797Y300543D01*
X271288Y296902D01*
X268502Y294116D01*
X264861Y292607D01*
X260919Y292607D01*
G37*
%LPD*%
%LPC*%
G36*
X55179Y603503D02*
X55179Y603503D01*
X51538Y605012D01*
X48752Y607798D01*
X47243Y611439D01*
X47243Y615381D01*
X48752Y619022D01*
X51538Y621808D01*
X55179Y623317D01*
X59121Y623317D01*
X62762Y621808D01*
X65548Y619022D01*
X67057Y615381D01*
X67057Y611439D01*
X65548Y607798D01*
X62762Y605012D01*
X59121Y603503D01*
X55179Y603503D01*
G37*
%LPD*%
%LPC*%
G36*
X260919Y267207D02*
X260919Y267207D01*
X257278Y268716D01*
X254492Y271502D01*
X252983Y275143D01*
X252983Y279085D01*
X254492Y282726D01*
X257278Y285512D01*
X260919Y287021D01*
X264861Y287021D01*
X268502Y285512D01*
X271288Y282726D01*
X272797Y279085D01*
X272797Y275143D01*
X271288Y271502D01*
X268502Y268716D01*
X264861Y267207D01*
X260919Y267207D01*
G37*
%LPD*%
%LPC*%
G36*
X260919Y318007D02*
X260919Y318007D01*
X257278Y319516D01*
X254492Y322302D01*
X252983Y325943D01*
X252983Y329885D01*
X254492Y333526D01*
X257278Y336312D01*
X260919Y337821D01*
X264861Y337821D01*
X268502Y336312D01*
X271288Y333526D01*
X272797Y329885D01*
X272797Y325943D01*
X271288Y322302D01*
X268502Y319516D01*
X264861Y318007D01*
X260919Y318007D01*
G37*
%LPD*%
%LPC*%
G36*
X349090Y243807D02*
X349090Y243807D01*
X349090Y259399D01*
X349470Y259339D01*
X350991Y258844D01*
X352416Y258118D01*
X353710Y257178D01*
X354841Y256047D01*
X355781Y254753D01*
X356507Y253328D01*
X357002Y251807D01*
X357252Y250228D01*
X357252Y243807D01*
X349090Y243807D01*
G37*
%LPD*%
%LPC*%
G36*
X349090Y416781D02*
X349090Y416781D01*
X349090Y432373D01*
X349470Y432313D01*
X350991Y431818D01*
X352416Y431092D01*
X353710Y430152D01*
X354841Y429021D01*
X355781Y427727D01*
X356507Y426302D01*
X357002Y424781D01*
X357252Y423202D01*
X357252Y416781D01*
X349090Y416781D01*
G37*
%LPD*%
%LPC*%
G36*
X349090Y412783D02*
X349090Y412783D01*
X357252Y412783D01*
X357252Y406362D01*
X357197Y406018D01*
X357002Y404783D01*
X356507Y403262D01*
X355781Y401837D01*
X354841Y400543D01*
X353710Y399412D01*
X352416Y398472D01*
X350991Y397746D01*
X349470Y397251D01*
X349090Y397191D01*
X349090Y412783D01*
G37*
%LPD*%
%LPC*%
G36*
X349090Y239809D02*
X349090Y239809D01*
X357252Y239809D01*
X357252Y233388D01*
X357002Y231809D01*
X356507Y230288D01*
X355781Y228863D01*
X354841Y227569D01*
X353710Y226438D01*
X352416Y225498D01*
X350991Y224772D01*
X349470Y224277D01*
X349090Y224217D01*
X349090Y239809D01*
G37*
%LPD*%
%LPC*%
G36*
X336930Y243807D02*
X336930Y243807D01*
X336930Y250228D01*
X337025Y250826D01*
X337180Y251807D01*
X337675Y253328D01*
X338401Y254753D01*
X339341Y256047D01*
X340472Y257178D01*
X341766Y258118D01*
X343191Y258844D01*
X344712Y259339D01*
X345092Y259399D01*
X345092Y243807D01*
X336930Y243807D01*
G37*
%LPD*%
%LPC*%
G36*
X336930Y416781D02*
X336930Y416781D01*
X336930Y423202D01*
X337009Y423696D01*
X337180Y424781D01*
X337675Y426302D01*
X338401Y427727D01*
X339341Y429021D01*
X340472Y430152D01*
X341766Y431092D01*
X343191Y431818D01*
X344712Y432313D01*
X345092Y432373D01*
X345092Y416781D01*
X336930Y416781D01*
G37*
%LPD*%
%LPC*%
G36*
X344712Y224277D02*
X344712Y224277D01*
X343191Y224772D01*
X341766Y225498D01*
X340472Y226438D01*
X339341Y227569D01*
X338401Y228863D01*
X337675Y230288D01*
X337180Y231809D01*
X336930Y233388D01*
X336930Y239809D01*
X345092Y239809D01*
X345092Y224217D01*
X344712Y224277D01*
G37*
%LPD*%
%LPC*%
G36*
X344712Y397251D02*
X344712Y397251D01*
X343191Y397746D01*
X341766Y398472D01*
X340472Y399412D01*
X339341Y400543D01*
X338401Y401837D01*
X337675Y403262D01*
X337180Y404783D01*
X336930Y406362D01*
X336930Y412783D01*
X345092Y412783D01*
X345092Y397191D01*
X344712Y397251D01*
G37*
%LPD*%
%LPC*%
G36*
X125944Y629693D02*
X125944Y629693D01*
X123994Y630501D01*
X122501Y631994D01*
X121693Y633944D01*
X121693Y636056D01*
X122501Y638006D01*
X123994Y639499D01*
X125944Y640307D01*
X128056Y640307D01*
X130006Y639499D01*
X131499Y638006D01*
X132307Y636056D01*
X132307Y633944D01*
X131499Y631994D01*
X130006Y630501D01*
X128056Y629693D01*
X125944Y629693D01*
G37*
%LPD*%
%LPC*%
G36*
X292618Y72099D02*
X292618Y72099D01*
X292618Y82480D01*
X293556Y82332D01*
X295433Y81722D01*
X297192Y80826D01*
X298789Y79665D01*
X300184Y78270D01*
X301345Y76673D01*
X302241Y74914D01*
X302851Y73037D01*
X302999Y72099D01*
X292618Y72099D01*
G37*
%LPD*%
%LPC*%
G36*
X201389Y181069D02*
X201389Y181069D01*
X201389Y191450D01*
X202327Y191302D01*
X204204Y190692D01*
X205963Y189796D01*
X207560Y188635D01*
X208955Y187240D01*
X210116Y185643D01*
X211012Y183884D01*
X211622Y182007D01*
X211770Y181069D01*
X201389Y181069D01*
G37*
%LPD*%
%LPC*%
G36*
X183609Y407129D02*
X183609Y407129D01*
X183609Y417510D01*
X184547Y417362D01*
X186424Y416752D01*
X188183Y415856D01*
X189780Y414695D01*
X191175Y413300D01*
X192336Y411703D01*
X193232Y409944D01*
X193842Y408067D01*
X193990Y407129D01*
X183609Y407129D01*
G37*
%LPD*%
%LPC*%
G36*
X160520Y72099D02*
X160520Y72099D01*
X160520Y82480D01*
X161458Y82332D01*
X163335Y81722D01*
X165094Y80826D01*
X166691Y79665D01*
X168086Y78270D01*
X169247Y76673D01*
X170143Y74914D01*
X170753Y73037D01*
X170901Y72099D01*
X160520Y72099D01*
G37*
%LPD*%
%LPC*%
G36*
X160520Y68101D02*
X160520Y68101D01*
X170901Y68101D01*
X170753Y67163D01*
X170143Y65286D01*
X169247Y63527D01*
X168086Y61930D01*
X166691Y60535D01*
X165094Y59374D01*
X163335Y58478D01*
X161458Y57868D01*
X160520Y57720D01*
X160520Y68101D01*
G37*
%LPD*%
%LPC*%
G36*
X292618Y68101D02*
X292618Y68101D01*
X302999Y68101D01*
X302851Y67163D01*
X302241Y65286D01*
X301345Y63527D01*
X300184Y61930D01*
X298789Y60535D01*
X297192Y59374D01*
X295433Y58478D01*
X293556Y57868D01*
X292618Y57720D01*
X292618Y68101D01*
G37*
%LPD*%
%LPC*%
G36*
X278239Y72099D02*
X278239Y72099D01*
X278387Y73037D01*
X278997Y74914D01*
X279893Y76673D01*
X281054Y78270D01*
X282449Y79665D01*
X284046Y80826D01*
X285805Y81722D01*
X287682Y82332D01*
X288620Y82480D01*
X288620Y72099D01*
X278239Y72099D01*
G37*
%LPD*%
%LPC*%
G36*
X146141Y72099D02*
X146141Y72099D01*
X146289Y73037D01*
X146899Y74914D01*
X147795Y76673D01*
X148956Y78270D01*
X150351Y79665D01*
X151948Y80826D01*
X153707Y81722D01*
X155584Y82332D01*
X156522Y82480D01*
X156522Y72099D01*
X146141Y72099D01*
G37*
%LPD*%
%LPC*%
G36*
X169230Y407129D02*
X169230Y407129D01*
X169378Y408067D01*
X169988Y409944D01*
X170884Y411703D01*
X172045Y413300D01*
X173440Y414695D01*
X175037Y415856D01*
X176796Y416752D01*
X178673Y417362D01*
X179611Y417510D01*
X179611Y407129D01*
X169230Y407129D01*
G37*
%LPD*%
%LPC*%
G36*
X201389Y177071D02*
X201389Y177071D01*
X211770Y177071D01*
X211631Y176190D01*
X211622Y176133D01*
X211012Y174256D01*
X210116Y172497D01*
X208955Y170900D01*
X207560Y169505D01*
X205963Y168344D01*
X204204Y167448D01*
X202327Y166838D01*
X201389Y166690D01*
X201389Y177071D01*
G37*
%LPD*%
%LPC*%
G36*
X428863Y182078D02*
X428863Y182078D01*
X426986Y182688D01*
X425227Y183584D01*
X423630Y184745D01*
X422235Y186140D01*
X421074Y187737D01*
X420178Y189496D01*
X419568Y191373D01*
X419420Y192311D01*
X429801Y192311D01*
X429801Y181930D01*
X428863Y182078D01*
G37*
%LPD*%
%LPC*%
G36*
X155584Y57868D02*
X155584Y57868D01*
X153707Y58478D01*
X151948Y59374D01*
X150351Y60535D01*
X148956Y61930D01*
X147795Y63527D01*
X146899Y65286D01*
X146289Y67163D01*
X146141Y68101D01*
X156522Y68101D01*
X156522Y57720D01*
X155584Y57868D01*
G37*
%LPD*%
%LPC*%
G36*
X287682Y57868D02*
X287682Y57868D01*
X285805Y58478D01*
X284046Y59374D01*
X282449Y60535D01*
X281054Y61930D01*
X279893Y63527D01*
X278997Y65286D01*
X278387Y67163D01*
X278239Y68101D01*
X288620Y68101D01*
X288620Y57720D01*
X287682Y57868D01*
G37*
%LPD*%
%LPC*%
G36*
X59149Y590009D02*
X59149Y590009D01*
X59149Y598752D01*
X59708Y598664D01*
X61343Y598133D01*
X62875Y597352D01*
X64266Y596341D01*
X65481Y595126D01*
X66492Y593735D01*
X67273Y592203D01*
X67804Y590568D01*
X67892Y590009D01*
X59149Y590009D01*
G37*
%LPD*%
%LPC*%
G36*
X264889Y355313D02*
X264889Y355313D01*
X264889Y364056D01*
X265448Y363968D01*
X267083Y363437D01*
X268615Y362656D01*
X270006Y361645D01*
X271221Y360430D01*
X272232Y359039D01*
X273013Y357507D01*
X273544Y355872D01*
X273632Y355313D01*
X264889Y355313D01*
G37*
%LPD*%
%LPC*%
G36*
X264889Y351315D02*
X264889Y351315D01*
X273632Y351315D01*
X273592Y351059D01*
X273544Y350756D01*
X273013Y349121D01*
X272232Y347589D01*
X271221Y346198D01*
X270006Y344983D01*
X268615Y343972D01*
X267083Y343191D01*
X265448Y342660D01*
X264889Y342572D01*
X264889Y351315D01*
G37*
%LPD*%
%LPC*%
G36*
X252148Y355313D02*
X252148Y355313D01*
X252236Y355872D01*
X252767Y357507D01*
X253548Y359039D01*
X254559Y360430D01*
X255774Y361645D01*
X257165Y362656D01*
X258697Y363437D01*
X260332Y363968D01*
X260891Y364056D01*
X260891Y355313D01*
X252148Y355313D01*
G37*
%LPD*%
%LPC*%
G36*
X59149Y586011D02*
X59149Y586011D01*
X67892Y586011D01*
X67804Y585452D01*
X67273Y583817D01*
X66492Y582285D01*
X65481Y580894D01*
X64266Y579679D01*
X62875Y578668D01*
X61343Y577887D01*
X59708Y577356D01*
X59149Y577268D01*
X59149Y586011D01*
G37*
%LPD*%
%LPC*%
G36*
X46408Y590009D02*
X46408Y590009D01*
X46496Y590568D01*
X47027Y592203D01*
X47808Y593735D01*
X48819Y595126D01*
X50034Y596341D01*
X51425Y597352D01*
X52957Y598133D01*
X54592Y598664D01*
X55151Y598752D01*
X55151Y590009D01*
X46408Y590009D01*
G37*
%LPD*%
%LPC*%
G36*
X260332Y342660D02*
X260332Y342660D01*
X258697Y343191D01*
X257165Y343972D01*
X255774Y344983D01*
X254559Y346198D01*
X253548Y347589D01*
X252767Y349121D01*
X252236Y350756D01*
X252148Y351315D01*
X260891Y351315D01*
X260891Y342572D01*
X260332Y342660D01*
G37*
%LPD*%
%LPC*%
G36*
X54592Y577356D02*
X54592Y577356D01*
X52957Y577887D01*
X51425Y578668D01*
X50034Y579679D01*
X48819Y580894D01*
X47808Y582285D01*
X47027Y583817D01*
X46496Y585452D01*
X46408Y586011D01*
X55151Y586011D01*
X55151Y577268D01*
X54592Y577356D01*
G37*
%LPD*%
%LPC*%
G36*
X290618Y70099D02*
X290618Y70099D01*
X290618Y70101D01*
X290620Y70101D01*
X290620Y70099D01*
X290618Y70099D01*
G37*
%LPD*%
%LPC*%
G36*
X158520Y70099D02*
X158520Y70099D01*
X158520Y70101D01*
X158522Y70101D01*
X158522Y70099D01*
X158520Y70099D01*
G37*
%LPD*%
%LPC*%
G36*
X57149Y588009D02*
X57149Y588009D01*
X57149Y588011D01*
X57151Y588011D01*
X57151Y588009D01*
X57149Y588009D01*
G37*
%LPD*%
%LPC*%
G36*
X262889Y353313D02*
X262889Y353313D01*
X262889Y353315D01*
X262891Y353315D01*
X262891Y353313D01*
X262889Y353313D01*
G37*
%LPD*%
%LPC*%
G36*
X347090Y414781D02*
X347090Y414781D01*
X347090Y414783D01*
X347092Y414783D01*
X347092Y414781D01*
X347090Y414781D01*
G37*
%LPD*%
%LPC*%
G36*
X347090Y241807D02*
X347090Y241807D01*
X347090Y241809D01*
X347092Y241809D01*
X347092Y241807D01*
X347090Y241807D01*
G37*
%LPD*%
D10*
X290619Y70100D03*
X341419Y70100D03*
X158521Y70100D03*
X209321Y70100D03*
X351790Y179070D03*
X326390Y179070D03*
X199390Y179070D03*
X173990Y179070D03*
X148590Y179070D03*
D11*
X347091Y299212D02*
X347091Y314452D01*
X301879Y314452D02*
X301879Y299212D01*
X347091Y249428D02*
X347091Y234188D01*
X301879Y234188D02*
X301879Y249428D01*
D12*
X57150Y638810D03*
D13*
X57150Y613410D03*
X57150Y588010D03*
X57150Y562610D03*
X57150Y537210D03*
D12*
X262890Y251714D03*
D13*
X262890Y277114D03*
X262890Y302514D03*
X262890Y327914D03*
X262890Y353314D03*
D12*
X405130Y370840D03*
D13*
X405130Y345440D03*
X405130Y320040D03*
X405130Y294640D03*
X405130Y269240D03*
D14*
X431800Y676910D03*
D10*
X457200Y676910D03*
X431800Y651510D03*
X457200Y651510D03*
X431800Y626110D03*
X457200Y626110D03*
X431800Y600710D03*
X457200Y600710D03*
X431800Y575310D03*
X457200Y575310D03*
X431800Y549910D03*
X457200Y549910D03*
X431800Y524510D03*
X457200Y524510D03*
X431800Y499110D03*
X457200Y499110D03*
X431800Y473710D03*
X457200Y473710D03*
X431800Y448310D03*
X457200Y448310D03*
X431800Y422910D03*
X457200Y422910D03*
X431800Y397510D03*
X457200Y397510D03*
X431800Y372110D03*
X457200Y372110D03*
X431800Y346710D03*
X457200Y346710D03*
X431800Y321310D03*
X457200Y321310D03*
X431800Y295910D03*
X457200Y295910D03*
X431800Y270510D03*
X457200Y270510D03*
X431800Y245110D03*
X457200Y245110D03*
X431800Y219710D03*
X457200Y219710D03*
X431800Y194310D03*
X457200Y194310D03*
X320040Y763270D03*
X294640Y763270D03*
X269240Y763270D03*
X243840Y763270D03*
X218440Y763270D03*
X193040Y763270D03*
X167640Y763270D03*
X142240Y763270D03*
D14*
X345440Y763270D03*
D10*
X105410Y252730D03*
X105410Y278130D03*
X105410Y303530D03*
X105410Y328930D03*
X105410Y354330D03*
X105410Y379730D03*
D14*
X105410Y405130D03*
D10*
X181610Y252730D03*
X181610Y278130D03*
X181610Y303530D03*
X181610Y328930D03*
X181610Y354330D03*
X181610Y379730D03*
X181610Y405130D03*
D11*
X347091Y407162D02*
X347091Y422402D01*
X301879Y422402D02*
X301879Y407162D01*
X347091Y357378D02*
X347091Y342138D01*
X301879Y342138D02*
X301879Y357378D01*
D15*
X76200Y482600D03*
X38100Y482600D03*
X381000Y215900D03*
D16*
X25400Y215900D02*
X11660Y229640D01*
X11660Y456160D01*
X38100Y482600D01*
X25400Y215900D02*
X381000Y215900D01*
D17*
X241935Y761365D02*
X243840Y763270D01*
D15*
X101600Y673100D03*
D16*
X153670Y673100D01*
X241935Y761365D01*
X63500Y370840D02*
X105410Y328930D01*
X63500Y482600D02*
X25400Y520700D01*
X25400Y622300D01*
X41910Y638810D02*
X57150Y638810D01*
X63500Y482600D02*
X63500Y370840D01*
X25400Y622300D02*
X41910Y638810D01*
D15*
X127000Y635000D03*
D16*
X135890Y562610D02*
X57150Y562610D01*
X135890Y562610D02*
X241300Y457200D01*
X241300Y439420D02*
X237490Y435610D01*
X181610Y379730D01*
X241300Y439420D02*
X241300Y457200D01*
X237490Y435610D02*
X281051Y435610D01*
X301879Y414782D01*
D17*
X181610Y354330D02*
X179070Y354330D01*
X88900Y520700D02*
X76200Y533400D01*
D16*
X72390Y537210D02*
X57150Y537210D01*
X72390Y537210D02*
X76200Y533400D01*
X101600Y508000D01*
X101600Y444500D01*
X127000Y419100D01*
X127000Y381000D01*
X153670Y354330D01*
X179070Y354330D01*
D18*
X457200Y575310D02*
X466090Y575310D01*
X482600Y558800D01*
X482600Y127000D01*
D15*
X39370Y132080D03*
D16*
X109220Y132080D01*
X127000Y114300D01*
X469900Y114300D01*
X482600Y127000D01*
D18*
X457200Y600710D02*
X482600Y626110D01*
X482600Y685800D01*
X469900Y698500D01*
X405130Y684530D02*
X405130Y370840D01*
X419100Y698500D02*
X469900Y698500D01*
X419100Y698500D02*
X405130Y684530D01*
X406400Y346710D02*
X405130Y345440D01*
X406400Y346710D02*
X431800Y346710D01*
X406400Y321310D02*
X405130Y320040D01*
X406400Y321310D02*
X431800Y321310D01*
X406400Y295910D02*
X405130Y294640D01*
X406400Y295910D02*
X431800Y295910D01*
X406400Y270510D02*
X405130Y269240D01*
X406400Y270510D02*
X431800Y270510D01*
M02*
