G04 EAGLE Gerber RS-274X export*
G75*
%MOMM*%
%FSLAX34Y34*%
%LPD*%
%IN*%
%IPPOS*%
%AMOC8*
5,1,8,0,0,1.08239X$1,22.5*%
G01*
%ADD10C,0.254000*%


D10*
X0Y0D02*
X500000Y0D01*
X500000Y800000D01*
X0Y800000D01*
X0Y0D01*
X65200Y749476D02*
X65132Y748431D01*
X64995Y747392D01*
X64790Y746365D01*
X64519Y745353D01*
X64183Y744361D01*
X63782Y743393D01*
X63318Y742454D01*
X62795Y741546D01*
X62213Y740675D01*
X61575Y739844D01*
X60884Y739057D01*
X60143Y738316D01*
X59356Y737625D01*
X58525Y736988D01*
X57654Y736406D01*
X56746Y735882D01*
X55807Y735418D01*
X54839Y735017D01*
X53847Y734681D01*
X52835Y734410D01*
X51808Y734205D01*
X50769Y734069D01*
X49724Y734000D01*
X48676Y734000D01*
X47631Y734069D01*
X46592Y734205D01*
X45565Y734410D01*
X44553Y734681D01*
X43561Y735017D01*
X42593Y735418D01*
X41654Y735882D01*
X40746Y736406D01*
X39875Y736988D01*
X39044Y737625D01*
X38257Y738316D01*
X37516Y739057D01*
X36825Y739844D01*
X36188Y740675D01*
X35606Y741546D01*
X35082Y742454D01*
X34618Y743393D01*
X34217Y744361D01*
X33881Y745353D01*
X33610Y746365D01*
X33405Y747392D01*
X33269Y748431D01*
X33200Y749476D01*
X33200Y750524D01*
X33269Y751569D01*
X33405Y752608D01*
X33610Y753635D01*
X33881Y754647D01*
X34217Y755639D01*
X34618Y756607D01*
X35082Y757546D01*
X35606Y758454D01*
X36188Y759325D01*
X36825Y760156D01*
X37516Y760943D01*
X38257Y761684D01*
X39044Y762375D01*
X39875Y763013D01*
X40746Y763595D01*
X41654Y764118D01*
X42593Y764582D01*
X43561Y764983D01*
X44553Y765319D01*
X45565Y765590D01*
X46592Y765795D01*
X47631Y765932D01*
X48676Y766000D01*
X49724Y766000D01*
X50769Y765932D01*
X51808Y765795D01*
X52835Y765590D01*
X53847Y765319D01*
X54839Y764983D01*
X55807Y764582D01*
X56746Y764118D01*
X57654Y763595D01*
X58525Y763013D01*
X59356Y762375D01*
X60143Y761684D01*
X60884Y760943D01*
X61575Y760156D01*
X62213Y759325D01*
X62795Y758454D01*
X63318Y757546D01*
X63782Y756607D01*
X64183Y755639D01*
X64519Y754647D01*
X64790Y753635D01*
X64995Y752608D01*
X65132Y751569D01*
X65200Y750524D01*
X65200Y749476D01*
X65200Y49476D02*
X65132Y48431D01*
X64995Y47392D01*
X64790Y46365D01*
X64519Y45353D01*
X64183Y44361D01*
X63782Y43393D01*
X63318Y42454D01*
X62795Y41546D01*
X62213Y40675D01*
X61575Y39844D01*
X60884Y39057D01*
X60143Y38316D01*
X59356Y37625D01*
X58525Y36988D01*
X57654Y36406D01*
X56746Y35882D01*
X55807Y35418D01*
X54839Y35017D01*
X53847Y34681D01*
X52835Y34410D01*
X51808Y34205D01*
X50769Y34069D01*
X49724Y34000D01*
X48676Y34000D01*
X47631Y34069D01*
X46592Y34205D01*
X45565Y34410D01*
X44553Y34681D01*
X43561Y35017D01*
X42593Y35418D01*
X41654Y35882D01*
X40746Y36406D01*
X39875Y36988D01*
X39044Y37625D01*
X38257Y38316D01*
X37516Y39057D01*
X36825Y39844D01*
X36188Y40675D01*
X35606Y41546D01*
X35082Y42454D01*
X34618Y43393D01*
X34217Y44361D01*
X33881Y45353D01*
X33610Y46365D01*
X33405Y47392D01*
X33269Y48431D01*
X33200Y49476D01*
X33200Y50524D01*
X33269Y51569D01*
X33405Y52608D01*
X33610Y53635D01*
X33881Y54647D01*
X34217Y55639D01*
X34618Y56607D01*
X35082Y57546D01*
X35606Y58454D01*
X36188Y59325D01*
X36825Y60156D01*
X37516Y60943D01*
X38257Y61684D01*
X39044Y62375D01*
X39875Y63013D01*
X40746Y63595D01*
X41654Y64118D01*
X42593Y64582D01*
X43561Y64983D01*
X44553Y65319D01*
X45565Y65590D01*
X46592Y65795D01*
X47631Y65932D01*
X48676Y66000D01*
X49724Y66000D01*
X50769Y65932D01*
X51808Y65795D01*
X52835Y65590D01*
X53847Y65319D01*
X54839Y64983D01*
X55807Y64582D01*
X56746Y64118D01*
X57654Y63595D01*
X58525Y63013D01*
X59356Y62375D01*
X60143Y61684D01*
X60884Y60943D01*
X61575Y60156D01*
X62213Y59325D01*
X62795Y58454D01*
X63318Y57546D01*
X63782Y56607D01*
X64183Y55639D01*
X64519Y54647D01*
X64790Y53635D01*
X64995Y52608D01*
X65132Y51569D01*
X65200Y50524D01*
X65200Y49476D01*
X465200Y49476D02*
X465132Y48431D01*
X464995Y47392D01*
X464790Y46365D01*
X464519Y45353D01*
X464183Y44361D01*
X463782Y43393D01*
X463318Y42454D01*
X462795Y41546D01*
X462213Y40675D01*
X461575Y39844D01*
X460884Y39057D01*
X460143Y38316D01*
X459356Y37625D01*
X458525Y36988D01*
X457654Y36406D01*
X456746Y35882D01*
X455807Y35418D01*
X454839Y35017D01*
X453847Y34681D01*
X452835Y34410D01*
X451808Y34205D01*
X450769Y34069D01*
X449724Y34000D01*
X448676Y34000D01*
X447631Y34069D01*
X446592Y34205D01*
X445565Y34410D01*
X444553Y34681D01*
X443561Y35017D01*
X442593Y35418D01*
X441654Y35882D01*
X440746Y36406D01*
X439875Y36988D01*
X439044Y37625D01*
X438257Y38316D01*
X437516Y39057D01*
X436825Y39844D01*
X436188Y40675D01*
X435606Y41546D01*
X435082Y42454D01*
X434618Y43393D01*
X434217Y44361D01*
X433881Y45353D01*
X433610Y46365D01*
X433405Y47392D01*
X433269Y48431D01*
X433200Y49476D01*
X433200Y50524D01*
X433269Y51569D01*
X433405Y52608D01*
X433610Y53635D01*
X433881Y54647D01*
X434217Y55639D01*
X434618Y56607D01*
X435082Y57546D01*
X435606Y58454D01*
X436188Y59325D01*
X436825Y60156D01*
X437516Y60943D01*
X438257Y61684D01*
X439044Y62375D01*
X439875Y63013D01*
X440746Y63595D01*
X441654Y64118D01*
X442593Y64582D01*
X443561Y64983D01*
X444553Y65319D01*
X445565Y65590D01*
X446592Y65795D01*
X447631Y65932D01*
X448676Y66000D01*
X449724Y66000D01*
X450769Y65932D01*
X451808Y65795D01*
X452835Y65590D01*
X453847Y65319D01*
X454839Y64983D01*
X455807Y64582D01*
X456746Y64118D01*
X457654Y63595D01*
X458525Y63013D01*
X459356Y62375D01*
X460143Y61684D01*
X460884Y60943D01*
X461575Y60156D01*
X462213Y59325D01*
X462795Y58454D01*
X463318Y57546D01*
X463782Y56607D01*
X464183Y55639D01*
X464519Y54647D01*
X464790Y53635D01*
X464995Y52608D01*
X465132Y51569D01*
X465200Y50524D01*
X465200Y49476D01*
X465200Y748676D02*
X465132Y747631D01*
X464995Y746592D01*
X464790Y745565D01*
X464519Y744553D01*
X464183Y743561D01*
X463782Y742593D01*
X463318Y741654D01*
X462795Y740746D01*
X462213Y739875D01*
X461575Y739044D01*
X460884Y738257D01*
X460143Y737516D01*
X459356Y736825D01*
X458525Y736188D01*
X457654Y735606D01*
X456746Y735082D01*
X455807Y734618D01*
X454839Y734217D01*
X453847Y733881D01*
X452835Y733610D01*
X451808Y733405D01*
X450769Y733269D01*
X449724Y733200D01*
X448676Y733200D01*
X447631Y733269D01*
X446592Y733405D01*
X445565Y733610D01*
X444553Y733881D01*
X443561Y734217D01*
X442593Y734618D01*
X441654Y735082D01*
X440746Y735606D01*
X439875Y736188D01*
X439044Y736825D01*
X438257Y737516D01*
X437516Y738257D01*
X436825Y739044D01*
X436188Y739875D01*
X435606Y740746D01*
X435082Y741654D01*
X434618Y742593D01*
X434217Y743561D01*
X433881Y744553D01*
X433610Y745565D01*
X433405Y746592D01*
X433269Y747631D01*
X433200Y748676D01*
X433200Y749724D01*
X433269Y750769D01*
X433405Y751808D01*
X433610Y752835D01*
X433881Y753847D01*
X434217Y754839D01*
X434618Y755807D01*
X435082Y756746D01*
X435606Y757654D01*
X436188Y758525D01*
X436825Y759356D01*
X437516Y760143D01*
X438257Y760884D01*
X439044Y761575D01*
X439875Y762213D01*
X440746Y762795D01*
X441654Y763318D01*
X442593Y763782D01*
X443561Y764183D01*
X444553Y764519D01*
X445565Y764790D01*
X446592Y764995D01*
X447631Y765132D01*
X448676Y765200D01*
X449724Y765200D01*
X450769Y765132D01*
X451808Y764995D01*
X452835Y764790D01*
X453847Y764519D01*
X454839Y764183D01*
X455807Y763782D01*
X456746Y763318D01*
X457654Y762795D01*
X458525Y762213D01*
X459356Y761575D01*
X460143Y760884D01*
X460884Y760143D01*
X461575Y759356D01*
X462213Y758525D01*
X462795Y757654D01*
X463318Y756746D01*
X463782Y755807D01*
X464183Y754839D01*
X464519Y753847D01*
X464790Y752835D01*
X464995Y751808D01*
X465132Y750769D01*
X465200Y749724D01*
X465200Y748676D01*
X344991Y457200D02*
X344096Y457270D01*
X343208Y457411D01*
X342335Y457621D01*
X341481Y457898D01*
X340651Y458242D01*
X339851Y458650D01*
X339085Y459119D01*
X338358Y459647D01*
X337675Y460230D01*
X337040Y460865D01*
X336457Y461548D01*
X335929Y462275D01*
X335460Y463041D01*
X335052Y463841D01*
X334708Y464671D01*
X334431Y465525D01*
X334221Y466398D01*
X334080Y467286D01*
X334010Y468181D01*
X334010Y469079D01*
X334080Y469975D01*
X334221Y470862D01*
X334431Y471735D01*
X334708Y472589D01*
X335052Y473419D01*
X335460Y474219D01*
X335929Y474985D01*
X336457Y475712D01*
X337040Y476395D01*
X337675Y477030D01*
X338358Y477613D01*
X339085Y478141D01*
X339851Y478610D01*
X340651Y479018D01*
X341481Y479362D01*
X342335Y479639D01*
X343208Y479849D01*
X344096Y479990D01*
X344991Y480060D01*
X345889Y480060D01*
X346785Y479990D01*
X347672Y479849D01*
X348545Y479639D01*
X349399Y479362D01*
X350229Y479018D01*
X351029Y478610D01*
X351795Y478141D01*
X352522Y477613D01*
X353205Y477030D01*
X353840Y476395D01*
X354423Y475712D01*
X354951Y474985D01*
X355420Y474219D01*
X355828Y473419D01*
X356172Y472589D01*
X356449Y471735D01*
X356659Y470862D01*
X356800Y469975D01*
X356870Y469079D01*
X356870Y468181D01*
X356800Y467286D01*
X356659Y466398D01*
X356449Y465525D01*
X356172Y464671D01*
X355828Y463841D01*
X355420Y463041D01*
X354951Y462275D01*
X354423Y461548D01*
X353840Y460865D01*
X353205Y460230D01*
X352522Y459647D01*
X351795Y459119D01*
X351029Y458650D01*
X350229Y458242D01*
X349399Y457898D01*
X348545Y457621D01*
X347672Y457411D01*
X346785Y457270D01*
X345889Y457200D01*
X344991Y457200D01*
X141791Y457200D02*
X140896Y457270D01*
X140008Y457411D01*
X139135Y457621D01*
X138281Y457898D01*
X137451Y458242D01*
X136651Y458650D01*
X135885Y459119D01*
X135158Y459647D01*
X134475Y460230D01*
X133840Y460865D01*
X133257Y461548D01*
X132729Y462275D01*
X132260Y463041D01*
X131852Y463841D01*
X131508Y464671D01*
X131231Y465525D01*
X131021Y466398D01*
X130880Y467286D01*
X130810Y468181D01*
X130810Y469079D01*
X130880Y469975D01*
X131021Y470862D01*
X131231Y471735D01*
X131508Y472589D01*
X131852Y473419D01*
X132260Y474219D01*
X132729Y474985D01*
X133257Y475712D01*
X133840Y476395D01*
X134475Y477030D01*
X135158Y477613D01*
X135885Y478141D01*
X136651Y478610D01*
X137451Y479018D01*
X138281Y479362D01*
X139135Y479639D01*
X140008Y479849D01*
X140896Y479990D01*
X141791Y480060D01*
X142689Y480060D01*
X143585Y479990D01*
X144472Y479849D01*
X145345Y479639D01*
X146199Y479362D01*
X147029Y479018D01*
X147829Y478610D01*
X148595Y478141D01*
X149322Y477613D01*
X150005Y477030D01*
X150640Y476395D01*
X151223Y475712D01*
X151751Y474985D01*
X152220Y474219D01*
X152628Y473419D01*
X152972Y472589D01*
X153249Y471735D01*
X153459Y470862D01*
X153600Y469975D01*
X153670Y469079D01*
X153670Y468181D01*
X153600Y467286D01*
X153459Y466398D01*
X153249Y465525D01*
X152972Y464671D01*
X152628Y463841D01*
X152220Y463041D01*
X151751Y462275D01*
X151223Y461548D01*
X150640Y460865D01*
X150005Y460230D01*
X149322Y459647D01*
X148595Y459119D01*
X147829Y458650D01*
X147029Y458242D01*
X146199Y457898D01*
X145345Y457621D01*
X144472Y457411D01*
X143585Y457270D01*
X142689Y457200D01*
X141791Y457200D01*
M02*
