G04 EAGLE Gerber RS-274X export*
G75*
%MOMM*%
%FSLAX34Y34*%
%LPD*%
%INSilkscreen Bottom*%
%IPPOS*%
%AMOC8*
5,1,8,0,0,1.08239X$1,22.5*%
G01*
%ADD10C,0.076200*%


D10*
X409829Y234061D02*
X400591Y234061D01*
X400591Y236627D01*
X400593Y236726D01*
X400599Y236826D01*
X400608Y236925D01*
X400622Y237023D01*
X400639Y237121D01*
X400660Y237219D01*
X400685Y237315D01*
X400714Y237410D01*
X400746Y237505D01*
X400782Y237597D01*
X400821Y237689D01*
X400864Y237779D01*
X400910Y237867D01*
X400960Y237953D01*
X401013Y238037D01*
X401069Y238119D01*
X401129Y238199D01*
X401191Y238276D01*
X401257Y238351D01*
X401325Y238424D01*
X401396Y238493D01*
X401470Y238560D01*
X401546Y238624D01*
X401625Y238685D01*
X401706Y238743D01*
X401789Y238798D01*
X401874Y238849D01*
X401961Y238897D01*
X402050Y238942D01*
X402141Y238983D01*
X402233Y239021D01*
X402326Y239055D01*
X402421Y239085D01*
X402517Y239112D01*
X402614Y239135D01*
X402711Y239154D01*
X402810Y239169D01*
X402909Y239181D01*
X403008Y239189D01*
X403107Y239193D01*
X403207Y239193D01*
X403306Y239189D01*
X403405Y239181D01*
X403504Y239169D01*
X403603Y239154D01*
X403700Y239135D01*
X403797Y239112D01*
X403893Y239085D01*
X403988Y239055D01*
X404081Y239021D01*
X404173Y238983D01*
X404264Y238942D01*
X404353Y238897D01*
X404440Y238849D01*
X404525Y238798D01*
X404608Y238743D01*
X404689Y238685D01*
X404768Y238624D01*
X404844Y238560D01*
X404918Y238493D01*
X404989Y238424D01*
X405057Y238351D01*
X405123Y238276D01*
X405185Y238199D01*
X405245Y238119D01*
X405301Y238037D01*
X405354Y237953D01*
X405404Y237867D01*
X405450Y237779D01*
X405493Y237689D01*
X405532Y237597D01*
X405568Y237505D01*
X405600Y237410D01*
X405629Y237315D01*
X405654Y237219D01*
X405675Y237121D01*
X405692Y237023D01*
X405706Y236925D01*
X405715Y236826D01*
X405721Y236726D01*
X405723Y236627D01*
X405723Y234061D01*
X405723Y237140D02*
X409829Y239193D01*
X409829Y243435D02*
X400591Y243435D01*
X400591Y246001D01*
X400593Y246100D01*
X400599Y246200D01*
X400608Y246299D01*
X400622Y246397D01*
X400639Y246495D01*
X400660Y246593D01*
X400685Y246689D01*
X400714Y246784D01*
X400746Y246879D01*
X400782Y246971D01*
X400821Y247063D01*
X400864Y247153D01*
X400910Y247241D01*
X400960Y247327D01*
X401013Y247411D01*
X401069Y247493D01*
X401129Y247573D01*
X401191Y247650D01*
X401257Y247725D01*
X401325Y247798D01*
X401396Y247867D01*
X401470Y247934D01*
X401546Y247998D01*
X401625Y248059D01*
X401706Y248117D01*
X401789Y248172D01*
X401874Y248223D01*
X401961Y248271D01*
X402050Y248316D01*
X402141Y248357D01*
X402233Y248395D01*
X402326Y248429D01*
X402421Y248459D01*
X402517Y248486D01*
X402614Y248509D01*
X402711Y248528D01*
X402810Y248543D01*
X402909Y248555D01*
X403008Y248563D01*
X403107Y248567D01*
X403207Y248567D01*
X403306Y248563D01*
X403405Y248555D01*
X403504Y248543D01*
X403603Y248528D01*
X403700Y248509D01*
X403797Y248486D01*
X403893Y248459D01*
X403988Y248429D01*
X404081Y248395D01*
X404173Y248357D01*
X404264Y248316D01*
X404353Y248271D01*
X404440Y248223D01*
X404525Y248172D01*
X404608Y248117D01*
X404689Y248059D01*
X404768Y247998D01*
X404844Y247934D01*
X404918Y247867D01*
X404989Y247798D01*
X405057Y247725D01*
X405123Y247650D01*
X405185Y247573D01*
X405245Y247493D01*
X405301Y247411D01*
X405354Y247327D01*
X405404Y247241D01*
X405450Y247153D01*
X405493Y247063D01*
X405532Y246971D01*
X405568Y246879D01*
X405600Y246784D01*
X405629Y246689D01*
X405654Y246593D01*
X405675Y246495D01*
X405692Y246397D01*
X405706Y246299D01*
X405715Y246200D01*
X405721Y246100D01*
X405723Y246001D01*
X405723Y243435D01*
X409829Y252770D02*
X400591Y252770D01*
X409829Y251744D02*
X409829Y253797D01*
X400591Y253797D02*
X400591Y251744D01*
M02*
