G04 EAGLE Gerber RS-274X export*
G75*
%MOMM*%
%FSLAX34Y34*%
%LPD*%
%INSoldermask Top*%
%IPPOS*%
%AMOC8*
5,1,8,0,0,1.08239X$1,22.5*%
G01*
%ADD10R,1.203200X1.303200*%
%ADD11C,2.203200*%
%ADD12R,1.003200X1.003200*%
%ADD13C,3.403200*%
%ADD14R,1.303200X1.203200*%
%ADD15C,1.727200*%
%ADD16R,1.879600X1.879600*%
%ADD17C,1.879600*%
%ADD18R,2.203200X2.203200*%
%ADD19C,2.489200*%
%ADD20C,0.959600*%


D10*
X165490Y205740D03*
X182490Y205740D03*
D11*
X290619Y70100D03*
X341419Y70100D03*
X158521Y70100D03*
X209321Y70100D03*
X351790Y179070D03*
X326390Y179070D03*
X199390Y179070D03*
X173990Y179070D03*
X148590Y179070D03*
D12*
X462280Y168790D03*
X462280Y153790D03*
D10*
X60098Y449578D03*
X43098Y449578D03*
D13*
X49200Y750000D03*
X49200Y50000D03*
X449200Y50000D03*
X449200Y749200D03*
D14*
X82940Y449578D03*
X99940Y449578D03*
X43098Y281940D03*
X60098Y281940D03*
D12*
X69498Y352137D03*
X84498Y352137D03*
D15*
X347091Y314452D02*
X347091Y299212D01*
X301879Y299212D02*
X301879Y314452D01*
X347091Y249428D02*
X347091Y234188D01*
X301879Y234188D02*
X301879Y249428D01*
D10*
X60098Y318412D03*
X43098Y318412D03*
D16*
X57150Y638810D03*
D17*
X57150Y613410D03*
X57150Y588010D03*
X57150Y562610D03*
X57150Y537210D03*
D16*
X262890Y251714D03*
D17*
X262890Y277114D03*
X262890Y302514D03*
X262890Y327914D03*
X262890Y353314D03*
D12*
X69498Y380287D03*
X84498Y380287D03*
D10*
X60098Y414012D03*
X43098Y414012D03*
D16*
X405130Y370840D03*
D17*
X405130Y345440D03*
X405130Y320040D03*
X405130Y294640D03*
X405130Y269240D03*
D18*
X431800Y676910D03*
D11*
X457200Y676910D03*
X431800Y651510D03*
X457200Y651510D03*
X431800Y626110D03*
X457200Y626110D03*
X431800Y600710D03*
X457200Y600710D03*
X431800Y575310D03*
X457200Y575310D03*
X431800Y549910D03*
X457200Y549910D03*
X431800Y524510D03*
X457200Y524510D03*
X431800Y499110D03*
X457200Y499110D03*
X431800Y473710D03*
X457200Y473710D03*
X431800Y448310D03*
X457200Y448310D03*
X431800Y422910D03*
X457200Y422910D03*
X431800Y397510D03*
X457200Y397510D03*
X431800Y372110D03*
X457200Y372110D03*
X431800Y346710D03*
X457200Y346710D03*
X431800Y321310D03*
X457200Y321310D03*
X431800Y295910D03*
X457200Y295910D03*
X431800Y270510D03*
X457200Y270510D03*
X431800Y245110D03*
X457200Y245110D03*
X431800Y219710D03*
X457200Y219710D03*
X431800Y194310D03*
X457200Y194310D03*
X320040Y763270D03*
X294640Y763270D03*
X269240Y763270D03*
X243840Y763270D03*
X218440Y763270D03*
X193040Y763270D03*
X167640Y763270D03*
X142240Y763270D03*
D18*
X345440Y763270D03*
D19*
X345440Y468630D03*
X142240Y468630D03*
D11*
X105410Y252730D03*
X105410Y278130D03*
X105410Y303530D03*
X105410Y328930D03*
X105410Y354330D03*
X105410Y379730D03*
D18*
X105410Y405130D03*
D11*
X181610Y252730D03*
X181610Y278130D03*
X181610Y303530D03*
X181610Y328930D03*
X181610Y354330D03*
X181610Y379730D03*
X181610Y405130D03*
D14*
X103260Y180340D03*
X120260Y180340D03*
D10*
X216290Y249860D03*
X233290Y249860D03*
X216290Y275793D03*
X233290Y275793D03*
X216290Y301727D03*
X233290Y301727D03*
X216290Y327660D03*
X233290Y327660D03*
X46600Y149225D03*
X29600Y149225D03*
X29600Y113030D03*
X46600Y113030D03*
X29600Y185420D03*
X46600Y185420D03*
X375040Y410210D03*
X392040Y410210D03*
D14*
X92710Y623960D03*
X92710Y640960D03*
D15*
X347091Y422402D02*
X347091Y407162D01*
X301879Y407162D02*
X301879Y422402D01*
X347091Y357378D02*
X347091Y342138D01*
X301879Y342138D02*
X301879Y357378D01*
D10*
X375040Y571500D03*
X392040Y571500D03*
D20*
X76200Y482600D03*
X38100Y482600D03*
X381000Y215900D03*
X101600Y673100D03*
X127000Y635000D03*
X39370Y132080D03*
M02*
