G04 EAGLE Gerber RS-274X export*
G75*
%MOMM*%
%FSLAX34Y34*%
%LPD*%
%INSoldermask Bottom*%
%IPPOS*%
%AMOC8*
5,1,8,0,0,1.08239X$1,22.5*%
G01*
%ADD10C,2.203200*%
%ADD11C,3.403200*%
%ADD12C,1.727200*%
%ADD13R,1.879600X1.879600*%
%ADD14C,1.879600*%
%ADD15R,2.203200X2.203200*%
%ADD16C,2.489200*%
%ADD17C,0.959600*%


D10*
X290619Y70100D03*
X341419Y70100D03*
X158521Y70100D03*
X209321Y70100D03*
X351790Y179070D03*
X326390Y179070D03*
X199390Y179070D03*
X173990Y179070D03*
X148590Y179070D03*
D11*
X49200Y750000D03*
X49200Y50000D03*
X449200Y50000D03*
X449200Y749200D03*
D12*
X314452Y289814D02*
X299212Y289814D01*
X299212Y335026D02*
X314452Y335026D01*
X249428Y289814D02*
X234188Y289814D01*
X234188Y335026D02*
X249428Y335026D01*
D13*
X57150Y638810D03*
D14*
X57150Y613410D03*
X57150Y588010D03*
X57150Y562610D03*
X57150Y537210D03*
D13*
X372110Y246380D03*
D14*
X372110Y271780D03*
X372110Y297180D03*
X372110Y322580D03*
X372110Y347980D03*
D13*
X405130Y370840D03*
D14*
X405130Y345440D03*
X405130Y320040D03*
X405130Y294640D03*
X405130Y269240D03*
D15*
X431800Y676910D03*
D10*
X457200Y676910D03*
X431800Y651510D03*
X457200Y651510D03*
X431800Y626110D03*
X457200Y626110D03*
X431800Y600710D03*
X457200Y600710D03*
X431800Y575310D03*
X457200Y575310D03*
X431800Y549910D03*
X457200Y549910D03*
X431800Y524510D03*
X457200Y524510D03*
X431800Y499110D03*
X457200Y499110D03*
X431800Y473710D03*
X457200Y473710D03*
X431800Y448310D03*
X457200Y448310D03*
X431800Y422910D03*
X457200Y422910D03*
X431800Y397510D03*
X457200Y397510D03*
X431800Y372110D03*
X457200Y372110D03*
X431800Y346710D03*
X457200Y346710D03*
X431800Y321310D03*
X457200Y321310D03*
X431800Y295910D03*
X457200Y295910D03*
X431800Y270510D03*
X457200Y270510D03*
X431800Y245110D03*
X457200Y245110D03*
X431800Y219710D03*
X457200Y219710D03*
X431800Y194310D03*
X457200Y194310D03*
X320040Y763270D03*
X294640Y763270D03*
X269240Y763270D03*
X243840Y763270D03*
X218440Y763270D03*
X193040Y763270D03*
X167640Y763270D03*
X142240Y763270D03*
D15*
X345440Y763270D03*
D16*
X345440Y468630D03*
X142240Y468630D03*
D10*
X105410Y252730D03*
X105410Y278130D03*
X105410Y303530D03*
X105410Y328930D03*
X105410Y354330D03*
X105410Y379730D03*
D15*
X105410Y405130D03*
D10*
X181610Y252730D03*
X181610Y278130D03*
X181610Y303530D03*
X181610Y328930D03*
X181610Y354330D03*
X181610Y379730D03*
X181610Y405130D03*
D12*
X299212Y373634D02*
X314452Y373634D01*
X314452Y418846D02*
X299212Y418846D01*
X249428Y373634D02*
X234188Y373634D01*
X234188Y418846D02*
X249428Y418846D01*
D17*
X106680Y520700D03*
X101600Y114300D03*
X38100Y482600D03*
X381000Y215900D03*
X25400Y431800D03*
X152400Y635000D03*
X152400Y381000D03*
X177800Y457200D03*
X190500Y571500D03*
X38100Y165100D03*
M02*
