G04 EAGLE Gerber RS-274X export*
G75*
%MOMM*%
%FSLAX34Y34*%
%LPD*%
%INSolderpaste Top*%
%IPPOS*%
%AMOC8*
5,1,8,0,0,1.08239X$1,22.5*%
G01*
%ADD10R,1.000000X1.100000*%
%ADD11R,0.800000X0.800000*%
%ADD12R,1.100000X1.000000*%


D10*
X165490Y205740D03*
X182490Y205740D03*
D11*
X462280Y168790D03*
X462280Y153790D03*
D10*
X60098Y449578D03*
X43098Y449578D03*
D12*
X82940Y449578D03*
X99940Y449578D03*
X43098Y281940D03*
X60098Y281940D03*
D11*
X69498Y352137D03*
X84498Y352137D03*
D10*
X60098Y318412D03*
X43098Y318412D03*
D11*
X69498Y380287D03*
X84498Y380287D03*
D10*
X60098Y414012D03*
X43098Y414012D03*
D12*
X103260Y180340D03*
X120260Y180340D03*
D10*
X216290Y249860D03*
X233290Y249860D03*
X216290Y275793D03*
X233290Y275793D03*
X216290Y301727D03*
X233290Y301727D03*
X216290Y327660D03*
X233290Y327660D03*
X46600Y149225D03*
X29600Y149225D03*
X29600Y113030D03*
X46600Y113030D03*
X29600Y185420D03*
X46600Y185420D03*
X375040Y410210D03*
X392040Y410210D03*
D12*
X92710Y623960D03*
X92710Y640960D03*
D10*
X375040Y571500D03*
X392040Y571500D03*
M02*
