M48
;GenerationSoftware,Autodesk,EAGLE,9.6.2*%
;CreationDate,2022-01-27T06:03:06Z*%
FMAT,2
ICI,OFF
METRIC,TZ,000.000
T8C0.350
T7C1.000
T6C1.016
T5C1.020
T4C1.040
T3C1.300
T2C2.286
T1C3.200
%
G90
M71
T1
X44920Y74920
X44920Y5000
X4920Y5000
X4920Y75000
T2
X14224Y46863
X34544Y46863
T3
X20932Y7010
X15852Y7010
X34142Y7010
X29062Y7010
T4
X10541Y37973
X10541Y40513
X18161Y25273
X18161Y27813
X18161Y30353
X18161Y32893
X18161Y35433
X18161Y37973
X18161Y40513
X45720Y54991
X10541Y35433
X10541Y32893
X10541Y30353
X10541Y27813
X10541Y25273
X45720Y19431
X43180Y19431
X45720Y21971
X43180Y21971
X45720Y24511
X43180Y24511
X45720Y27051
X43180Y27051
X45720Y29591
X43180Y29591
X45720Y32131
X43180Y32131
X45720Y34671
X43180Y34671
X45720Y37211
X43180Y37211
X45720Y39751
X43180Y39751
X45720Y42291
X43180Y67691
X45720Y67691
X43180Y65151
X45720Y65151
X43180Y62611
X45720Y62611
X43180Y60071
X45720Y60071
X43180Y57531
X45720Y57531
X43180Y54991
X43180Y42291
X43180Y52451
X45720Y52451
X43180Y49911
X45720Y49911
X43180Y47371
X45720Y47371
X43180Y44831
X45720Y44831
T5
X21844Y76327
X40513Y26924
X40513Y29464
X40513Y32004
X40513Y34544
X40513Y37084
X37211Y34798
X37211Y32258
X37211Y29718
X37211Y27178
X37211Y24638
X5715Y53721
X5715Y56261
X5715Y58801
X5715Y61341
X5715Y63881
X19304Y76327
X16764Y76327
X14224Y76327
X34544Y76327
X32004Y76327
X29464Y76327
X26924Y76327
X24384Y76327
T6
X24181Y41885
X24181Y33503
X24181Y28981
X30683Y33503
X30683Y28981
X30683Y37363
X30683Y41885
X24181Y37363
T7
X14859Y17907
X17399Y17907
X19939Y17907
X32639Y17907
X35179Y17907
T8
X3810Y16510
X19050Y57150
X17780Y45720
X15240Y38100
X15240Y63500
X2540Y43180
X38100Y21590
X3810Y48260
X10160Y11430
X10668Y52070
M30